G04 #@! TF.FileFunction,Legend,Top*
%FSLAX46Y46*%
G04 Gerber Fmt 4.6, Leading zero omitted, Abs format (unit mm)*
G04 Created by KiCad (PCBNEW 4.0.7) date 09/16/18 11:34:21*
%MOMM*%
%LPD*%
G01*
G04 APERTURE LIST*
%ADD10C,0.100000*%
%ADD11C,0.150000*%
%ADD12C,0.300000*%
%ADD13C,0.120000*%
%ADD14C,0.500000*%
%ADD15C,0.200000*%
G04 APERTURE END LIST*
D10*
D11*
X75255381Y-104655666D02*
X75255381Y-105131857D01*
X74255381Y-105131857D01*
X75255381Y-104322333D02*
X74255381Y-104322333D01*
X74969667Y-103988999D01*
X74255381Y-103655666D01*
X75255381Y-103655666D01*
X74255381Y-103274714D02*
X74255381Y-102608047D01*
X75255381Y-103036619D01*
X74683952Y-102084238D02*
X74636333Y-102179476D01*
X74588714Y-102227095D01*
X74493476Y-102274714D01*
X74445857Y-102274714D01*
X74350619Y-102227095D01*
X74303000Y-102179476D01*
X74255381Y-102084238D01*
X74255381Y-101893761D01*
X74303000Y-101798523D01*
X74350619Y-101750904D01*
X74445857Y-101703285D01*
X74493476Y-101703285D01*
X74588714Y-101750904D01*
X74636333Y-101798523D01*
X74683952Y-101893761D01*
X74683952Y-102084238D01*
X74731571Y-102179476D01*
X74779190Y-102227095D01*
X74874429Y-102274714D01*
X75064905Y-102274714D01*
X75160143Y-102227095D01*
X75207762Y-102179476D01*
X75255381Y-102084238D01*
X75255381Y-101893761D01*
X75207762Y-101798523D01*
X75160143Y-101750904D01*
X75064905Y-101703285D01*
X74874429Y-101703285D01*
X74779190Y-101750904D01*
X74731571Y-101798523D01*
X74683952Y-101893761D01*
X74255381Y-101084238D02*
X74255381Y-100988999D01*
X74303000Y-100893761D01*
X74350619Y-100846142D01*
X74445857Y-100798523D01*
X74636333Y-100750904D01*
X74874429Y-100750904D01*
X75064905Y-100798523D01*
X75160143Y-100846142D01*
X75207762Y-100893761D01*
X75255381Y-100988999D01*
X75255381Y-101084238D01*
X75207762Y-101179476D01*
X75160143Y-101227095D01*
X75064905Y-101274714D01*
X74874429Y-101322333D01*
X74636333Y-101322333D01*
X74445857Y-101274714D01*
X74350619Y-101227095D01*
X74303000Y-101179476D01*
X74255381Y-101084238D01*
X74255381Y-99846142D02*
X74255381Y-100322333D01*
X74731571Y-100369952D01*
X74683952Y-100322333D01*
X74636333Y-100227095D01*
X74636333Y-99988999D01*
X74683952Y-99893761D01*
X74731571Y-99846142D01*
X74826810Y-99798523D01*
X75064905Y-99798523D01*
X75160143Y-99846142D01*
X75207762Y-99893761D01*
X75255381Y-99988999D01*
X75255381Y-100227095D01*
X75207762Y-100322333D01*
X75160143Y-100369952D01*
X140546486Y-73996301D02*
X141213153Y-73996301D01*
X140784581Y-74996301D01*
X142022677Y-74329634D02*
X142022677Y-74996301D01*
X141784581Y-73948682D02*
X141546486Y-74662968D01*
X142165534Y-74662968D01*
X142546486Y-74996301D02*
X142546486Y-73996301D01*
X142546486Y-74472491D02*
X143117915Y-74472491D01*
X143117915Y-74996301D02*
X143117915Y-73996301D01*
X144165534Y-74901063D02*
X144117915Y-74948682D01*
X143975058Y-74996301D01*
X143879820Y-74996301D01*
X143736962Y-74948682D01*
X143641724Y-74853444D01*
X143594105Y-74758206D01*
X143546486Y-74567730D01*
X143546486Y-74424872D01*
X143594105Y-74234396D01*
X143641724Y-74139158D01*
X143736962Y-74043920D01*
X143879820Y-73996301D01*
X143975058Y-73996301D01*
X144117915Y-74043920D01*
X144165534Y-74091539D01*
X144784581Y-73996301D02*
X144879820Y-73996301D01*
X144975058Y-74043920D01*
X145022677Y-74091539D01*
X145070296Y-74186777D01*
X145117915Y-74377253D01*
X145117915Y-74615349D01*
X145070296Y-74805825D01*
X145022677Y-74901063D01*
X144975058Y-74948682D01*
X144879820Y-74996301D01*
X144784581Y-74996301D01*
X144689343Y-74948682D01*
X144641724Y-74901063D01*
X144594105Y-74805825D01*
X144546486Y-74615349D01*
X144546486Y-74377253D01*
X144594105Y-74186777D01*
X144641724Y-74091539D01*
X144689343Y-74043920D01*
X144784581Y-73996301D01*
X145975058Y-74329634D02*
X145975058Y-74996301D01*
X145736962Y-73948682D02*
X145498867Y-74662968D01*
X146117915Y-74662968D01*
X79693166Y-74331581D02*
X80359833Y-74331581D01*
X79931261Y-75331581D01*
X81169357Y-74664914D02*
X81169357Y-75331581D01*
X80931261Y-74283962D02*
X80693166Y-74998248D01*
X81312214Y-74998248D01*
X81693166Y-75331581D02*
X81693166Y-74331581D01*
X81693166Y-74807771D02*
X82264595Y-74807771D01*
X82264595Y-75331581D02*
X82264595Y-74331581D01*
X83312214Y-75236343D02*
X83264595Y-75283962D01*
X83121738Y-75331581D01*
X83026500Y-75331581D01*
X82883642Y-75283962D01*
X82788404Y-75188724D01*
X82740785Y-75093486D01*
X82693166Y-74903010D01*
X82693166Y-74760152D01*
X82740785Y-74569676D01*
X82788404Y-74474438D01*
X82883642Y-74379200D01*
X83026500Y-74331581D01*
X83121738Y-74331581D01*
X83264595Y-74379200D01*
X83312214Y-74426819D01*
X83931261Y-74331581D02*
X84026500Y-74331581D01*
X84121738Y-74379200D01*
X84169357Y-74426819D01*
X84216976Y-74522057D01*
X84264595Y-74712533D01*
X84264595Y-74950629D01*
X84216976Y-75141105D01*
X84169357Y-75236343D01*
X84121738Y-75283962D01*
X84026500Y-75331581D01*
X83931261Y-75331581D01*
X83836023Y-75283962D01*
X83788404Y-75236343D01*
X83740785Y-75141105D01*
X83693166Y-74950629D01*
X83693166Y-74712533D01*
X83740785Y-74522057D01*
X83788404Y-74426819D01*
X83836023Y-74379200D01*
X83931261Y-74331581D01*
X85121738Y-74664914D02*
X85121738Y-75331581D01*
X84883642Y-74283962D02*
X84645547Y-74998248D01*
X85264595Y-74998248D01*
X69123276Y-51192181D02*
X69456609Y-52192181D01*
X69789943Y-51192181D01*
X70313752Y-51192181D02*
X70504229Y-51192181D01*
X70599467Y-51239800D01*
X70694705Y-51335038D01*
X70742324Y-51525514D01*
X70742324Y-51858848D01*
X70694705Y-52049324D01*
X70599467Y-52144562D01*
X70504229Y-52192181D01*
X70313752Y-52192181D01*
X70218514Y-52144562D01*
X70123276Y-52049324D01*
X70075657Y-51858848D01*
X70075657Y-51525514D01*
X70123276Y-51335038D01*
X70218514Y-51239800D01*
X70313752Y-51192181D01*
X71647086Y-52192181D02*
X71170895Y-52192181D01*
X71170895Y-51192181D01*
X71980419Y-51192181D02*
X71980419Y-52001705D01*
X72028038Y-52096943D01*
X72075657Y-52144562D01*
X72170895Y-52192181D01*
X72361372Y-52192181D01*
X72456610Y-52144562D01*
X72504229Y-52096943D01*
X72551848Y-52001705D01*
X72551848Y-51192181D01*
X73028038Y-52192181D02*
X73028038Y-51192181D01*
X73361372Y-51906467D01*
X73694705Y-51192181D01*
X73694705Y-52192181D01*
X74170895Y-51668371D02*
X74504229Y-51668371D01*
X74647086Y-52192181D02*
X74170895Y-52192181D01*
X74170895Y-51192181D01*
X74647086Y-51192181D01*
X126395718Y-52029621D02*
X126395718Y-51029621D01*
X126776671Y-51029621D01*
X126871909Y-51077240D01*
X126919528Y-51124859D01*
X126967147Y-51220097D01*
X126967147Y-51362954D01*
X126919528Y-51458192D01*
X126871909Y-51505811D01*
X126776671Y-51553430D01*
X126395718Y-51553430D01*
X127395718Y-52029621D02*
X127395718Y-51029621D01*
X127729051Y-51029621D02*
X128300480Y-51029621D01*
X128014765Y-52029621D02*
X128014765Y-51029621D01*
X129205242Y-51934383D02*
X129157623Y-51982002D01*
X129014766Y-52029621D01*
X128919528Y-52029621D01*
X128776670Y-51982002D01*
X128681432Y-51886764D01*
X128633813Y-51791526D01*
X128586194Y-51601050D01*
X128586194Y-51458192D01*
X128633813Y-51267716D01*
X128681432Y-51172478D01*
X128776670Y-51077240D01*
X128919528Y-51029621D01*
X129014766Y-51029621D01*
X129157623Y-51077240D01*
X129205242Y-51124859D01*
X129633813Y-52029621D02*
X129633813Y-51029621D01*
X129633813Y-51505811D02*
X130205242Y-51505811D01*
X130205242Y-52029621D02*
X130205242Y-51029621D01*
X51719171Y-88643438D02*
X51719171Y-89405343D01*
X51338219Y-90643438D02*
X52338219Y-90643438D01*
X52338219Y-91024391D01*
X52290600Y-91119629D01*
X52242981Y-91167248D01*
X52147743Y-91214867D01*
X52004886Y-91214867D01*
X51909648Y-91167248D01*
X51862029Y-91119629D01*
X51814410Y-91024391D01*
X51814410Y-90643438D01*
X51862029Y-91643438D02*
X51862029Y-91976772D01*
X51338219Y-92119629D02*
X51338219Y-91643438D01*
X52338219Y-91643438D01*
X52338219Y-92119629D01*
X51338219Y-92548200D02*
X52338219Y-92548200D01*
X52338219Y-92786295D01*
X52290600Y-92929153D01*
X52195362Y-93024391D01*
X52100124Y-93072010D01*
X51909648Y-93119629D01*
X51766790Y-93119629D01*
X51576314Y-93072010D01*
X51481076Y-93024391D01*
X51385838Y-92929153D01*
X51338219Y-92786295D01*
X51338219Y-92548200D01*
X51623933Y-93500581D02*
X51623933Y-93976772D01*
X51338219Y-93405343D02*
X52338219Y-93738676D01*
X51338219Y-94072010D01*
X51338219Y-94881534D02*
X51338219Y-94405343D01*
X52338219Y-94405343D01*
X52242981Y-95929153D02*
X52290600Y-95976772D01*
X52338219Y-96072010D01*
X52338219Y-96310106D01*
X52290600Y-96405344D01*
X52242981Y-96452963D01*
X52147743Y-96500582D01*
X52052505Y-96500582D01*
X51909648Y-96452963D01*
X51338219Y-95881534D01*
X51338219Y-96500582D01*
X51719171Y-97691058D02*
X51719171Y-98452963D01*
X51338219Y-98072011D02*
X52100124Y-98072011D01*
X51566771Y-100886238D02*
X51566771Y-101648143D01*
X51185819Y-102886238D02*
X52185819Y-102886238D01*
X52185819Y-103267191D01*
X52138200Y-103362429D01*
X52090581Y-103410048D01*
X51995343Y-103457667D01*
X51852486Y-103457667D01*
X51757248Y-103410048D01*
X51709629Y-103362429D01*
X51662010Y-103267191D01*
X51662010Y-102886238D01*
X51709629Y-103886238D02*
X51709629Y-104219572D01*
X51185819Y-104362429D02*
X51185819Y-103886238D01*
X52185819Y-103886238D01*
X52185819Y-104362429D01*
X51185819Y-104791000D02*
X52185819Y-104791000D01*
X52185819Y-105029095D01*
X52138200Y-105171953D01*
X52042962Y-105267191D01*
X51947724Y-105314810D01*
X51757248Y-105362429D01*
X51614390Y-105362429D01*
X51423914Y-105314810D01*
X51328676Y-105267191D01*
X51233438Y-105171953D01*
X51185819Y-105029095D01*
X51185819Y-104791000D01*
X51471533Y-105743381D02*
X51471533Y-106219572D01*
X51185819Y-105648143D02*
X52185819Y-105981476D01*
X51185819Y-106314810D01*
X51185819Y-107124334D02*
X51185819Y-106648143D01*
X52185819Y-106648143D01*
X51185819Y-108743382D02*
X51185819Y-108171953D01*
X51185819Y-108457667D02*
X52185819Y-108457667D01*
X52042962Y-108362429D01*
X51947724Y-108267191D01*
X51900105Y-108171953D01*
X51566771Y-109933858D02*
X51566771Y-110695763D01*
X51185819Y-110314811D02*
X51947724Y-110314811D01*
D12*
X89335470Y-122811157D02*
X89549756Y-122882586D01*
X89621184Y-122954014D01*
X89692613Y-123096871D01*
X89692613Y-123311157D01*
X89621184Y-123454014D01*
X89549756Y-123525443D01*
X89406898Y-123596871D01*
X88835470Y-123596871D01*
X88835470Y-122096871D01*
X89335470Y-122096871D01*
X89478327Y-122168300D01*
X89549756Y-122239729D01*
X89621184Y-122382586D01*
X89621184Y-122525443D01*
X89549756Y-122668300D01*
X89478327Y-122739729D01*
X89335470Y-122811157D01*
X88835470Y-122811157D01*
X91049756Y-123596871D02*
X90335470Y-123596871D01*
X90335470Y-122096871D01*
X91549756Y-122096871D02*
X91549756Y-123311157D01*
X91621184Y-123454014D01*
X91692613Y-123525443D01*
X91835470Y-123596871D01*
X92121184Y-123596871D01*
X92264042Y-123525443D01*
X92335470Y-123454014D01*
X92406899Y-123311157D01*
X92406899Y-122096871D01*
X93121185Y-122811157D02*
X93621185Y-122811157D01*
X93835471Y-123596871D02*
X93121185Y-123596871D01*
X93121185Y-122096871D01*
X93835471Y-122096871D01*
X94478328Y-123596871D02*
X94478328Y-122096871D01*
X95049756Y-122096871D01*
X95192614Y-122168300D01*
X95264042Y-122239729D01*
X95335471Y-122382586D01*
X95335471Y-122596871D01*
X95264042Y-122739729D01*
X95192614Y-122811157D01*
X95049756Y-122882586D01*
X94478328Y-122882586D01*
X95978328Y-123596871D02*
X95978328Y-122096871D01*
X97406900Y-123596871D02*
X96692614Y-123596871D01*
X96692614Y-122096871D01*
X98621186Y-123596871D02*
X97906900Y-123596871D01*
X97906900Y-122096871D01*
X100049757Y-122096871D02*
X100906900Y-122096871D01*
X100478329Y-123596871D02*
X100478329Y-122096871D01*
X101406900Y-123596871D02*
X101406900Y-122096871D01*
X101406900Y-122811157D02*
X102264043Y-122811157D01*
X102264043Y-123596871D02*
X102264043Y-122096871D01*
X102978329Y-122811157D02*
X103478329Y-122811157D01*
X103692615Y-123596871D02*
X102978329Y-123596871D01*
X102978329Y-122096871D01*
X103692615Y-122096871D01*
X105192615Y-123596871D02*
X104692615Y-122882586D01*
X104335472Y-123596871D02*
X104335472Y-122096871D01*
X104906900Y-122096871D01*
X105049758Y-122168300D01*
X105121186Y-122239729D01*
X105192615Y-122382586D01*
X105192615Y-122596871D01*
X105121186Y-122739729D01*
X105049758Y-122811157D01*
X104906900Y-122882586D01*
X104335472Y-122882586D01*
X105835472Y-122811157D02*
X106335472Y-122811157D01*
X106549758Y-123596871D02*
X105835472Y-123596871D01*
X105835472Y-122096871D01*
X106549758Y-122096871D01*
X107192615Y-123596871D02*
X107192615Y-122096871D01*
X107692615Y-123168300D01*
X108192615Y-122096871D01*
X108192615Y-123596871D01*
X108906901Y-123596871D02*
X108906901Y-122096871D01*
X109621187Y-123596871D02*
X109621187Y-122096871D01*
X110478330Y-123596871D01*
X110478330Y-122096871D01*
X93514044Y-125361157D02*
X93728330Y-125432586D01*
X93799758Y-125504014D01*
X93871187Y-125646871D01*
X93871187Y-125861157D01*
X93799758Y-126004014D01*
X93728330Y-126075443D01*
X93585472Y-126146871D01*
X93014044Y-126146871D01*
X93014044Y-124646871D01*
X93514044Y-124646871D01*
X93656901Y-124718300D01*
X93728330Y-124789729D01*
X93799758Y-124932586D01*
X93799758Y-125075443D01*
X93728330Y-125218300D01*
X93656901Y-125289729D01*
X93514044Y-125361157D01*
X93014044Y-125361157D01*
X94799758Y-125432586D02*
X94799758Y-126146871D01*
X94299758Y-124646871D02*
X94799758Y-125432586D01*
X95299758Y-124646871D01*
X96942615Y-126146871D02*
X96942615Y-124646871D01*
X97299758Y-124646871D01*
X97514043Y-124718300D01*
X97656901Y-124861157D01*
X97728329Y-125004014D01*
X97799758Y-125289729D01*
X97799758Y-125504014D01*
X97728329Y-125789729D01*
X97656901Y-125932586D01*
X97514043Y-126075443D01*
X97299758Y-126146871D01*
X96942615Y-126146871D01*
X99585472Y-126146871D02*
X99585472Y-124646871D01*
X100085472Y-125718300D01*
X100585472Y-124646871D01*
X100585472Y-126146871D01*
X101228329Y-125718300D02*
X101942615Y-125718300D01*
X101085472Y-126146871D02*
X101585472Y-124646871D01*
X102085472Y-126146871D01*
X103442615Y-126146871D02*
X102942615Y-125432586D01*
X102585472Y-126146871D02*
X102585472Y-124646871D01*
X103156900Y-124646871D01*
X103299758Y-124718300D01*
X103371186Y-124789729D01*
X103442615Y-124932586D01*
X103442615Y-125146871D01*
X103371186Y-125289729D01*
X103299758Y-125361157D01*
X103156900Y-125432586D01*
X102585472Y-125432586D01*
X104085472Y-126146871D02*
X104085472Y-124646871D01*
X104942615Y-126146871D02*
X104299758Y-125289729D01*
X104942615Y-124646871D02*
X104085472Y-125504014D01*
X105514043Y-126075443D02*
X105728329Y-126146871D01*
X106085472Y-126146871D01*
X106228329Y-126075443D01*
X106299758Y-126004014D01*
X106371186Y-125861157D01*
X106371186Y-125718300D01*
X106299758Y-125575443D01*
X106228329Y-125504014D01*
X106085472Y-125432586D01*
X105799758Y-125361157D01*
X105656900Y-125289729D01*
X105585472Y-125218300D01*
X105514043Y-125075443D01*
X105514043Y-124932586D01*
X105585472Y-124789729D01*
X105656900Y-124718300D01*
X105799758Y-124646871D01*
X106156900Y-124646871D01*
X106371186Y-124718300D01*
D11*
X131572238Y-144724381D02*
X131572238Y-143724381D01*
X131953191Y-143724381D01*
X132048429Y-143772000D01*
X132096048Y-143819619D01*
X132143667Y-143914857D01*
X132143667Y-144057714D01*
X132096048Y-144152952D01*
X132048429Y-144200571D01*
X131953191Y-144248190D01*
X131572238Y-144248190D01*
X132572238Y-144724381D02*
X132572238Y-143724381D01*
X132905571Y-143724381D02*
X133477000Y-143724381D01*
X133191285Y-144724381D02*
X133191285Y-143724381D01*
X134381762Y-144629143D02*
X134334143Y-144676762D01*
X134191286Y-144724381D01*
X134096048Y-144724381D01*
X133953190Y-144676762D01*
X133857952Y-144581524D01*
X133810333Y-144486286D01*
X133762714Y-144295810D01*
X133762714Y-144152952D01*
X133810333Y-143962476D01*
X133857952Y-143867238D01*
X133953190Y-143772000D01*
X134096048Y-143724381D01*
X134191286Y-143724381D01*
X134334143Y-143772000D01*
X134381762Y-143819619D01*
X134810333Y-144724381D02*
X134810333Y-143724381D01*
X134810333Y-144200571D02*
X135381762Y-144200571D01*
X135381762Y-144724381D02*
X135381762Y-143724381D01*
X108450572Y-144676762D02*
X108593429Y-144724381D01*
X108831525Y-144724381D01*
X108926763Y-144676762D01*
X108974382Y-144629143D01*
X109022001Y-144533905D01*
X109022001Y-144438667D01*
X108974382Y-144343429D01*
X108926763Y-144295810D01*
X108831525Y-144248190D01*
X108641048Y-144200571D01*
X108545810Y-144152952D01*
X108498191Y-144105333D01*
X108450572Y-144010095D01*
X108450572Y-143914857D01*
X108498191Y-143819619D01*
X108545810Y-143772000D01*
X108641048Y-143724381D01*
X108879144Y-143724381D01*
X109022001Y-143772000D01*
X109450572Y-144200571D02*
X109783906Y-144200571D01*
X109926763Y-144724381D02*
X109450572Y-144724381D01*
X109450572Y-143724381D01*
X109926763Y-143724381D01*
X110355334Y-144724381D02*
X110355334Y-143724381D01*
X110926763Y-144724381D01*
X110926763Y-143724381D01*
X111355334Y-144676762D02*
X111498191Y-144724381D01*
X111736287Y-144724381D01*
X111831525Y-144676762D01*
X111879144Y-144629143D01*
X111926763Y-144533905D01*
X111926763Y-144438667D01*
X111879144Y-144343429D01*
X111831525Y-144295810D01*
X111736287Y-144248190D01*
X111545810Y-144200571D01*
X111450572Y-144152952D01*
X111402953Y-144105333D01*
X111355334Y-144010095D01*
X111355334Y-143914857D01*
X111402953Y-143819619D01*
X111450572Y-143772000D01*
X111545810Y-143724381D01*
X111783906Y-143724381D01*
X111926763Y-143772000D01*
X112355334Y-144724381D02*
X112355334Y-143724381D01*
X112688667Y-143724381D02*
X113260096Y-143724381D01*
X112974381Y-144724381D02*
X112974381Y-143724381D01*
X113593429Y-144724381D02*
X113593429Y-143724381D01*
X113926762Y-143724381D02*
X114260095Y-144724381D01*
X114593429Y-143724381D01*
X114926762Y-144724381D02*
X114926762Y-143724381D01*
X115260095Y-143724381D02*
X115831524Y-143724381D01*
X115545809Y-144724381D02*
X115545809Y-143724381D01*
X116355333Y-144248190D02*
X116355333Y-144724381D01*
X116022000Y-143724381D02*
X116355333Y-144248190D01*
X116688667Y-143724381D01*
X88765381Y-144232381D02*
X89336810Y-144232381D01*
X89051095Y-145232381D02*
X89051095Y-144232381D01*
X89670143Y-145232381D02*
X89670143Y-144232381D01*
X90146333Y-145232381D02*
X90146333Y-144232381D01*
X90479667Y-144946667D01*
X90813000Y-144232381D01*
X90813000Y-145232381D01*
X91622524Y-144708571D02*
X91765381Y-144756190D01*
X91813000Y-144803810D01*
X91860619Y-144899048D01*
X91860619Y-145041905D01*
X91813000Y-145137143D01*
X91765381Y-145184762D01*
X91670143Y-145232381D01*
X91289190Y-145232381D01*
X91289190Y-144232381D01*
X91622524Y-144232381D01*
X91717762Y-144280000D01*
X91765381Y-144327619D01*
X91813000Y-144422857D01*
X91813000Y-144518095D01*
X91765381Y-144613333D01*
X91717762Y-144660952D01*
X91622524Y-144708571D01*
X91289190Y-144708571D01*
X92860619Y-145232381D02*
X92527285Y-144756190D01*
X92289190Y-145232381D02*
X92289190Y-144232381D01*
X92670143Y-144232381D01*
X92765381Y-144280000D01*
X92813000Y-144327619D01*
X92860619Y-144422857D01*
X92860619Y-144565714D01*
X92813000Y-144660952D01*
X92765381Y-144708571D01*
X92670143Y-144756190D01*
X92289190Y-144756190D01*
X93289190Y-144708571D02*
X93622524Y-144708571D01*
X93765381Y-145232381D02*
X93289190Y-145232381D01*
X93289190Y-144232381D01*
X93765381Y-144232381D01*
X65389476Y-144994381D02*
X65722809Y-145994381D01*
X66056143Y-144994381D01*
X66579952Y-144994381D02*
X66770429Y-144994381D01*
X66865667Y-145042000D01*
X66960905Y-145137238D01*
X67008524Y-145327714D01*
X67008524Y-145661048D01*
X66960905Y-145851524D01*
X66865667Y-145946762D01*
X66770429Y-145994381D01*
X66579952Y-145994381D01*
X66484714Y-145946762D01*
X66389476Y-145851524D01*
X66341857Y-145661048D01*
X66341857Y-145327714D01*
X66389476Y-145137238D01*
X66484714Y-145042000D01*
X66579952Y-144994381D01*
X67913286Y-145994381D02*
X67437095Y-145994381D01*
X67437095Y-144994381D01*
X68246619Y-144994381D02*
X68246619Y-145803905D01*
X68294238Y-145899143D01*
X68341857Y-145946762D01*
X68437095Y-145994381D01*
X68627572Y-145994381D01*
X68722810Y-145946762D01*
X68770429Y-145899143D01*
X68818048Y-145803905D01*
X68818048Y-144994381D01*
X69294238Y-145994381D02*
X69294238Y-144994381D01*
X69627572Y-145708667D01*
X69960905Y-144994381D01*
X69960905Y-145994381D01*
X70437095Y-145470571D02*
X70770429Y-145470571D01*
X70913286Y-145994381D02*
X70437095Y-145994381D01*
X70437095Y-144994381D01*
X70913286Y-144994381D01*
X56094333Y-75311857D02*
X56094333Y-75788048D01*
X55808619Y-75216619D02*
X56808619Y-75549952D01*
X55808619Y-75883286D01*
X55808619Y-76216619D02*
X56808619Y-76216619D01*
X56094333Y-76549953D01*
X56808619Y-76883286D01*
X55808619Y-76883286D01*
X55808619Y-77359476D02*
X56808619Y-77359476D01*
X56808619Y-77740429D01*
X56761000Y-77835667D01*
X56713381Y-77883286D01*
X56618143Y-77930905D01*
X56475286Y-77930905D01*
X56380048Y-77883286D01*
X56332429Y-77835667D01*
X56284810Y-77740429D01*
X56284810Y-77359476D01*
X55808619Y-78835667D02*
X55808619Y-78359476D01*
X56808619Y-78359476D01*
X55808619Y-79169000D02*
X56808619Y-79169000D01*
X56332429Y-79978524D02*
X56332429Y-79645190D01*
X55808619Y-79645190D02*
X56808619Y-79645190D01*
X56808619Y-80121381D01*
X55808619Y-80502333D02*
X56808619Y-80502333D01*
X56332429Y-80978523D02*
X56332429Y-81311857D01*
X55808619Y-81454714D02*
X55808619Y-80978523D01*
X56808619Y-80978523D01*
X56808619Y-81454714D01*
X55808619Y-81883285D02*
X56808619Y-81883285D01*
X56808619Y-82121380D01*
X56761000Y-82264238D01*
X56665762Y-82359476D01*
X56570524Y-82407095D01*
X56380048Y-82454714D01*
X56237190Y-82454714D01*
X56046714Y-82407095D01*
X55951476Y-82359476D01*
X55856238Y-82264238D01*
X55808619Y-82121380D01*
X55808619Y-81883285D01*
X56808619Y-83502333D02*
X55808619Y-83835666D01*
X56808619Y-84169000D01*
X56808619Y-84692809D02*
X56808619Y-84883286D01*
X56761000Y-84978524D01*
X56665762Y-85073762D01*
X56475286Y-85121381D01*
X56141952Y-85121381D01*
X55951476Y-85073762D01*
X55856238Y-84978524D01*
X55808619Y-84883286D01*
X55808619Y-84692809D01*
X55856238Y-84597571D01*
X55951476Y-84502333D01*
X56141952Y-84454714D01*
X56475286Y-84454714D01*
X56665762Y-84502333D01*
X56761000Y-84597571D01*
X56808619Y-84692809D01*
X55808619Y-86026143D02*
X55808619Y-85549952D01*
X56808619Y-85549952D01*
X56808619Y-86359476D02*
X55999095Y-86359476D01*
X55903857Y-86407095D01*
X55856238Y-86454714D01*
X55808619Y-86549952D01*
X55808619Y-86740429D01*
X55856238Y-86835667D01*
X55903857Y-86883286D01*
X55999095Y-86930905D01*
X56808619Y-86930905D01*
X55808619Y-87407095D02*
X56808619Y-87407095D01*
X56094333Y-87740429D01*
X56808619Y-88073762D01*
X55808619Y-88073762D01*
X56332429Y-88549952D02*
X56332429Y-88883286D01*
X55808619Y-89026143D02*
X55808619Y-88549952D01*
X56808619Y-88549952D01*
X56808619Y-89026143D01*
X125344181Y-103849276D02*
X125344181Y-104325467D01*
X124344181Y-104325467D01*
X125344181Y-103515943D02*
X124344181Y-103515943D01*
X125058467Y-103182609D01*
X124344181Y-102849276D01*
X125344181Y-102849276D01*
X124344181Y-102468324D02*
X124344181Y-101849276D01*
X124725133Y-102182610D01*
X124725133Y-102039752D01*
X124772752Y-101944514D01*
X124820371Y-101896895D01*
X124915610Y-101849276D01*
X125153705Y-101849276D01*
X125248943Y-101896895D01*
X125296562Y-101944514D01*
X125344181Y-102039752D01*
X125344181Y-102325467D01*
X125296562Y-102420705D01*
X125248943Y-102468324D01*
X124344181Y-100944514D02*
X124344181Y-101420705D01*
X124820371Y-101468324D01*
X124772752Y-101420705D01*
X124725133Y-101325467D01*
X124725133Y-101087371D01*
X124772752Y-100992133D01*
X124820371Y-100944514D01*
X124915610Y-100896895D01*
X125153705Y-100896895D01*
X125248943Y-100944514D01*
X125296562Y-100992133D01*
X125344181Y-101087371D01*
X125344181Y-101325467D01*
X125296562Y-101420705D01*
X125248943Y-101468324D01*
X124772752Y-100325467D02*
X124725133Y-100420705D01*
X124677514Y-100468324D01*
X124582276Y-100515943D01*
X124534657Y-100515943D01*
X124439419Y-100468324D01*
X124391800Y-100420705D01*
X124344181Y-100325467D01*
X124344181Y-100134990D01*
X124391800Y-100039752D01*
X124439419Y-99992133D01*
X124534657Y-99944514D01*
X124582276Y-99944514D01*
X124677514Y-99992133D01*
X124725133Y-100039752D01*
X124772752Y-100134990D01*
X124772752Y-100325467D01*
X124820371Y-100420705D01*
X124867990Y-100468324D01*
X124963229Y-100515943D01*
X125153705Y-100515943D01*
X125248943Y-100468324D01*
X125296562Y-100420705D01*
X125344181Y-100325467D01*
X125344181Y-100134990D01*
X125296562Y-100039752D01*
X125248943Y-99992133D01*
X125153705Y-99944514D01*
X124963229Y-99944514D01*
X124867990Y-99992133D01*
X124820371Y-100039752D01*
X124772752Y-100134990D01*
X122893581Y-88963333D02*
X121893581Y-88963333D01*
X122607867Y-88629999D01*
X121893581Y-88296666D01*
X122893581Y-88296666D01*
X122798343Y-87249047D02*
X122845962Y-87296666D01*
X122893581Y-87439523D01*
X122893581Y-87534761D01*
X122845962Y-87677619D01*
X122750724Y-87772857D01*
X122655486Y-87820476D01*
X122465010Y-87868095D01*
X122322152Y-87868095D01*
X122131676Y-87820476D01*
X122036438Y-87772857D01*
X121941200Y-87677619D01*
X121893581Y-87534761D01*
X121893581Y-87439523D01*
X121941200Y-87296666D01*
X121988819Y-87249047D01*
X122893581Y-86820476D02*
X121893581Y-86820476D01*
X121893581Y-86439523D01*
X121941200Y-86344285D01*
X121988819Y-86296666D01*
X122084057Y-86249047D01*
X122226914Y-86249047D01*
X122322152Y-86296666D01*
X122369771Y-86344285D01*
X122417390Y-86439523D01*
X122417390Y-86820476D01*
X123876914Y-88868095D02*
X124543581Y-88868095D01*
X123495962Y-89106191D02*
X124210248Y-89344286D01*
X124210248Y-88725238D01*
X124543581Y-88296667D02*
X124543581Y-88106191D01*
X124495962Y-88010952D01*
X124448343Y-87963333D01*
X124305486Y-87868095D01*
X124115010Y-87820476D01*
X123734057Y-87820476D01*
X123638819Y-87868095D01*
X123591200Y-87915714D01*
X123543581Y-88010952D01*
X123543581Y-88201429D01*
X123591200Y-88296667D01*
X123638819Y-88344286D01*
X123734057Y-88391905D01*
X123972152Y-88391905D01*
X124067390Y-88344286D01*
X124115010Y-88296667D01*
X124162629Y-88201429D01*
X124162629Y-88010952D01*
X124115010Y-87915714D01*
X124067390Y-87868095D01*
X123972152Y-87820476D01*
X123638819Y-87439524D02*
X123591200Y-87391905D01*
X123543581Y-87296667D01*
X123543581Y-87058571D01*
X123591200Y-86963333D01*
X123638819Y-86915714D01*
X123734057Y-86868095D01*
X123829295Y-86868095D01*
X123972152Y-86915714D01*
X124543581Y-87487143D01*
X124543581Y-86868095D01*
X124543581Y-85915714D02*
X124543581Y-86487143D01*
X124543581Y-86201429D02*
X123543581Y-86201429D01*
X123686438Y-86296667D01*
X123781676Y-86391905D01*
X123829295Y-86487143D01*
X67051181Y-86577276D02*
X67051181Y-87053467D01*
X66051181Y-87053467D01*
X67051181Y-86243943D02*
X66051181Y-86243943D01*
X66765467Y-85910609D01*
X66051181Y-85577276D01*
X67051181Y-85577276D01*
X66051181Y-85196324D02*
X66051181Y-84577276D01*
X66432133Y-84910610D01*
X66432133Y-84767752D01*
X66479752Y-84672514D01*
X66527371Y-84624895D01*
X66622610Y-84577276D01*
X66860705Y-84577276D01*
X66955943Y-84624895D01*
X67003562Y-84672514D01*
X67051181Y-84767752D01*
X67051181Y-85053467D01*
X67003562Y-85148705D01*
X66955943Y-85196324D01*
X66479752Y-84005848D02*
X66432133Y-84101086D01*
X66384514Y-84148705D01*
X66289276Y-84196324D01*
X66241657Y-84196324D01*
X66146419Y-84148705D01*
X66098800Y-84101086D01*
X66051181Y-84005848D01*
X66051181Y-83815371D01*
X66098800Y-83720133D01*
X66146419Y-83672514D01*
X66241657Y-83624895D01*
X66289276Y-83624895D01*
X66384514Y-83672514D01*
X66432133Y-83720133D01*
X66479752Y-83815371D01*
X66479752Y-84005848D01*
X66527371Y-84101086D01*
X66574990Y-84148705D01*
X66670229Y-84196324D01*
X66860705Y-84196324D01*
X66955943Y-84148705D01*
X67003562Y-84101086D01*
X67051181Y-84005848D01*
X67051181Y-83815371D01*
X67003562Y-83720133D01*
X66955943Y-83672514D01*
X66860705Y-83624895D01*
X66670229Y-83624895D01*
X66574990Y-83672514D01*
X66527371Y-83720133D01*
X66479752Y-83815371D01*
X66051181Y-82767752D02*
X66051181Y-82958229D01*
X66098800Y-83053467D01*
X66146419Y-83101086D01*
X66289276Y-83196324D01*
X66479752Y-83243943D01*
X66860705Y-83243943D01*
X66955943Y-83196324D01*
X67003562Y-83148705D01*
X67051181Y-83053467D01*
X67051181Y-82862990D01*
X67003562Y-82767752D01*
X66955943Y-82720133D01*
X66860705Y-82672514D01*
X66622610Y-82672514D01*
X66527371Y-82720133D01*
X66479752Y-82767752D01*
X66432133Y-82862990D01*
X66432133Y-83053467D01*
X66479752Y-83148705D01*
X66527371Y-83196324D01*
X66622610Y-83243943D01*
D12*
X52396000Y-126519714D02*
X52324571Y-126591143D01*
X52110285Y-126662571D01*
X51967428Y-126662571D01*
X51753143Y-126591143D01*
X51610285Y-126448286D01*
X51538857Y-126305429D01*
X51467428Y-126019714D01*
X51467428Y-125805429D01*
X51538857Y-125519714D01*
X51610285Y-125376857D01*
X51753143Y-125234000D01*
X51967428Y-125162571D01*
X52110285Y-125162571D01*
X52324571Y-125234000D01*
X52396000Y-125305429D01*
X53038857Y-125876857D02*
X53538857Y-125876857D01*
X53753143Y-126662571D02*
X53038857Y-126662571D01*
X53038857Y-125162571D01*
X53753143Y-125162571D01*
X54396000Y-126662571D02*
X54396000Y-125162571D01*
X55253143Y-126662571D01*
X55253143Y-125162571D01*
X55753143Y-125162571D02*
X56610286Y-125162571D01*
X56181715Y-126662571D02*
X56181715Y-125162571D01*
X57110286Y-125876857D02*
X57610286Y-125876857D01*
X57824572Y-126662571D02*
X57110286Y-126662571D01*
X57110286Y-125162571D01*
X57824572Y-125162571D01*
X59324572Y-126662571D02*
X58824572Y-125948286D01*
X58467429Y-126662571D02*
X58467429Y-125162571D01*
X59038857Y-125162571D01*
X59181715Y-125234000D01*
X59253143Y-125305429D01*
X59324572Y-125448286D01*
X59324572Y-125662571D01*
X59253143Y-125805429D01*
X59181715Y-125876857D01*
X59038857Y-125948286D01*
X58467429Y-125948286D01*
X61110286Y-126091143D02*
X62253143Y-126091143D01*
X61681714Y-126662571D02*
X61681714Y-125519714D01*
X52216857Y-114872001D02*
X52216857Y-116014858D01*
X51645429Y-117943429D02*
X51645429Y-118229144D01*
X51716857Y-118372001D01*
X51788286Y-118443429D01*
X52002571Y-118586287D01*
X52288286Y-118657715D01*
X52859714Y-118657715D01*
X53002571Y-118586287D01*
X53074000Y-118514858D01*
X53145429Y-118372001D01*
X53145429Y-118086287D01*
X53074000Y-117943429D01*
X53002571Y-117872001D01*
X52859714Y-117800572D01*
X52502571Y-117800572D01*
X52359714Y-117872001D01*
X52288286Y-117943429D01*
X52216857Y-118086287D01*
X52216857Y-118372001D01*
X52288286Y-118514858D01*
X52359714Y-118586287D01*
X52502571Y-118657715D01*
X53145429Y-119086286D02*
X51645429Y-119586286D01*
X53145429Y-120086286D01*
X52216857Y-121729143D02*
X52216857Y-122872000D01*
X51645429Y-122300571D02*
X52788286Y-122300571D01*
X51073857Y-60893143D02*
X51073857Y-62036000D01*
X50502429Y-61464571D02*
X51645286Y-61464571D01*
X50931000Y-63821714D02*
X50931000Y-64536000D01*
X50502429Y-63678857D02*
X52002429Y-64178857D01*
X50502429Y-64678857D01*
X50502429Y-65178857D02*
X52002429Y-65178857D01*
X50931000Y-65678857D01*
X52002429Y-66178857D01*
X50502429Y-66178857D01*
X50502429Y-66893143D02*
X52002429Y-66893143D01*
X52002429Y-67464571D01*
X51931000Y-67607429D01*
X51859571Y-67678857D01*
X51716714Y-67750286D01*
X51502429Y-67750286D01*
X51359571Y-67678857D01*
X51288143Y-67607429D01*
X51216714Y-67464571D01*
X51216714Y-66893143D01*
X51073857Y-69536000D02*
X51073857Y-70678857D01*
X148773343Y-92839526D02*
X148773343Y-91696669D01*
X147844771Y-89839526D02*
X149059057Y-89839526D01*
X149201914Y-89768098D01*
X149273343Y-89696669D01*
X149344771Y-89553812D01*
X149344771Y-89268098D01*
X149273343Y-89125240D01*
X149201914Y-89053812D01*
X149059057Y-88982383D01*
X147844771Y-88982383D01*
X149344771Y-88268097D02*
X147844771Y-88268097D01*
X149344771Y-87410954D01*
X147844771Y-87410954D01*
X148916200Y-86768097D02*
X148916200Y-86053811D01*
X149344771Y-86910954D02*
X147844771Y-86410954D01*
X149344771Y-85910954D01*
X149344771Y-85410954D02*
X147844771Y-85410954D01*
X148916200Y-84910954D01*
X147844771Y-84410954D01*
X149344771Y-84410954D01*
X149344771Y-83696668D02*
X147844771Y-83696668D01*
X147844771Y-83125240D01*
X147916200Y-82982382D01*
X147987629Y-82910954D01*
X148130486Y-82839525D01*
X148344771Y-82839525D01*
X148487629Y-82910954D01*
X148559057Y-82982382D01*
X148630486Y-83125240D01*
X148630486Y-83696668D01*
X148773343Y-81053811D02*
X148773343Y-79910954D01*
X149344771Y-80482383D02*
X148201914Y-80482383D01*
D13*
X123841000Y-108137000D02*
G75*
G02X125841000Y-108137000I1000000J0D01*
G01*
X125841000Y-108137000D02*
X127491000Y-108137000D01*
X127491000Y-108137000D02*
X127491000Y-97857000D01*
X127491000Y-97857000D02*
X122191000Y-97857000D01*
X122191000Y-97857000D02*
X122191000Y-108137000D01*
X122191000Y-108137000D02*
X123841000Y-108137000D01*
X129981000Y-108197000D02*
X129981000Y-97797000D01*
X129981000Y-97797000D02*
X119701000Y-97797000D01*
X119701000Y-97797000D02*
X119701000Y-108197000D01*
X119701000Y-108197000D02*
X129981000Y-108197000D01*
X82331000Y-68772600D02*
X82331000Y-69102600D01*
X82331000Y-69102600D02*
X75911000Y-69102600D01*
X75911000Y-69102600D02*
X75911000Y-68772600D01*
X82331000Y-66812600D02*
X82331000Y-66482600D01*
X82331000Y-66482600D02*
X75911000Y-66482600D01*
X75911000Y-66482600D02*
X75911000Y-66812600D01*
X87893200Y-83580600D02*
X82773200Y-83580600D01*
X87893200Y-80960600D02*
X82773200Y-80960600D01*
X87893200Y-83580600D02*
X87893200Y-83266600D01*
X87893200Y-81274600D02*
X87893200Y-80960600D01*
X82773200Y-83580600D02*
X82773200Y-83266600D01*
X82773200Y-81274600D02*
X82773200Y-80960600D01*
X63694000Y-93051000D02*
X68814000Y-93051000D01*
X63694000Y-95671000D02*
X68814000Y-95671000D01*
X63694000Y-93051000D02*
X63694000Y-93365000D01*
X63694000Y-95357000D02*
X63694000Y-95671000D01*
X68814000Y-93051000D02*
X68814000Y-93365000D01*
X68814000Y-95357000D02*
X68814000Y-95671000D01*
X87944000Y-86831800D02*
X82824000Y-86831800D01*
X87944000Y-84211800D02*
X82824000Y-84211800D01*
X87944000Y-86831800D02*
X87944000Y-86517800D01*
X87944000Y-84525800D02*
X87944000Y-84211800D01*
X82824000Y-86831800D02*
X82824000Y-86517800D01*
X82824000Y-84525800D02*
X82824000Y-84211800D01*
X125345500Y-96052000D02*
X120225500Y-96052000D01*
X125345500Y-93432000D02*
X120225500Y-93432000D01*
X125345500Y-96052000D02*
X125345500Y-95738000D01*
X125345500Y-93746000D02*
X125345500Y-93432000D01*
X120225500Y-96052000D02*
X120225500Y-95738000D01*
X120225500Y-93746000D02*
X120225500Y-93432000D01*
X69526940Y-110062960D02*
G75*
G03X69526940Y-110062960I-3840000J0D01*
G01*
X61886940Y-110062960D02*
X69486940Y-110062960D01*
X61886940Y-110022960D02*
X69486940Y-110022960D01*
X61886940Y-109982960D02*
X69486940Y-109982960D01*
X61887940Y-109942960D02*
X69485940Y-109942960D01*
X61889940Y-109902960D02*
X69483940Y-109902960D01*
X61891940Y-109862960D02*
X69481940Y-109862960D01*
X61893940Y-109822960D02*
X69479940Y-109822960D01*
X61896940Y-109782960D02*
X64706940Y-109782960D01*
X66666940Y-109782960D02*
X69476940Y-109782960D01*
X61899940Y-109742960D02*
X64706940Y-109742960D01*
X66666940Y-109742960D02*
X69473940Y-109742960D01*
X61902940Y-109702960D02*
X64706940Y-109702960D01*
X66666940Y-109702960D02*
X69470940Y-109702960D01*
X61906940Y-109662960D02*
X64706940Y-109662960D01*
X66666940Y-109662960D02*
X69466940Y-109662960D01*
X61911940Y-109622960D02*
X64706940Y-109622960D01*
X66666940Y-109622960D02*
X69461940Y-109622960D01*
X61916940Y-109582960D02*
X64706940Y-109582960D01*
X66666940Y-109582960D02*
X69456940Y-109582960D01*
X61921940Y-109542960D02*
X64706940Y-109542960D01*
X66666940Y-109542960D02*
X69451940Y-109542960D01*
X61927940Y-109502960D02*
X64706940Y-109502960D01*
X66666940Y-109502960D02*
X69445940Y-109502960D01*
X61933940Y-109462960D02*
X64706940Y-109462960D01*
X66666940Y-109462960D02*
X69439940Y-109462960D01*
X61939940Y-109422960D02*
X64706940Y-109422960D01*
X66666940Y-109422960D02*
X69433940Y-109422960D01*
X61946940Y-109382960D02*
X64706940Y-109382960D01*
X66666940Y-109382960D02*
X69426940Y-109382960D01*
X61954940Y-109341960D02*
X64706940Y-109341960D01*
X66666940Y-109341960D02*
X69418940Y-109341960D01*
X61961940Y-109301960D02*
X64706940Y-109301960D01*
X66666940Y-109301960D02*
X69411940Y-109301960D01*
X61970940Y-109261960D02*
X64706940Y-109261960D01*
X66666940Y-109261960D02*
X69402940Y-109261960D01*
X61979940Y-109221960D02*
X64706940Y-109221960D01*
X66666940Y-109221960D02*
X69393940Y-109221960D01*
X61988940Y-109181960D02*
X64706940Y-109181960D01*
X66666940Y-109181960D02*
X69384940Y-109181960D01*
X61997940Y-109141960D02*
X64706940Y-109141960D01*
X66666940Y-109141960D02*
X69375940Y-109141960D01*
X62007940Y-109101960D02*
X64706940Y-109101960D01*
X66666940Y-109101960D02*
X69365940Y-109101960D01*
X62018940Y-109061960D02*
X64706940Y-109061960D01*
X66666940Y-109061960D02*
X69354940Y-109061960D01*
X62029940Y-109021960D02*
X64706940Y-109021960D01*
X66666940Y-109021960D02*
X69343940Y-109021960D01*
X62041940Y-108981960D02*
X64706940Y-108981960D01*
X66666940Y-108981960D02*
X69331940Y-108981960D01*
X62052940Y-108941960D02*
X64706940Y-108941960D01*
X66666940Y-108941960D02*
X69320940Y-108941960D01*
X62065940Y-108901960D02*
X64706940Y-108901960D01*
X66666940Y-108901960D02*
X69307940Y-108901960D01*
X62078940Y-108861960D02*
X64706940Y-108861960D01*
X66666940Y-108861960D02*
X69294940Y-108861960D01*
X62091940Y-108821960D02*
X64706940Y-108821960D01*
X66666940Y-108821960D02*
X69281940Y-108821960D01*
X62105940Y-108781960D02*
X64706940Y-108781960D01*
X66666940Y-108781960D02*
X69267940Y-108781960D01*
X62120940Y-108741960D02*
X64706940Y-108741960D01*
X66666940Y-108741960D02*
X69252940Y-108741960D01*
X62134940Y-108701960D02*
X64706940Y-108701960D01*
X66666940Y-108701960D02*
X69238940Y-108701960D01*
X62150940Y-108661960D02*
X64706940Y-108661960D01*
X66666940Y-108661960D02*
X69222940Y-108661960D01*
X62166940Y-108621960D02*
X64706940Y-108621960D01*
X66666940Y-108621960D02*
X69206940Y-108621960D01*
X62182940Y-108581960D02*
X64706940Y-108581960D01*
X66666940Y-108581960D02*
X69190940Y-108581960D01*
X62199940Y-108541960D02*
X64706940Y-108541960D01*
X66666940Y-108541960D02*
X69173940Y-108541960D01*
X62217940Y-108501960D02*
X64706940Y-108501960D01*
X66666940Y-108501960D02*
X69155940Y-108501960D01*
X62235940Y-108461960D02*
X64706940Y-108461960D01*
X66666940Y-108461960D02*
X69137940Y-108461960D01*
X62253940Y-108421960D02*
X64706940Y-108421960D01*
X66666940Y-108421960D02*
X69119940Y-108421960D01*
X62273940Y-108381960D02*
X64706940Y-108381960D01*
X66666940Y-108381960D02*
X69099940Y-108381960D01*
X62292940Y-108341960D02*
X64706940Y-108341960D01*
X66666940Y-108341960D02*
X69080940Y-108341960D01*
X62313940Y-108301960D02*
X64706940Y-108301960D01*
X66666940Y-108301960D02*
X69059940Y-108301960D01*
X62334940Y-108261960D02*
X64706940Y-108261960D01*
X66666940Y-108261960D02*
X69038940Y-108261960D01*
X62355940Y-108221960D02*
X64706940Y-108221960D01*
X66666940Y-108221960D02*
X69017940Y-108221960D01*
X62377940Y-108181960D02*
X64706940Y-108181960D01*
X66666940Y-108181960D02*
X68995940Y-108181960D01*
X62400940Y-108141960D02*
X64706940Y-108141960D01*
X66666940Y-108141960D02*
X68972940Y-108141960D01*
X62423940Y-108101960D02*
X64706940Y-108101960D01*
X66666940Y-108101960D02*
X68949940Y-108101960D01*
X62447940Y-108061960D02*
X64706940Y-108061960D01*
X66666940Y-108061960D02*
X68925940Y-108061960D01*
X62472940Y-108021960D02*
X64706940Y-108021960D01*
X66666940Y-108021960D02*
X68900940Y-108021960D01*
X62498940Y-107981960D02*
X64706940Y-107981960D01*
X66666940Y-107981960D02*
X68874940Y-107981960D01*
X62524940Y-107941960D02*
X64706940Y-107941960D01*
X66666940Y-107941960D02*
X68848940Y-107941960D01*
X62551940Y-107901960D02*
X64706940Y-107901960D01*
X66666940Y-107901960D02*
X68821940Y-107901960D01*
X62578940Y-107861960D02*
X64706940Y-107861960D01*
X66666940Y-107861960D02*
X68794940Y-107861960D01*
X62607940Y-107821960D02*
X68765940Y-107821960D01*
X62636940Y-107781960D02*
X68736940Y-107781960D01*
X62666940Y-107741960D02*
X68706940Y-107741960D01*
X62696940Y-107701960D02*
X68676940Y-107701960D01*
X62728940Y-107661960D02*
X68644940Y-107661960D01*
X62760940Y-107621960D02*
X68612940Y-107621960D01*
X62794940Y-107581960D02*
X68578940Y-107581960D01*
X62828940Y-107541960D02*
X68544940Y-107541960D01*
X62863940Y-107501960D02*
X68509940Y-107501960D01*
X62900940Y-107461960D02*
X68472940Y-107461960D01*
X62937940Y-107421960D02*
X68435940Y-107421960D01*
X62975940Y-107381960D02*
X68397940Y-107381960D01*
X63015940Y-107341960D02*
X68357940Y-107341960D01*
X63056940Y-107301960D02*
X68316940Y-107301960D01*
X63098940Y-107261960D02*
X68274940Y-107261960D01*
X63141940Y-107221960D02*
X68231940Y-107221960D01*
X63186940Y-107181960D02*
X68186940Y-107181960D01*
X63232940Y-107141960D02*
X68140940Y-107141960D01*
X63279940Y-107101960D02*
X68093940Y-107101960D01*
X63329940Y-107061960D02*
X68043940Y-107061960D01*
X63379940Y-107021960D02*
X67993940Y-107021960D01*
X63432940Y-106981960D02*
X67940940Y-106981960D01*
X63487940Y-106941960D02*
X67885940Y-106941960D01*
X63544940Y-106901960D02*
X67828940Y-106901960D01*
X63603940Y-106861960D02*
X67769940Y-106861960D01*
X63664940Y-106821960D02*
X67708940Y-106821960D01*
X63729940Y-106781960D02*
X67643940Y-106781960D01*
X63796940Y-106741960D02*
X67576940Y-106741960D01*
X63866940Y-106701960D02*
X67506940Y-106701960D01*
X63941940Y-106661960D02*
X67431940Y-106661960D01*
X64019940Y-106621960D02*
X67353940Y-106621960D01*
X64102940Y-106581960D02*
X67270940Y-106581960D01*
X64191940Y-106541960D02*
X67181940Y-106541960D01*
X64286940Y-106501960D02*
X67086940Y-106501960D01*
X64389940Y-106461960D02*
X66983940Y-106461960D01*
X64502940Y-106421960D02*
X66870940Y-106421960D01*
X64629940Y-106381960D02*
X66743940Y-106381960D01*
X64773940Y-106341960D02*
X66599940Y-106341960D01*
X64946940Y-106301960D02*
X66426940Y-106301960D01*
X65173940Y-106261960D02*
X66199940Y-106261960D01*
X65686940Y-113512960D02*
X65686940Y-112312960D01*
X65036940Y-112912960D02*
X66336940Y-112912960D01*
X80548000Y-91801000D02*
G75*
G03X80548000Y-91801000I-3840000J0D01*
G01*
X80508000Y-91801000D02*
X72908000Y-91801000D01*
X80508000Y-91841000D02*
X72908000Y-91841000D01*
X80508000Y-91881000D02*
X72908000Y-91881000D01*
X80507000Y-91921000D02*
X72909000Y-91921000D01*
X80505000Y-91961000D02*
X72911000Y-91961000D01*
X80503000Y-92001000D02*
X72913000Y-92001000D01*
X80501000Y-92041000D02*
X72915000Y-92041000D01*
X80498000Y-92081000D02*
X77688000Y-92081000D01*
X75728000Y-92081000D02*
X72918000Y-92081000D01*
X80495000Y-92121000D02*
X77688000Y-92121000D01*
X75728000Y-92121000D02*
X72921000Y-92121000D01*
X80492000Y-92161000D02*
X77688000Y-92161000D01*
X75728000Y-92161000D02*
X72924000Y-92161000D01*
X80488000Y-92201000D02*
X77688000Y-92201000D01*
X75728000Y-92201000D02*
X72928000Y-92201000D01*
X80483000Y-92241000D02*
X77688000Y-92241000D01*
X75728000Y-92241000D02*
X72933000Y-92241000D01*
X80478000Y-92281000D02*
X77688000Y-92281000D01*
X75728000Y-92281000D02*
X72938000Y-92281000D01*
X80473000Y-92321000D02*
X77688000Y-92321000D01*
X75728000Y-92321000D02*
X72943000Y-92321000D01*
X80467000Y-92361000D02*
X77688000Y-92361000D01*
X75728000Y-92361000D02*
X72949000Y-92361000D01*
X80461000Y-92401000D02*
X77688000Y-92401000D01*
X75728000Y-92401000D02*
X72955000Y-92401000D01*
X80455000Y-92441000D02*
X77688000Y-92441000D01*
X75728000Y-92441000D02*
X72961000Y-92441000D01*
X80448000Y-92481000D02*
X77688000Y-92481000D01*
X75728000Y-92481000D02*
X72968000Y-92481000D01*
X80440000Y-92522000D02*
X77688000Y-92522000D01*
X75728000Y-92522000D02*
X72976000Y-92522000D01*
X80433000Y-92562000D02*
X77688000Y-92562000D01*
X75728000Y-92562000D02*
X72983000Y-92562000D01*
X80424000Y-92602000D02*
X77688000Y-92602000D01*
X75728000Y-92602000D02*
X72992000Y-92602000D01*
X80415000Y-92642000D02*
X77688000Y-92642000D01*
X75728000Y-92642000D02*
X73001000Y-92642000D01*
X80406000Y-92682000D02*
X77688000Y-92682000D01*
X75728000Y-92682000D02*
X73010000Y-92682000D01*
X80397000Y-92722000D02*
X77688000Y-92722000D01*
X75728000Y-92722000D02*
X73019000Y-92722000D01*
X80387000Y-92762000D02*
X77688000Y-92762000D01*
X75728000Y-92762000D02*
X73029000Y-92762000D01*
X80376000Y-92802000D02*
X77688000Y-92802000D01*
X75728000Y-92802000D02*
X73040000Y-92802000D01*
X80365000Y-92842000D02*
X77688000Y-92842000D01*
X75728000Y-92842000D02*
X73051000Y-92842000D01*
X80353000Y-92882000D02*
X77688000Y-92882000D01*
X75728000Y-92882000D02*
X73063000Y-92882000D01*
X80342000Y-92922000D02*
X77688000Y-92922000D01*
X75728000Y-92922000D02*
X73074000Y-92922000D01*
X80329000Y-92962000D02*
X77688000Y-92962000D01*
X75728000Y-92962000D02*
X73087000Y-92962000D01*
X80316000Y-93002000D02*
X77688000Y-93002000D01*
X75728000Y-93002000D02*
X73100000Y-93002000D01*
X80303000Y-93042000D02*
X77688000Y-93042000D01*
X75728000Y-93042000D02*
X73113000Y-93042000D01*
X80289000Y-93082000D02*
X77688000Y-93082000D01*
X75728000Y-93082000D02*
X73127000Y-93082000D01*
X80274000Y-93122000D02*
X77688000Y-93122000D01*
X75728000Y-93122000D02*
X73142000Y-93122000D01*
X80260000Y-93162000D02*
X77688000Y-93162000D01*
X75728000Y-93162000D02*
X73156000Y-93162000D01*
X80244000Y-93202000D02*
X77688000Y-93202000D01*
X75728000Y-93202000D02*
X73172000Y-93202000D01*
X80228000Y-93242000D02*
X77688000Y-93242000D01*
X75728000Y-93242000D02*
X73188000Y-93242000D01*
X80212000Y-93282000D02*
X77688000Y-93282000D01*
X75728000Y-93282000D02*
X73204000Y-93282000D01*
X80195000Y-93322000D02*
X77688000Y-93322000D01*
X75728000Y-93322000D02*
X73221000Y-93322000D01*
X80177000Y-93362000D02*
X77688000Y-93362000D01*
X75728000Y-93362000D02*
X73239000Y-93362000D01*
X80159000Y-93402000D02*
X77688000Y-93402000D01*
X75728000Y-93402000D02*
X73257000Y-93402000D01*
X80141000Y-93442000D02*
X77688000Y-93442000D01*
X75728000Y-93442000D02*
X73275000Y-93442000D01*
X80121000Y-93482000D02*
X77688000Y-93482000D01*
X75728000Y-93482000D02*
X73295000Y-93482000D01*
X80102000Y-93522000D02*
X77688000Y-93522000D01*
X75728000Y-93522000D02*
X73314000Y-93522000D01*
X80081000Y-93562000D02*
X77688000Y-93562000D01*
X75728000Y-93562000D02*
X73335000Y-93562000D01*
X80060000Y-93602000D02*
X77688000Y-93602000D01*
X75728000Y-93602000D02*
X73356000Y-93602000D01*
X80039000Y-93642000D02*
X77688000Y-93642000D01*
X75728000Y-93642000D02*
X73377000Y-93642000D01*
X80017000Y-93682000D02*
X77688000Y-93682000D01*
X75728000Y-93682000D02*
X73399000Y-93682000D01*
X79994000Y-93722000D02*
X77688000Y-93722000D01*
X75728000Y-93722000D02*
X73422000Y-93722000D01*
X79971000Y-93762000D02*
X77688000Y-93762000D01*
X75728000Y-93762000D02*
X73445000Y-93762000D01*
X79947000Y-93802000D02*
X77688000Y-93802000D01*
X75728000Y-93802000D02*
X73469000Y-93802000D01*
X79922000Y-93842000D02*
X77688000Y-93842000D01*
X75728000Y-93842000D02*
X73494000Y-93842000D01*
X79896000Y-93882000D02*
X77688000Y-93882000D01*
X75728000Y-93882000D02*
X73520000Y-93882000D01*
X79870000Y-93922000D02*
X77688000Y-93922000D01*
X75728000Y-93922000D02*
X73546000Y-93922000D01*
X79843000Y-93962000D02*
X77688000Y-93962000D01*
X75728000Y-93962000D02*
X73573000Y-93962000D01*
X79816000Y-94002000D02*
X77688000Y-94002000D01*
X75728000Y-94002000D02*
X73600000Y-94002000D01*
X79787000Y-94042000D02*
X73629000Y-94042000D01*
X79758000Y-94082000D02*
X73658000Y-94082000D01*
X79728000Y-94122000D02*
X73688000Y-94122000D01*
X79698000Y-94162000D02*
X73718000Y-94162000D01*
X79666000Y-94202000D02*
X73750000Y-94202000D01*
X79634000Y-94242000D02*
X73782000Y-94242000D01*
X79600000Y-94282000D02*
X73816000Y-94282000D01*
X79566000Y-94322000D02*
X73850000Y-94322000D01*
X79531000Y-94362000D02*
X73885000Y-94362000D01*
X79494000Y-94402000D02*
X73922000Y-94402000D01*
X79457000Y-94442000D02*
X73959000Y-94442000D01*
X79419000Y-94482000D02*
X73997000Y-94482000D01*
X79379000Y-94522000D02*
X74037000Y-94522000D01*
X79338000Y-94562000D02*
X74078000Y-94562000D01*
X79296000Y-94602000D02*
X74120000Y-94602000D01*
X79253000Y-94642000D02*
X74163000Y-94642000D01*
X79208000Y-94682000D02*
X74208000Y-94682000D01*
X79162000Y-94722000D02*
X74254000Y-94722000D01*
X79115000Y-94762000D02*
X74301000Y-94762000D01*
X79065000Y-94802000D02*
X74351000Y-94802000D01*
X79015000Y-94842000D02*
X74401000Y-94842000D01*
X78962000Y-94882000D02*
X74454000Y-94882000D01*
X78907000Y-94922000D02*
X74509000Y-94922000D01*
X78850000Y-94962000D02*
X74566000Y-94962000D01*
X78791000Y-95002000D02*
X74625000Y-95002000D01*
X78730000Y-95042000D02*
X74686000Y-95042000D01*
X78665000Y-95082000D02*
X74751000Y-95082000D01*
X78598000Y-95122000D02*
X74818000Y-95122000D01*
X78528000Y-95162000D02*
X74888000Y-95162000D01*
X78453000Y-95202000D02*
X74963000Y-95202000D01*
X78375000Y-95242000D02*
X75041000Y-95242000D01*
X78292000Y-95282000D02*
X75124000Y-95282000D01*
X78203000Y-95322000D02*
X75213000Y-95322000D01*
X78108000Y-95362000D02*
X75308000Y-95362000D01*
X78005000Y-95402000D02*
X75411000Y-95402000D01*
X77892000Y-95442000D02*
X75524000Y-95442000D01*
X77765000Y-95482000D02*
X75651000Y-95482000D01*
X77621000Y-95522000D02*
X75795000Y-95522000D01*
X77448000Y-95562000D02*
X75968000Y-95562000D01*
X77221000Y-95602000D02*
X76195000Y-95602000D01*
X76708000Y-88351000D02*
X76708000Y-89551000D01*
X77358000Y-88951000D02*
X76058000Y-88951000D01*
X87791600Y-90235400D02*
X82671600Y-90235400D01*
X87791600Y-87615400D02*
X82671600Y-87615400D01*
X87791600Y-90235400D02*
X87791600Y-89921400D01*
X87791600Y-87929400D02*
X87791600Y-87615400D01*
X82671600Y-90235400D02*
X82671600Y-89921400D01*
X82671600Y-87929400D02*
X82671600Y-87615400D01*
X148269000Y-64975100D02*
X143149000Y-64975100D01*
X148269000Y-62355100D02*
X143149000Y-62355100D01*
X148269000Y-64975100D02*
X148269000Y-64661100D01*
X148269000Y-62669100D02*
X148269000Y-62355100D01*
X143149000Y-64975100D02*
X143149000Y-64661100D01*
X143149000Y-62669100D02*
X143149000Y-62355100D01*
X82152800Y-62117600D02*
X77032800Y-62117600D01*
X82152800Y-59497600D02*
X77032800Y-59497600D01*
X82152800Y-62117600D02*
X82152800Y-61803600D01*
X82152800Y-59811600D02*
X82152800Y-59497600D01*
X77032800Y-62117600D02*
X77032800Y-61803600D01*
X77032800Y-59811600D02*
X77032800Y-59497600D01*
X69626000Y-100437000D02*
G75*
G03X69626000Y-100437000I-3840000J0D01*
G01*
X69586000Y-100437000D02*
X61986000Y-100437000D01*
X69586000Y-100477000D02*
X61986000Y-100477000D01*
X69586000Y-100517000D02*
X61986000Y-100517000D01*
X69585000Y-100557000D02*
X61987000Y-100557000D01*
X69583000Y-100597000D02*
X61989000Y-100597000D01*
X69581000Y-100637000D02*
X61991000Y-100637000D01*
X69579000Y-100677000D02*
X61993000Y-100677000D01*
X69576000Y-100717000D02*
X66766000Y-100717000D01*
X64806000Y-100717000D02*
X61996000Y-100717000D01*
X69573000Y-100757000D02*
X66766000Y-100757000D01*
X64806000Y-100757000D02*
X61999000Y-100757000D01*
X69570000Y-100797000D02*
X66766000Y-100797000D01*
X64806000Y-100797000D02*
X62002000Y-100797000D01*
X69566000Y-100837000D02*
X66766000Y-100837000D01*
X64806000Y-100837000D02*
X62006000Y-100837000D01*
X69561000Y-100877000D02*
X66766000Y-100877000D01*
X64806000Y-100877000D02*
X62011000Y-100877000D01*
X69556000Y-100917000D02*
X66766000Y-100917000D01*
X64806000Y-100917000D02*
X62016000Y-100917000D01*
X69551000Y-100957000D02*
X66766000Y-100957000D01*
X64806000Y-100957000D02*
X62021000Y-100957000D01*
X69545000Y-100997000D02*
X66766000Y-100997000D01*
X64806000Y-100997000D02*
X62027000Y-100997000D01*
X69539000Y-101037000D02*
X66766000Y-101037000D01*
X64806000Y-101037000D02*
X62033000Y-101037000D01*
X69533000Y-101077000D02*
X66766000Y-101077000D01*
X64806000Y-101077000D02*
X62039000Y-101077000D01*
X69526000Y-101117000D02*
X66766000Y-101117000D01*
X64806000Y-101117000D02*
X62046000Y-101117000D01*
X69518000Y-101158000D02*
X66766000Y-101158000D01*
X64806000Y-101158000D02*
X62054000Y-101158000D01*
X69511000Y-101198000D02*
X66766000Y-101198000D01*
X64806000Y-101198000D02*
X62061000Y-101198000D01*
X69502000Y-101238000D02*
X66766000Y-101238000D01*
X64806000Y-101238000D02*
X62070000Y-101238000D01*
X69493000Y-101278000D02*
X66766000Y-101278000D01*
X64806000Y-101278000D02*
X62079000Y-101278000D01*
X69484000Y-101318000D02*
X66766000Y-101318000D01*
X64806000Y-101318000D02*
X62088000Y-101318000D01*
X69475000Y-101358000D02*
X66766000Y-101358000D01*
X64806000Y-101358000D02*
X62097000Y-101358000D01*
X69465000Y-101398000D02*
X66766000Y-101398000D01*
X64806000Y-101398000D02*
X62107000Y-101398000D01*
X69454000Y-101438000D02*
X66766000Y-101438000D01*
X64806000Y-101438000D02*
X62118000Y-101438000D01*
X69443000Y-101478000D02*
X66766000Y-101478000D01*
X64806000Y-101478000D02*
X62129000Y-101478000D01*
X69431000Y-101518000D02*
X66766000Y-101518000D01*
X64806000Y-101518000D02*
X62141000Y-101518000D01*
X69420000Y-101558000D02*
X66766000Y-101558000D01*
X64806000Y-101558000D02*
X62152000Y-101558000D01*
X69407000Y-101598000D02*
X66766000Y-101598000D01*
X64806000Y-101598000D02*
X62165000Y-101598000D01*
X69394000Y-101638000D02*
X66766000Y-101638000D01*
X64806000Y-101638000D02*
X62178000Y-101638000D01*
X69381000Y-101678000D02*
X66766000Y-101678000D01*
X64806000Y-101678000D02*
X62191000Y-101678000D01*
X69367000Y-101718000D02*
X66766000Y-101718000D01*
X64806000Y-101718000D02*
X62205000Y-101718000D01*
X69352000Y-101758000D02*
X66766000Y-101758000D01*
X64806000Y-101758000D02*
X62220000Y-101758000D01*
X69338000Y-101798000D02*
X66766000Y-101798000D01*
X64806000Y-101798000D02*
X62234000Y-101798000D01*
X69322000Y-101838000D02*
X66766000Y-101838000D01*
X64806000Y-101838000D02*
X62250000Y-101838000D01*
X69306000Y-101878000D02*
X66766000Y-101878000D01*
X64806000Y-101878000D02*
X62266000Y-101878000D01*
X69290000Y-101918000D02*
X66766000Y-101918000D01*
X64806000Y-101918000D02*
X62282000Y-101918000D01*
X69273000Y-101958000D02*
X66766000Y-101958000D01*
X64806000Y-101958000D02*
X62299000Y-101958000D01*
X69255000Y-101998000D02*
X66766000Y-101998000D01*
X64806000Y-101998000D02*
X62317000Y-101998000D01*
X69237000Y-102038000D02*
X66766000Y-102038000D01*
X64806000Y-102038000D02*
X62335000Y-102038000D01*
X69219000Y-102078000D02*
X66766000Y-102078000D01*
X64806000Y-102078000D02*
X62353000Y-102078000D01*
X69199000Y-102118000D02*
X66766000Y-102118000D01*
X64806000Y-102118000D02*
X62373000Y-102118000D01*
X69180000Y-102158000D02*
X66766000Y-102158000D01*
X64806000Y-102158000D02*
X62392000Y-102158000D01*
X69159000Y-102198000D02*
X66766000Y-102198000D01*
X64806000Y-102198000D02*
X62413000Y-102198000D01*
X69138000Y-102238000D02*
X66766000Y-102238000D01*
X64806000Y-102238000D02*
X62434000Y-102238000D01*
X69117000Y-102278000D02*
X66766000Y-102278000D01*
X64806000Y-102278000D02*
X62455000Y-102278000D01*
X69095000Y-102318000D02*
X66766000Y-102318000D01*
X64806000Y-102318000D02*
X62477000Y-102318000D01*
X69072000Y-102358000D02*
X66766000Y-102358000D01*
X64806000Y-102358000D02*
X62500000Y-102358000D01*
X69049000Y-102398000D02*
X66766000Y-102398000D01*
X64806000Y-102398000D02*
X62523000Y-102398000D01*
X69025000Y-102438000D02*
X66766000Y-102438000D01*
X64806000Y-102438000D02*
X62547000Y-102438000D01*
X69000000Y-102478000D02*
X66766000Y-102478000D01*
X64806000Y-102478000D02*
X62572000Y-102478000D01*
X68974000Y-102518000D02*
X66766000Y-102518000D01*
X64806000Y-102518000D02*
X62598000Y-102518000D01*
X68948000Y-102558000D02*
X66766000Y-102558000D01*
X64806000Y-102558000D02*
X62624000Y-102558000D01*
X68921000Y-102598000D02*
X66766000Y-102598000D01*
X64806000Y-102598000D02*
X62651000Y-102598000D01*
X68894000Y-102638000D02*
X66766000Y-102638000D01*
X64806000Y-102638000D02*
X62678000Y-102638000D01*
X68865000Y-102678000D02*
X62707000Y-102678000D01*
X68836000Y-102718000D02*
X62736000Y-102718000D01*
X68806000Y-102758000D02*
X62766000Y-102758000D01*
X68776000Y-102798000D02*
X62796000Y-102798000D01*
X68744000Y-102838000D02*
X62828000Y-102838000D01*
X68712000Y-102878000D02*
X62860000Y-102878000D01*
X68678000Y-102918000D02*
X62894000Y-102918000D01*
X68644000Y-102958000D02*
X62928000Y-102958000D01*
X68609000Y-102998000D02*
X62963000Y-102998000D01*
X68572000Y-103038000D02*
X63000000Y-103038000D01*
X68535000Y-103078000D02*
X63037000Y-103078000D01*
X68497000Y-103118000D02*
X63075000Y-103118000D01*
X68457000Y-103158000D02*
X63115000Y-103158000D01*
X68416000Y-103198000D02*
X63156000Y-103198000D01*
X68374000Y-103238000D02*
X63198000Y-103238000D01*
X68331000Y-103278000D02*
X63241000Y-103278000D01*
X68286000Y-103318000D02*
X63286000Y-103318000D01*
X68240000Y-103358000D02*
X63332000Y-103358000D01*
X68193000Y-103398000D02*
X63379000Y-103398000D01*
X68143000Y-103438000D02*
X63429000Y-103438000D01*
X68093000Y-103478000D02*
X63479000Y-103478000D01*
X68040000Y-103518000D02*
X63532000Y-103518000D01*
X67985000Y-103558000D02*
X63587000Y-103558000D01*
X67928000Y-103598000D02*
X63644000Y-103598000D01*
X67869000Y-103638000D02*
X63703000Y-103638000D01*
X67808000Y-103678000D02*
X63764000Y-103678000D01*
X67743000Y-103718000D02*
X63829000Y-103718000D01*
X67676000Y-103758000D02*
X63896000Y-103758000D01*
X67606000Y-103798000D02*
X63966000Y-103798000D01*
X67531000Y-103838000D02*
X64041000Y-103838000D01*
X67453000Y-103878000D02*
X64119000Y-103878000D01*
X67370000Y-103918000D02*
X64202000Y-103918000D01*
X67281000Y-103958000D02*
X64291000Y-103958000D01*
X67186000Y-103998000D02*
X64386000Y-103998000D01*
X67083000Y-104038000D02*
X64489000Y-104038000D01*
X66970000Y-104078000D02*
X64602000Y-104078000D01*
X66843000Y-104118000D02*
X64729000Y-104118000D01*
X66699000Y-104158000D02*
X64873000Y-104158000D01*
X66526000Y-104198000D02*
X65046000Y-104198000D01*
X66299000Y-104238000D02*
X65273000Y-104238000D01*
X65786000Y-96987000D02*
X65786000Y-98187000D01*
X66436000Y-97587000D02*
X65136000Y-97587000D01*
X87791600Y-93385000D02*
X82671600Y-93385000D01*
X87791600Y-90765000D02*
X82671600Y-90765000D01*
X87791600Y-93385000D02*
X87791600Y-93071000D01*
X87791600Y-91079000D02*
X87791600Y-90765000D01*
X82671600Y-93385000D02*
X82671600Y-93071000D01*
X82671600Y-91079000D02*
X82671600Y-90765000D01*
X65732500Y-75374500D02*
G75*
G03X65732500Y-75374500I-3840000J0D01*
G01*
X61892500Y-71574500D02*
X61892500Y-79174500D01*
X61932500Y-71574500D02*
X61932500Y-79174500D01*
X61972500Y-71574500D02*
X61972500Y-79174500D01*
X62012500Y-71575500D02*
X62012500Y-79173500D01*
X62052500Y-71577500D02*
X62052500Y-79171500D01*
X62092500Y-71579500D02*
X62092500Y-79169500D01*
X62132500Y-71581500D02*
X62132500Y-79167500D01*
X62172500Y-71584500D02*
X62172500Y-74394500D01*
X62172500Y-76354500D02*
X62172500Y-79164500D01*
X62212500Y-71587500D02*
X62212500Y-74394500D01*
X62212500Y-76354500D02*
X62212500Y-79161500D01*
X62252500Y-71590500D02*
X62252500Y-74394500D01*
X62252500Y-76354500D02*
X62252500Y-79158500D01*
X62292500Y-71594500D02*
X62292500Y-74394500D01*
X62292500Y-76354500D02*
X62292500Y-79154500D01*
X62332500Y-71599500D02*
X62332500Y-74394500D01*
X62332500Y-76354500D02*
X62332500Y-79149500D01*
X62372500Y-71604500D02*
X62372500Y-74394500D01*
X62372500Y-76354500D02*
X62372500Y-79144500D01*
X62412500Y-71609500D02*
X62412500Y-74394500D01*
X62412500Y-76354500D02*
X62412500Y-79139500D01*
X62452500Y-71615500D02*
X62452500Y-74394500D01*
X62452500Y-76354500D02*
X62452500Y-79133500D01*
X62492500Y-71621500D02*
X62492500Y-74394500D01*
X62492500Y-76354500D02*
X62492500Y-79127500D01*
X62532500Y-71627500D02*
X62532500Y-74394500D01*
X62532500Y-76354500D02*
X62532500Y-79121500D01*
X62572500Y-71634500D02*
X62572500Y-74394500D01*
X62572500Y-76354500D02*
X62572500Y-79114500D01*
X62613500Y-71642500D02*
X62613500Y-74394500D01*
X62613500Y-76354500D02*
X62613500Y-79106500D01*
X62653500Y-71649500D02*
X62653500Y-74394500D01*
X62653500Y-76354500D02*
X62653500Y-79099500D01*
X62693500Y-71658500D02*
X62693500Y-74394500D01*
X62693500Y-76354500D02*
X62693500Y-79090500D01*
X62733500Y-71667500D02*
X62733500Y-74394500D01*
X62733500Y-76354500D02*
X62733500Y-79081500D01*
X62773500Y-71676500D02*
X62773500Y-74394500D01*
X62773500Y-76354500D02*
X62773500Y-79072500D01*
X62813500Y-71685500D02*
X62813500Y-74394500D01*
X62813500Y-76354500D02*
X62813500Y-79063500D01*
X62853500Y-71695500D02*
X62853500Y-74394500D01*
X62853500Y-76354500D02*
X62853500Y-79053500D01*
X62893500Y-71706500D02*
X62893500Y-74394500D01*
X62893500Y-76354500D02*
X62893500Y-79042500D01*
X62933500Y-71717500D02*
X62933500Y-74394500D01*
X62933500Y-76354500D02*
X62933500Y-79031500D01*
X62973500Y-71729500D02*
X62973500Y-74394500D01*
X62973500Y-76354500D02*
X62973500Y-79019500D01*
X63013500Y-71740500D02*
X63013500Y-74394500D01*
X63013500Y-76354500D02*
X63013500Y-79008500D01*
X63053500Y-71753500D02*
X63053500Y-74394500D01*
X63053500Y-76354500D02*
X63053500Y-78995500D01*
X63093500Y-71766500D02*
X63093500Y-74394500D01*
X63093500Y-76354500D02*
X63093500Y-78982500D01*
X63133500Y-71779500D02*
X63133500Y-74394500D01*
X63133500Y-76354500D02*
X63133500Y-78969500D01*
X63173500Y-71793500D02*
X63173500Y-74394500D01*
X63173500Y-76354500D02*
X63173500Y-78955500D01*
X63213500Y-71808500D02*
X63213500Y-74394500D01*
X63213500Y-76354500D02*
X63213500Y-78940500D01*
X63253500Y-71822500D02*
X63253500Y-74394500D01*
X63253500Y-76354500D02*
X63253500Y-78926500D01*
X63293500Y-71838500D02*
X63293500Y-74394500D01*
X63293500Y-76354500D02*
X63293500Y-78910500D01*
X63333500Y-71854500D02*
X63333500Y-74394500D01*
X63333500Y-76354500D02*
X63333500Y-78894500D01*
X63373500Y-71870500D02*
X63373500Y-74394500D01*
X63373500Y-76354500D02*
X63373500Y-78878500D01*
X63413500Y-71887500D02*
X63413500Y-74394500D01*
X63413500Y-76354500D02*
X63413500Y-78861500D01*
X63453500Y-71905500D02*
X63453500Y-74394500D01*
X63453500Y-76354500D02*
X63453500Y-78843500D01*
X63493500Y-71923500D02*
X63493500Y-74394500D01*
X63493500Y-76354500D02*
X63493500Y-78825500D01*
X63533500Y-71941500D02*
X63533500Y-74394500D01*
X63533500Y-76354500D02*
X63533500Y-78807500D01*
X63573500Y-71961500D02*
X63573500Y-74394500D01*
X63573500Y-76354500D02*
X63573500Y-78787500D01*
X63613500Y-71980500D02*
X63613500Y-74394500D01*
X63613500Y-76354500D02*
X63613500Y-78768500D01*
X63653500Y-72001500D02*
X63653500Y-74394500D01*
X63653500Y-76354500D02*
X63653500Y-78747500D01*
X63693500Y-72022500D02*
X63693500Y-74394500D01*
X63693500Y-76354500D02*
X63693500Y-78726500D01*
X63733500Y-72043500D02*
X63733500Y-74394500D01*
X63733500Y-76354500D02*
X63733500Y-78705500D01*
X63773500Y-72065500D02*
X63773500Y-74394500D01*
X63773500Y-76354500D02*
X63773500Y-78683500D01*
X63813500Y-72088500D02*
X63813500Y-74394500D01*
X63813500Y-76354500D02*
X63813500Y-78660500D01*
X63853500Y-72111500D02*
X63853500Y-74394500D01*
X63853500Y-76354500D02*
X63853500Y-78637500D01*
X63893500Y-72135500D02*
X63893500Y-74394500D01*
X63893500Y-76354500D02*
X63893500Y-78613500D01*
X63933500Y-72160500D02*
X63933500Y-74394500D01*
X63933500Y-76354500D02*
X63933500Y-78588500D01*
X63973500Y-72186500D02*
X63973500Y-74394500D01*
X63973500Y-76354500D02*
X63973500Y-78562500D01*
X64013500Y-72212500D02*
X64013500Y-74394500D01*
X64013500Y-76354500D02*
X64013500Y-78536500D01*
X64053500Y-72239500D02*
X64053500Y-74394500D01*
X64053500Y-76354500D02*
X64053500Y-78509500D01*
X64093500Y-72266500D02*
X64093500Y-74394500D01*
X64093500Y-76354500D02*
X64093500Y-78482500D01*
X64133500Y-72295500D02*
X64133500Y-78453500D01*
X64173500Y-72324500D02*
X64173500Y-78424500D01*
X64213500Y-72354500D02*
X64213500Y-78394500D01*
X64253500Y-72384500D02*
X64253500Y-78364500D01*
X64293500Y-72416500D02*
X64293500Y-78332500D01*
X64333500Y-72448500D02*
X64333500Y-78300500D01*
X64373500Y-72482500D02*
X64373500Y-78266500D01*
X64413500Y-72516500D02*
X64413500Y-78232500D01*
X64453500Y-72551500D02*
X64453500Y-78197500D01*
X64493500Y-72588500D02*
X64493500Y-78160500D01*
X64533500Y-72625500D02*
X64533500Y-78123500D01*
X64573500Y-72663500D02*
X64573500Y-78085500D01*
X64613500Y-72703500D02*
X64613500Y-78045500D01*
X64653500Y-72744500D02*
X64653500Y-78004500D01*
X64693500Y-72786500D02*
X64693500Y-77962500D01*
X64733500Y-72829500D02*
X64733500Y-77919500D01*
X64773500Y-72874500D02*
X64773500Y-77874500D01*
X64813500Y-72920500D02*
X64813500Y-77828500D01*
X64853500Y-72967500D02*
X64853500Y-77781500D01*
X64893500Y-73017500D02*
X64893500Y-77731500D01*
X64933500Y-73067500D02*
X64933500Y-77681500D01*
X64973500Y-73120500D02*
X64973500Y-77628500D01*
X65013500Y-73175500D02*
X65013500Y-77573500D01*
X65053500Y-73232500D02*
X65053500Y-77516500D01*
X65093500Y-73291500D02*
X65093500Y-77457500D01*
X65133500Y-73352500D02*
X65133500Y-77396500D01*
X65173500Y-73417500D02*
X65173500Y-77331500D01*
X65213500Y-73484500D02*
X65213500Y-77264500D01*
X65253500Y-73554500D02*
X65253500Y-77194500D01*
X65293500Y-73629500D02*
X65293500Y-77119500D01*
X65333500Y-73707500D02*
X65333500Y-77041500D01*
X65373500Y-73790500D02*
X65373500Y-76958500D01*
X65413500Y-73879500D02*
X65413500Y-76869500D01*
X65453500Y-73974500D02*
X65453500Y-76774500D01*
X65493500Y-74077500D02*
X65493500Y-76671500D01*
X65533500Y-74190500D02*
X65533500Y-76558500D01*
X65573500Y-74317500D02*
X65573500Y-76431500D01*
X65613500Y-74461500D02*
X65613500Y-76287500D01*
X65653500Y-74634500D02*
X65653500Y-76114500D01*
X65693500Y-74861500D02*
X65693500Y-75887500D01*
X58442500Y-75374500D02*
X59642500Y-75374500D01*
X59042500Y-74724500D02*
X59042500Y-76024500D01*
X138142500Y-91523500D02*
G75*
G03X138142500Y-91523500I-3840000J0D01*
G01*
X130502500Y-91523500D02*
X138102500Y-91523500D01*
X130502500Y-91483500D02*
X138102500Y-91483500D01*
X130502500Y-91443500D02*
X138102500Y-91443500D01*
X130503500Y-91403500D02*
X138101500Y-91403500D01*
X130505500Y-91363500D02*
X138099500Y-91363500D01*
X130507500Y-91323500D02*
X138097500Y-91323500D01*
X130509500Y-91283500D02*
X138095500Y-91283500D01*
X130512500Y-91243500D02*
X133322500Y-91243500D01*
X135282500Y-91243500D02*
X138092500Y-91243500D01*
X130515500Y-91203500D02*
X133322500Y-91203500D01*
X135282500Y-91203500D02*
X138089500Y-91203500D01*
X130518500Y-91163500D02*
X133322500Y-91163500D01*
X135282500Y-91163500D02*
X138086500Y-91163500D01*
X130522500Y-91123500D02*
X133322500Y-91123500D01*
X135282500Y-91123500D02*
X138082500Y-91123500D01*
X130527500Y-91083500D02*
X133322500Y-91083500D01*
X135282500Y-91083500D02*
X138077500Y-91083500D01*
X130532500Y-91043500D02*
X133322500Y-91043500D01*
X135282500Y-91043500D02*
X138072500Y-91043500D01*
X130537500Y-91003500D02*
X133322500Y-91003500D01*
X135282500Y-91003500D02*
X138067500Y-91003500D01*
X130543500Y-90963500D02*
X133322500Y-90963500D01*
X135282500Y-90963500D02*
X138061500Y-90963500D01*
X130549500Y-90923500D02*
X133322500Y-90923500D01*
X135282500Y-90923500D02*
X138055500Y-90923500D01*
X130555500Y-90883500D02*
X133322500Y-90883500D01*
X135282500Y-90883500D02*
X138049500Y-90883500D01*
X130562500Y-90843500D02*
X133322500Y-90843500D01*
X135282500Y-90843500D02*
X138042500Y-90843500D01*
X130570500Y-90802500D02*
X133322500Y-90802500D01*
X135282500Y-90802500D02*
X138034500Y-90802500D01*
X130577500Y-90762500D02*
X133322500Y-90762500D01*
X135282500Y-90762500D02*
X138027500Y-90762500D01*
X130586500Y-90722500D02*
X133322500Y-90722500D01*
X135282500Y-90722500D02*
X138018500Y-90722500D01*
X130595500Y-90682500D02*
X133322500Y-90682500D01*
X135282500Y-90682500D02*
X138009500Y-90682500D01*
X130604500Y-90642500D02*
X133322500Y-90642500D01*
X135282500Y-90642500D02*
X138000500Y-90642500D01*
X130613500Y-90602500D02*
X133322500Y-90602500D01*
X135282500Y-90602500D02*
X137991500Y-90602500D01*
X130623500Y-90562500D02*
X133322500Y-90562500D01*
X135282500Y-90562500D02*
X137981500Y-90562500D01*
X130634500Y-90522500D02*
X133322500Y-90522500D01*
X135282500Y-90522500D02*
X137970500Y-90522500D01*
X130645500Y-90482500D02*
X133322500Y-90482500D01*
X135282500Y-90482500D02*
X137959500Y-90482500D01*
X130657500Y-90442500D02*
X133322500Y-90442500D01*
X135282500Y-90442500D02*
X137947500Y-90442500D01*
X130668500Y-90402500D02*
X133322500Y-90402500D01*
X135282500Y-90402500D02*
X137936500Y-90402500D01*
X130681500Y-90362500D02*
X133322500Y-90362500D01*
X135282500Y-90362500D02*
X137923500Y-90362500D01*
X130694500Y-90322500D02*
X133322500Y-90322500D01*
X135282500Y-90322500D02*
X137910500Y-90322500D01*
X130707500Y-90282500D02*
X133322500Y-90282500D01*
X135282500Y-90282500D02*
X137897500Y-90282500D01*
X130721500Y-90242500D02*
X133322500Y-90242500D01*
X135282500Y-90242500D02*
X137883500Y-90242500D01*
X130736500Y-90202500D02*
X133322500Y-90202500D01*
X135282500Y-90202500D02*
X137868500Y-90202500D01*
X130750500Y-90162500D02*
X133322500Y-90162500D01*
X135282500Y-90162500D02*
X137854500Y-90162500D01*
X130766500Y-90122500D02*
X133322500Y-90122500D01*
X135282500Y-90122500D02*
X137838500Y-90122500D01*
X130782500Y-90082500D02*
X133322500Y-90082500D01*
X135282500Y-90082500D02*
X137822500Y-90082500D01*
X130798500Y-90042500D02*
X133322500Y-90042500D01*
X135282500Y-90042500D02*
X137806500Y-90042500D01*
X130815500Y-90002500D02*
X133322500Y-90002500D01*
X135282500Y-90002500D02*
X137789500Y-90002500D01*
X130833500Y-89962500D02*
X133322500Y-89962500D01*
X135282500Y-89962500D02*
X137771500Y-89962500D01*
X130851500Y-89922500D02*
X133322500Y-89922500D01*
X135282500Y-89922500D02*
X137753500Y-89922500D01*
X130869500Y-89882500D02*
X133322500Y-89882500D01*
X135282500Y-89882500D02*
X137735500Y-89882500D01*
X130889500Y-89842500D02*
X133322500Y-89842500D01*
X135282500Y-89842500D02*
X137715500Y-89842500D01*
X130908500Y-89802500D02*
X133322500Y-89802500D01*
X135282500Y-89802500D02*
X137696500Y-89802500D01*
X130929500Y-89762500D02*
X133322500Y-89762500D01*
X135282500Y-89762500D02*
X137675500Y-89762500D01*
X130950500Y-89722500D02*
X133322500Y-89722500D01*
X135282500Y-89722500D02*
X137654500Y-89722500D01*
X130971500Y-89682500D02*
X133322500Y-89682500D01*
X135282500Y-89682500D02*
X137633500Y-89682500D01*
X130993500Y-89642500D02*
X133322500Y-89642500D01*
X135282500Y-89642500D02*
X137611500Y-89642500D01*
X131016500Y-89602500D02*
X133322500Y-89602500D01*
X135282500Y-89602500D02*
X137588500Y-89602500D01*
X131039500Y-89562500D02*
X133322500Y-89562500D01*
X135282500Y-89562500D02*
X137565500Y-89562500D01*
X131063500Y-89522500D02*
X133322500Y-89522500D01*
X135282500Y-89522500D02*
X137541500Y-89522500D01*
X131088500Y-89482500D02*
X133322500Y-89482500D01*
X135282500Y-89482500D02*
X137516500Y-89482500D01*
X131114500Y-89442500D02*
X133322500Y-89442500D01*
X135282500Y-89442500D02*
X137490500Y-89442500D01*
X131140500Y-89402500D02*
X133322500Y-89402500D01*
X135282500Y-89402500D02*
X137464500Y-89402500D01*
X131167500Y-89362500D02*
X133322500Y-89362500D01*
X135282500Y-89362500D02*
X137437500Y-89362500D01*
X131194500Y-89322500D02*
X133322500Y-89322500D01*
X135282500Y-89322500D02*
X137410500Y-89322500D01*
X131223500Y-89282500D02*
X137381500Y-89282500D01*
X131252500Y-89242500D02*
X137352500Y-89242500D01*
X131282500Y-89202500D02*
X137322500Y-89202500D01*
X131312500Y-89162500D02*
X137292500Y-89162500D01*
X131344500Y-89122500D02*
X137260500Y-89122500D01*
X131376500Y-89082500D02*
X137228500Y-89082500D01*
X131410500Y-89042500D02*
X137194500Y-89042500D01*
X131444500Y-89002500D02*
X137160500Y-89002500D01*
X131479500Y-88962500D02*
X137125500Y-88962500D01*
X131516500Y-88922500D02*
X137088500Y-88922500D01*
X131553500Y-88882500D02*
X137051500Y-88882500D01*
X131591500Y-88842500D02*
X137013500Y-88842500D01*
X131631500Y-88802500D02*
X136973500Y-88802500D01*
X131672500Y-88762500D02*
X136932500Y-88762500D01*
X131714500Y-88722500D02*
X136890500Y-88722500D01*
X131757500Y-88682500D02*
X136847500Y-88682500D01*
X131802500Y-88642500D02*
X136802500Y-88642500D01*
X131848500Y-88602500D02*
X136756500Y-88602500D01*
X131895500Y-88562500D02*
X136709500Y-88562500D01*
X131945500Y-88522500D02*
X136659500Y-88522500D01*
X131995500Y-88482500D02*
X136609500Y-88482500D01*
X132048500Y-88442500D02*
X136556500Y-88442500D01*
X132103500Y-88402500D02*
X136501500Y-88402500D01*
X132160500Y-88362500D02*
X136444500Y-88362500D01*
X132219500Y-88322500D02*
X136385500Y-88322500D01*
X132280500Y-88282500D02*
X136324500Y-88282500D01*
X132345500Y-88242500D02*
X136259500Y-88242500D01*
X132412500Y-88202500D02*
X136192500Y-88202500D01*
X132482500Y-88162500D02*
X136122500Y-88162500D01*
X132557500Y-88122500D02*
X136047500Y-88122500D01*
X132635500Y-88082500D02*
X135969500Y-88082500D01*
X132718500Y-88042500D02*
X135886500Y-88042500D01*
X132807500Y-88002500D02*
X135797500Y-88002500D01*
X132902500Y-87962500D02*
X135702500Y-87962500D01*
X133005500Y-87922500D02*
X135599500Y-87922500D01*
X133118500Y-87882500D02*
X135486500Y-87882500D01*
X133245500Y-87842500D02*
X135359500Y-87842500D01*
X133389500Y-87802500D02*
X135215500Y-87802500D01*
X133562500Y-87762500D02*
X135042500Y-87762500D01*
X133789500Y-87722500D02*
X134815500Y-87722500D01*
X134302500Y-94973500D02*
X134302500Y-93773500D01*
X133652500Y-94373500D02*
X134952500Y-94373500D01*
X87842400Y-96712400D02*
X82722400Y-96712400D01*
X87842400Y-94092400D02*
X82722400Y-94092400D01*
X87842400Y-96712400D02*
X87842400Y-96398400D01*
X87842400Y-94406400D02*
X87842400Y-94092400D01*
X82722400Y-96712400D02*
X82722400Y-96398400D01*
X82722400Y-94406400D02*
X82722400Y-94092400D01*
X87969400Y-99912800D02*
X82849400Y-99912800D01*
X87969400Y-97292800D02*
X82849400Y-97292800D01*
X87969400Y-99912800D02*
X87969400Y-99598800D01*
X87969400Y-97606800D02*
X87969400Y-97292800D01*
X82849400Y-99912800D02*
X82849400Y-99598800D01*
X82849400Y-97606800D02*
X82849400Y-97292800D01*
X126940000Y-115149000D02*
X132060000Y-115149000D01*
X126940000Y-117769000D02*
X132060000Y-117769000D01*
X126940000Y-115149000D02*
X126940000Y-115463000D01*
X126940000Y-117455000D02*
X126940000Y-117769000D01*
X132060000Y-115149000D02*
X132060000Y-115463000D01*
X132060000Y-117455000D02*
X132060000Y-117769000D01*
X66482600Y-77682400D02*
X66482600Y-72562400D01*
X69102600Y-77682400D02*
X69102600Y-72562400D01*
X66482600Y-77682400D02*
X66796600Y-77682400D01*
X68788600Y-77682400D02*
X69102600Y-77682400D01*
X66482600Y-72562400D02*
X66796600Y-72562400D01*
X68788600Y-72562400D02*
X69102600Y-72562400D01*
X121313900Y-79106400D02*
X126433900Y-79106400D01*
X121313900Y-81726400D02*
X126433900Y-81726400D01*
X121313900Y-79106400D02*
X121313900Y-79420400D01*
X121313900Y-81412400D02*
X121313900Y-81726400D01*
X126433900Y-79106400D02*
X126433900Y-79420400D01*
X126433900Y-81412400D02*
X126433900Y-81726400D01*
X116927000Y-80908200D02*
X116927000Y-75788200D01*
X119547000Y-80908200D02*
X119547000Y-75788200D01*
X116927000Y-80908200D02*
X117241000Y-80908200D01*
X119233000Y-80908200D02*
X119547000Y-80908200D01*
X116927000Y-75788200D02*
X117241000Y-75788200D01*
X119233000Y-75788200D02*
X119547000Y-75788200D01*
X120454000Y-143001538D02*
G75*
G03X126004000Y-144546830I2990000J-462D01*
G01*
X120454000Y-143002462D02*
G75*
G02X126004000Y-141457170I2990000J462D01*
G01*
X125944000Y-143002000D02*
G75*
G03X125944000Y-143002000I-2500000J0D01*
G01*
X126004000Y-144547000D02*
X126004000Y-141457000D01*
X77274000Y-143509538D02*
G75*
G03X82824000Y-145054830I2990000J-462D01*
G01*
X77274000Y-143510462D02*
G75*
G02X82824000Y-141965170I2990000J462D01*
G01*
X82764000Y-143510000D02*
G75*
G03X82764000Y-143510000I-2500000J0D01*
G01*
X82824000Y-145055000D02*
X82824000Y-141965000D01*
X99626000Y-143509538D02*
G75*
G03X105176000Y-145054830I2990000J-462D01*
G01*
X99626000Y-143510462D02*
G75*
G02X105176000Y-141965170I2990000J462D01*
G01*
X105116000Y-143510000D02*
G75*
G03X105116000Y-143510000I-2500000J0D01*
G01*
X105176000Y-145055000D02*
X105176000Y-141965000D01*
X116342000Y-77477000D02*
X116472000Y-77477000D01*
X116472000Y-77477000D02*
X116472000Y-82797000D01*
X116472000Y-82797000D02*
X116342000Y-82797000D01*
X113782000Y-77477000D02*
X113652000Y-77477000D01*
X113652000Y-77477000D02*
X113652000Y-82797000D01*
X113652000Y-82797000D02*
X113782000Y-82797000D01*
X116472000Y-78317000D02*
X113652000Y-78317000D01*
X134376000Y-99067000D02*
X134506000Y-99067000D01*
X134506000Y-99067000D02*
X134506000Y-104387000D01*
X134506000Y-104387000D02*
X134376000Y-104387000D01*
X131816000Y-99067000D02*
X131686000Y-99067000D01*
X131686000Y-99067000D02*
X131686000Y-104387000D01*
X131686000Y-104387000D02*
X131816000Y-104387000D01*
X134506000Y-99907000D02*
X131686000Y-99907000D01*
X60532000Y-137188000D02*
X51732000Y-137188000D01*
X51732000Y-137188000D02*
X51732000Y-127988000D01*
X66432000Y-134488000D02*
X66432000Y-137188000D01*
X66432000Y-137188000D02*
X64532000Y-137188000D01*
X51732000Y-127988000D02*
X66432000Y-127988000D01*
X66432000Y-127988000D02*
X66432000Y-130588000D01*
X55118000Y-123952000D02*
X55118000Y-113792000D01*
X53848000Y-123952000D02*
X61468000Y-123952000D01*
X61468000Y-123952000D02*
X61468000Y-113792000D01*
X61468000Y-113792000D02*
X53848000Y-113792000D01*
X53848000Y-113792000D02*
X53848000Y-123952000D01*
X66802000Y-123698000D02*
G75*
G03X66802000Y-123698000I-2286000J0D01*
G01*
X67056000Y-118364000D02*
G75*
G03X67056000Y-118364000I-2286000J0D01*
G01*
X66751200Y-55295800D02*
G75*
G03X66751200Y-55295800I-2286000J0D01*
G01*
X136982200Y-55473600D02*
G75*
G03X136982200Y-55473600I-2286000J0D01*
G01*
X85090000Y-136144000D02*
G75*
G03X85090000Y-136144000I-2286000J0D01*
G01*
X55880000Y-54864000D02*
G75*
G03X55880000Y-54864000I-2286000J0D01*
G01*
X148082000Y-54864000D02*
G75*
G03X148082000Y-54864000I-2286000J0D01*
G01*
X84836000Y-130048000D02*
G75*
G03X84836000Y-130048000I-2286000J0D01*
G01*
X148082000Y-146050000D02*
G75*
G03X148082000Y-146050000I-2286000J0D01*
G01*
X55880000Y-146050000D02*
G75*
G03X55880000Y-146050000I-2286000J0D01*
G01*
X84836000Y-123444000D02*
G75*
G03X84836000Y-123444000I-2286000J0D01*
G01*
X85090000Y-116840000D02*
G75*
G03X85090000Y-116840000I-2286000J0D01*
G01*
X127702000Y-131886000D02*
X130362000Y-131886000D01*
X127702000Y-126746000D02*
X127702000Y-131886000D01*
X130362000Y-126746000D02*
X130362000Y-131886000D01*
X127702000Y-126746000D02*
X130362000Y-126746000D01*
X127702000Y-125476000D02*
X127702000Y-124146000D01*
X127702000Y-124146000D02*
X129032000Y-124146000D01*
D14*
X147213320Y-120904000D02*
X134513320Y-120904000D01*
X147213320Y-108204000D02*
X134513320Y-108204000D01*
X147213320Y-109474000D02*
X147213320Y-120904000D01*
X134513320Y-120904000D02*
X134513320Y-108204000D01*
X147213320Y-108204000D02*
X147213320Y-109474000D01*
X139593320Y-114554000D02*
X140863320Y-114554000D01*
X140863320Y-114554000D02*
X139593320Y-113284000D01*
X140863320Y-114554000D02*
X139593320Y-115824000D01*
D13*
X122660000Y-127834000D02*
X126260000Y-127834000D01*
X122621522Y-127822478D02*
G75*
G02X124460000Y-123384000I1838478J1838478D01*
G01*
X126298478Y-127822478D02*
G75*
G03X124460000Y-123384000I-1838478J1838478D01*
G01*
X117784000Y-117707000D02*
X117784000Y-121307000D01*
X117795522Y-117668522D02*
G75*
G02X122234000Y-119507000I1838478J-1838478D01*
G01*
X117795522Y-121345478D02*
G75*
G03X122234000Y-119507000I1838478J1838478D01*
G01*
X140788000Y-127784000D02*
X140788000Y-124184000D01*
X140776478Y-127822478D02*
G75*
G02X136338000Y-125984000I-1838478J1838478D01*
G01*
X140776478Y-124145522D02*
G75*
G03X136338000Y-125984000I-1838478J-1838478D01*
G01*
X126655000Y-77124000D02*
X126325000Y-77124000D01*
X126325000Y-77124000D02*
X126325000Y-70704000D01*
X126325000Y-70704000D02*
X126655000Y-70704000D01*
X128615000Y-77124000D02*
X128945000Y-77124000D01*
X128945000Y-77124000D02*
X128945000Y-70704000D01*
X128945000Y-70704000D02*
X128615000Y-70704000D01*
X65751000Y-66812600D02*
X65751000Y-66482600D01*
X65751000Y-66482600D02*
X72171000Y-66482600D01*
X72171000Y-66482600D02*
X72171000Y-66812600D01*
X65751000Y-68772600D02*
X65751000Y-69102600D01*
X65751000Y-69102600D02*
X72171000Y-69102600D01*
X72171000Y-69102600D02*
X72171000Y-68772600D01*
X118137500Y-99088500D02*
X118467500Y-99088500D01*
X118467500Y-99088500D02*
X118467500Y-105508500D01*
X118467500Y-105508500D02*
X118137500Y-105508500D01*
X116177500Y-99088500D02*
X115847500Y-99088500D01*
X115847500Y-99088500D02*
X115847500Y-105508500D01*
X115847500Y-105508500D02*
X116177500Y-105508500D01*
X118710000Y-135418000D02*
X118710000Y-135088000D01*
X118710000Y-135088000D02*
X125130000Y-135088000D01*
X125130000Y-135088000D02*
X125130000Y-135418000D01*
X118710000Y-137378000D02*
X118710000Y-137708000D01*
X118710000Y-137708000D02*
X125130000Y-137708000D01*
X125130000Y-137708000D02*
X125130000Y-137378000D01*
X73688500Y-84681500D02*
X73688500Y-84351500D01*
X73688500Y-84351500D02*
X80108500Y-84351500D01*
X80108500Y-84351500D02*
X80108500Y-84681500D01*
X73688500Y-86641500D02*
X73688500Y-86971500D01*
X73688500Y-86971500D02*
X80108500Y-86971500D01*
X80108500Y-86971500D02*
X80108500Y-86641500D01*
X146529500Y-68201100D02*
X146529500Y-68531100D01*
X146529500Y-68531100D02*
X140109500Y-68531100D01*
X140109500Y-68531100D02*
X140109500Y-68201100D01*
X146529500Y-66241100D02*
X146529500Y-65911100D01*
X146529500Y-65911100D02*
X140109500Y-65911100D01*
X140109500Y-65911100D02*
X140109500Y-66241100D01*
X84846600Y-67624400D02*
X84516600Y-67624400D01*
X84516600Y-67624400D02*
X84516600Y-61204400D01*
X84516600Y-61204400D02*
X84846600Y-61204400D01*
X86806600Y-67624400D02*
X87136600Y-67624400D01*
X87136600Y-67624400D02*
X87136600Y-61204400D01*
X87136600Y-61204400D02*
X86806600Y-61204400D01*
X71466000Y-128052000D02*
X71466000Y-127722000D01*
X71466000Y-127722000D02*
X77886000Y-127722000D01*
X77886000Y-127722000D02*
X77886000Y-128052000D01*
X71466000Y-130012000D02*
X71466000Y-130342000D01*
X71466000Y-130342000D02*
X77886000Y-130342000D01*
X77886000Y-130342000D02*
X77886000Y-130012000D01*
X71466000Y-115352000D02*
X71466000Y-115022000D01*
X71466000Y-115022000D02*
X77886000Y-115022000D01*
X77886000Y-115022000D02*
X77886000Y-115352000D01*
X71466000Y-117312000D02*
X71466000Y-117642000D01*
X71466000Y-117642000D02*
X77886000Y-117642000D01*
X77886000Y-117642000D02*
X77886000Y-117312000D01*
X90565800Y-135778800D02*
X90895800Y-135778800D01*
X90895800Y-135778800D02*
X90895800Y-142198800D01*
X90895800Y-142198800D02*
X90565800Y-142198800D01*
X88605800Y-135778800D02*
X88275800Y-135778800D01*
X88275800Y-135778800D02*
X88275800Y-142198800D01*
X88275800Y-142198800D02*
X88605800Y-142198800D01*
X98516000Y-137252000D02*
X98846000Y-137252000D01*
X98846000Y-137252000D02*
X98846000Y-143672000D01*
X98846000Y-143672000D02*
X98516000Y-143672000D01*
X96556000Y-137252000D02*
X96226000Y-137252000D01*
X96226000Y-137252000D02*
X96226000Y-143672000D01*
X96226000Y-143672000D02*
X96556000Y-143672000D01*
X115224000Y-131282000D02*
X115224000Y-131612000D01*
X115224000Y-131612000D02*
X108804000Y-131612000D01*
X108804000Y-131612000D02*
X108804000Y-131282000D01*
X115224000Y-129322000D02*
X115224000Y-128992000D01*
X115224000Y-128992000D02*
X108804000Y-128992000D01*
X108804000Y-128992000D02*
X108804000Y-129322000D01*
X113828000Y-122209000D02*
X113498000Y-122209000D01*
X113498000Y-122209000D02*
X113498000Y-115789000D01*
X113498000Y-115789000D02*
X113828000Y-115789000D01*
X115788000Y-122209000D02*
X116118000Y-122209000D01*
X116118000Y-122209000D02*
X116118000Y-115789000D01*
X116118000Y-115789000D02*
X115788000Y-115789000D01*
X118964000Y-129576000D02*
X118964000Y-129246000D01*
X118964000Y-129246000D02*
X125384000Y-129246000D01*
X125384000Y-129246000D02*
X125384000Y-129576000D01*
X118964000Y-131536000D02*
X118964000Y-131866000D01*
X118964000Y-131866000D02*
X125384000Y-131866000D01*
X125384000Y-131866000D02*
X125384000Y-131536000D01*
X124806000Y-119035000D02*
X124806000Y-118705000D01*
X124806000Y-118705000D02*
X131226000Y-118705000D01*
X131226000Y-118705000D02*
X131226000Y-119035000D01*
X124806000Y-120995000D02*
X124806000Y-121325000D01*
X124806000Y-121325000D02*
X131226000Y-121325000D01*
X131226000Y-121325000D02*
X131226000Y-120995000D01*
X132934000Y-129576000D02*
X132934000Y-129246000D01*
X132934000Y-129246000D02*
X139354000Y-129246000D01*
X139354000Y-129246000D02*
X139354000Y-129576000D01*
X132934000Y-131536000D02*
X132934000Y-131866000D01*
X132934000Y-131866000D02*
X139354000Y-131866000D01*
X139354000Y-131866000D02*
X139354000Y-131536000D01*
X139354000Y-134838000D02*
X139354000Y-135168000D01*
X139354000Y-135168000D02*
X132934000Y-135168000D01*
X132934000Y-135168000D02*
X132934000Y-134838000D01*
X139354000Y-132878000D02*
X139354000Y-132548000D01*
X139354000Y-132548000D02*
X132934000Y-132548000D01*
X132934000Y-132548000D02*
X132934000Y-132878000D01*
X133861800Y-151740840D02*
X133861800Y-149390840D01*
X128811800Y-153190840D02*
X128811800Y-149640840D01*
X130561800Y-153190840D02*
X128811800Y-153190840D01*
X137161800Y-153190840D02*
X138911800Y-153190840D01*
X138911800Y-153190840D02*
X138911800Y-149590840D01*
X133861800Y-151790840D02*
X132911800Y-150790840D01*
X133811800Y-151790840D02*
X134811800Y-150840840D01*
X137161800Y-151790840D02*
X137161800Y-154490840D01*
X137161800Y-154490840D02*
X130561800Y-154490840D01*
X130561800Y-154490840D02*
X130561800Y-151790840D01*
X130561800Y-151790840D02*
X137161800Y-151790840D01*
X113297960Y-151852600D02*
X113297960Y-149502600D01*
X108247960Y-153302600D02*
X108247960Y-149752600D01*
X109997960Y-153302600D02*
X108247960Y-153302600D01*
X116597960Y-153302600D02*
X118347960Y-153302600D01*
X118347960Y-153302600D02*
X118347960Y-149702600D01*
X113297960Y-151902600D02*
X112347960Y-150902600D01*
X113247960Y-151902600D02*
X114247960Y-150952600D01*
X116597960Y-151902600D02*
X116597960Y-154602600D01*
X116597960Y-154602600D02*
X109997960Y-154602600D01*
X109997960Y-154602600D02*
X109997960Y-151902600D01*
X109997960Y-151902600D02*
X116597960Y-151902600D01*
X91728280Y-151740840D02*
X91728280Y-149390840D01*
X86678280Y-153190840D02*
X86678280Y-149640840D01*
X88428280Y-153190840D02*
X86678280Y-153190840D01*
X95028280Y-153190840D02*
X96778280Y-153190840D01*
X96778280Y-153190840D02*
X96778280Y-149590840D01*
X91728280Y-151790840D02*
X90778280Y-150790840D01*
X91678280Y-151790840D02*
X92678280Y-150840840D01*
X95028280Y-151790840D02*
X95028280Y-154490840D01*
X95028280Y-154490840D02*
X88428280Y-154490840D01*
X88428280Y-154490840D02*
X88428280Y-151790840D01*
X88428280Y-151790840D02*
X95028280Y-151790840D01*
X68705720Y-151852600D02*
X68705720Y-149502600D01*
X63655720Y-153302600D02*
X63655720Y-149752600D01*
X65405720Y-153302600D02*
X63655720Y-153302600D01*
X72005720Y-153302600D02*
X73755720Y-153302600D01*
X73755720Y-153302600D02*
X73755720Y-149702600D01*
X68705720Y-151902600D02*
X67755720Y-150902600D01*
X68655720Y-151902600D02*
X69655720Y-150952600D01*
X72005720Y-151902600D02*
X72005720Y-154602600D01*
X72005720Y-154602600D02*
X65405720Y-154602600D01*
X65405720Y-154602600D02*
X65405720Y-151902600D01*
X65405720Y-151902600D02*
X72005720Y-151902600D01*
X76724000Y-131660000D02*
X72224000Y-131660000D01*
X77974000Y-135660000D02*
X77974000Y-134160000D01*
X72224000Y-138160000D02*
X76724000Y-138160000D01*
X70974000Y-134160000D02*
X70974000Y-135660000D01*
X76978000Y-119214000D02*
X72478000Y-119214000D01*
X78228000Y-123214000D02*
X78228000Y-121714000D01*
X72478000Y-125714000D02*
X76978000Y-125714000D01*
X71228000Y-121714000D02*
X71228000Y-123214000D01*
X69358200Y-73879200D02*
G75*
G02X69358200Y-75879200I0J-1000000D01*
G01*
X69358200Y-75879200D02*
X69358200Y-77529200D01*
X69358200Y-77529200D02*
X87258200Y-77529200D01*
X87258200Y-77529200D02*
X87258200Y-72229200D01*
X87258200Y-72229200D02*
X69358200Y-72229200D01*
X69358200Y-72229200D02*
X69358200Y-73879200D01*
X69298200Y-80019200D02*
X87318200Y-80019200D01*
X87318200Y-80019200D02*
X87318200Y-69739200D01*
X87318200Y-69739200D02*
X69298200Y-69739200D01*
X69298200Y-69739200D02*
X69298200Y-80019200D01*
X124253500Y-82045500D02*
G75*
G02X122253500Y-82045500I-1000000J0D01*
G01*
X122253500Y-82045500D02*
X120603500Y-82045500D01*
X120603500Y-82045500D02*
X120603500Y-92325500D01*
X120603500Y-92325500D02*
X125903500Y-92325500D01*
X125903500Y-92325500D02*
X125903500Y-82045500D01*
X125903500Y-82045500D02*
X124253500Y-82045500D01*
X118113500Y-81985500D02*
X118113500Y-92385500D01*
X118113500Y-92385500D02*
X128393500Y-92385500D01*
X128393500Y-92385500D02*
X128393500Y-81985500D01*
X128393500Y-81985500D02*
X118113500Y-81985500D01*
X74088000Y-107482000D02*
X74088000Y-97242000D01*
X78729000Y-107482000D02*
X78729000Y-97242000D01*
X74088000Y-107482000D02*
X78729000Y-107482000D01*
X74088000Y-97242000D02*
X78729000Y-97242000D01*
X75598000Y-107482000D02*
X75598000Y-97242000D01*
X74088000Y-104212000D02*
X75598000Y-104212000D01*
X74088000Y-100511000D02*
X75598000Y-100511000D01*
X65548000Y-91627000D02*
G75*
G02X67548000Y-91627000I1000000J0D01*
G01*
X67548000Y-91627000D02*
X69198000Y-91627000D01*
X69198000Y-91627000D02*
X69198000Y-81347000D01*
X69198000Y-81347000D02*
X63898000Y-81347000D01*
X63898000Y-81347000D02*
X63898000Y-91627000D01*
X63898000Y-91627000D02*
X65548000Y-91627000D01*
X71688000Y-91687000D02*
X71688000Y-81287000D01*
X71688000Y-81287000D02*
X61408000Y-81287000D01*
X61408000Y-81287000D02*
X61408000Y-91687000D01*
X61408000Y-91687000D02*
X71688000Y-91687000D01*
D15*
X101854000Y-104140000D02*
X101854000Y-107950000D01*
X100584000Y-104140000D02*
X100584000Y-107950000D01*
X98044000Y-104140000D02*
X98044000Y-107950000D01*
X98044000Y-107950000D02*
X103124000Y-107950000D01*
X103124000Y-107950000D02*
X103124000Y-104140000D01*
X103124000Y-104140000D02*
X98044000Y-104140000D01*
X98044000Y-104140000D02*
X99314000Y-104140000D01*
X99314000Y-104140000D02*
X99314000Y-107950000D01*
X89154000Y-54610000D02*
X112014000Y-54610000D01*
X112014000Y-54610000D02*
X112014000Y-107950000D01*
X112014000Y-107950000D02*
X89154000Y-107950000D01*
X89154000Y-107950000D02*
X89154000Y-54610000D01*
D13*
X136361880Y-68203640D02*
X136361880Y-68533640D01*
X136361880Y-68533640D02*
X129941880Y-68533640D01*
X129941880Y-68533640D02*
X129941880Y-68203640D01*
X136361880Y-66243640D02*
X136361880Y-65913640D01*
X136361880Y-65913640D02*
X129941880Y-65913640D01*
X129941880Y-65913640D02*
X129941880Y-66243640D01*
X125968200Y-68091880D02*
X125968200Y-68421880D01*
X125968200Y-68421880D02*
X119548200Y-68421880D01*
X119548200Y-68421880D02*
X119548200Y-68091880D01*
X125968200Y-66131880D02*
X125968200Y-65801880D01*
X125968200Y-65801880D02*
X119548200Y-65801880D01*
X119548200Y-65801880D02*
X119548200Y-66131880D01*
X75657000Y-63383600D02*
X75657000Y-63053600D01*
X75657000Y-63053600D02*
X82077000Y-63053600D01*
X82077000Y-63053600D02*
X82077000Y-63383600D01*
X75657000Y-65343600D02*
X75657000Y-65673600D01*
X75657000Y-65673600D02*
X82077000Y-65673600D01*
X82077000Y-65673600D02*
X82077000Y-65343600D01*
X125303280Y-57302400D02*
X115143280Y-57302400D01*
X125303280Y-58572400D02*
X125303280Y-50952400D01*
X125303280Y-50952400D02*
X115143280Y-50952400D01*
X115143280Y-50952400D02*
X115143280Y-58572400D01*
X115143280Y-58572400D02*
X125303280Y-58572400D01*
X75692000Y-52044600D02*
X85852000Y-52044600D01*
X75692000Y-50774600D02*
X75692000Y-58394600D01*
X75692000Y-58394600D02*
X85852000Y-58394600D01*
X85852000Y-58394600D02*
X85852000Y-50774600D01*
X85852000Y-50774600D02*
X75692000Y-50774600D01*
X53467000Y-71120000D02*
X53467000Y-60960000D01*
X52197000Y-71120000D02*
X59817000Y-71120000D01*
X59817000Y-71120000D02*
X59817000Y-60960000D01*
X59817000Y-60960000D02*
X52197000Y-60960000D01*
X52197000Y-60960000D02*
X52197000Y-71120000D01*
X141224000Y-91948000D02*
X141224000Y-81788000D01*
X139954000Y-91948000D02*
X147574000Y-91948000D01*
X147574000Y-91948000D02*
X147574000Y-81788000D01*
X147574000Y-81788000D02*
X139954000Y-81788000D01*
X139954000Y-81788000D02*
X139954000Y-91948000D01*
X144732700Y-105584300D02*
X147392700Y-105584300D01*
X144732700Y-97904300D02*
X144732700Y-105584300D01*
X147392700Y-97904300D02*
X147392700Y-105584300D01*
X144732700Y-97904300D02*
X147392700Y-97904300D01*
X144732700Y-96634300D02*
X144732700Y-95304300D01*
X144732700Y-95304300D02*
X146062700Y-95304300D01*
X146330000Y-126050000D02*
X143670000Y-126050000D01*
X146330000Y-133730000D02*
X146330000Y-126050000D01*
X143670000Y-133730000D02*
X143670000Y-126050000D01*
X146330000Y-133730000D02*
X143670000Y-133730000D01*
X146330000Y-135000000D02*
X146330000Y-136330000D01*
X146330000Y-136330000D02*
X145000000Y-136330000D01*
X138084000Y-86095400D02*
X138084000Y-86425400D01*
X138084000Y-86425400D02*
X131664000Y-86425400D01*
X131664000Y-86425400D02*
X131664000Y-86095400D01*
X138084000Y-84135400D02*
X138084000Y-83805400D01*
X138084000Y-83805400D02*
X131664000Y-83805400D01*
X131664000Y-83805400D02*
X131664000Y-84135400D01*
X49226500Y-79391500D02*
X51576500Y-79391500D01*
X47776500Y-74341500D02*
X51326500Y-74341500D01*
X47776500Y-76091500D02*
X47776500Y-74341500D01*
X47776500Y-82691500D02*
X47776500Y-84441500D01*
X47776500Y-84441500D02*
X51376500Y-84441500D01*
X49176500Y-79391500D02*
X50176500Y-78441500D01*
X49176500Y-79341500D02*
X50126500Y-80341500D01*
X49176500Y-82691500D02*
X46476500Y-82691500D01*
X46476500Y-82691500D02*
X46476500Y-76091500D01*
X46476500Y-76091500D02*
X49176500Y-76091500D01*
X49176500Y-76091500D02*
X49176500Y-82691500D01*
X54178200Y-99822000D02*
X54178200Y-89662000D01*
X52908200Y-99822000D02*
X60528200Y-99822000D01*
X60528200Y-99822000D02*
X60528200Y-89662000D01*
X60528200Y-89662000D02*
X52908200Y-89662000D01*
X52908200Y-89662000D02*
X52908200Y-99822000D01*
X54076600Y-111175800D02*
X54076600Y-101015800D01*
X52806600Y-111175800D02*
X60426600Y-111175800D01*
X60426600Y-111175800D02*
X60426600Y-101015800D01*
X60426600Y-101015800D02*
X52806600Y-101015800D01*
X52806600Y-101015800D02*
X52806600Y-111175800D01*
X129886400Y-73422000D02*
G75*
G02X129886400Y-75422000I0J-1000000D01*
G01*
X129886400Y-75422000D02*
X129886400Y-77072000D01*
X129886400Y-77072000D02*
X147786400Y-77072000D01*
X147786400Y-77072000D02*
X147786400Y-71772000D01*
X147786400Y-71772000D02*
X129886400Y-71772000D01*
X129886400Y-71772000D02*
X129886400Y-73422000D01*
X129826400Y-79562000D02*
X147846400Y-79562000D01*
X147846400Y-79562000D02*
X147846400Y-69282000D01*
X147846400Y-69282000D02*
X129826400Y-69282000D01*
X129826400Y-69282000D02*
X129826400Y-79562000D01*
X125363600Y-71110800D02*
X125363600Y-76230800D01*
X122743600Y-71110800D02*
X122743600Y-76230800D01*
X125363600Y-71110800D02*
X125049600Y-71110800D01*
X123057600Y-71110800D02*
X122743600Y-71110800D01*
X125363600Y-76230800D02*
X125049600Y-76230800D01*
X123057600Y-76230800D02*
X122743600Y-76230800D01*
X135169600Y-137104760D02*
X140289600Y-137104760D01*
X135169600Y-139724760D02*
X140289600Y-139724760D01*
X135169600Y-137104760D02*
X135169600Y-137418760D01*
X135169600Y-139410760D02*
X135169600Y-139724760D01*
X140289600Y-137104760D02*
X140289600Y-137418760D01*
X140289600Y-139410760D02*
X140289600Y-139724760D01*
X65401500Y-142737200D02*
X60281500Y-142737200D01*
X65401500Y-140117200D02*
X60281500Y-140117200D01*
X65401500Y-142737200D02*
X65401500Y-142423200D01*
X65401500Y-140431200D02*
X65401500Y-140117200D01*
X60281500Y-142737200D02*
X60281500Y-142423200D01*
X60281500Y-140431200D02*
X60281500Y-140117200D01*
X131625900Y-80782600D02*
X131625900Y-80452600D01*
X131625900Y-80452600D02*
X138045900Y-80452600D01*
X138045900Y-80452600D02*
X138045900Y-80782600D01*
X131625900Y-82742600D02*
X131625900Y-83072600D01*
X131625900Y-83072600D02*
X138045900Y-83072600D01*
X138045900Y-83072600D02*
X138045900Y-82742600D01*
X116042000Y-66513000D02*
X116372000Y-66513000D01*
X116372000Y-66513000D02*
X116372000Y-72933000D01*
X116372000Y-72933000D02*
X116042000Y-72933000D01*
X114082000Y-66513000D02*
X113752000Y-66513000D01*
X113752000Y-66513000D02*
X113752000Y-72933000D01*
X113752000Y-72933000D02*
X114082000Y-72933000D01*
X121504000Y-109637000D02*
X121504000Y-109307000D01*
X121504000Y-109307000D02*
X127924000Y-109307000D01*
X127924000Y-109307000D02*
X127924000Y-109637000D01*
X121504000Y-111597000D02*
X121504000Y-111927000D01*
X121504000Y-111927000D02*
X127924000Y-111927000D01*
X127924000Y-111927000D02*
X127924000Y-111597000D01*
D11*
X124079095Y-105116381D02*
X124079095Y-105925905D01*
X124126714Y-106021143D01*
X124174333Y-106068762D01*
X124269571Y-106116381D01*
X124460048Y-106116381D01*
X124555286Y-106068762D01*
X124602905Y-106021143D01*
X124650524Y-105925905D01*
X124650524Y-105116381D01*
X125602905Y-105116381D02*
X125126714Y-105116381D01*
X125079095Y-105592571D01*
X125126714Y-105544952D01*
X125221952Y-105497333D01*
X125460048Y-105497333D01*
X125555286Y-105544952D01*
X125602905Y-105592571D01*
X125650524Y-105687810D01*
X125650524Y-105925905D01*
X125602905Y-106021143D01*
X125555286Y-106068762D01*
X125460048Y-106116381D01*
X125221952Y-106116381D01*
X125126714Y-106068762D01*
X125079095Y-106021143D01*
X78351143Y-68117981D02*
X78017809Y-67641790D01*
X77779714Y-68117981D02*
X77779714Y-67117981D01*
X78160667Y-67117981D01*
X78255905Y-67165600D01*
X78303524Y-67213219D01*
X78351143Y-67308457D01*
X78351143Y-67451314D01*
X78303524Y-67546552D01*
X78255905Y-67594171D01*
X78160667Y-67641790D01*
X77779714Y-67641790D01*
X78732095Y-67213219D02*
X78779714Y-67165600D01*
X78874952Y-67117981D01*
X79113048Y-67117981D01*
X79208286Y-67165600D01*
X79255905Y-67213219D01*
X79303524Y-67308457D01*
X79303524Y-67403695D01*
X79255905Y-67546552D01*
X78684476Y-68117981D01*
X79303524Y-68117981D01*
X79636857Y-67117981D02*
X80255905Y-67117981D01*
X79922571Y-67498933D01*
X80065429Y-67498933D01*
X80160667Y-67546552D01*
X80208286Y-67594171D01*
X80255905Y-67689410D01*
X80255905Y-67927505D01*
X80208286Y-68022743D01*
X80160667Y-68070362D01*
X80065429Y-68117981D01*
X79779714Y-68117981D01*
X79684476Y-68070362D01*
X79636857Y-68022743D01*
X85151934Y-82678543D02*
X85104315Y-82726162D01*
X84961458Y-82773781D01*
X84866220Y-82773781D01*
X84723362Y-82726162D01*
X84628124Y-82630924D01*
X84580505Y-82535686D01*
X84532886Y-82345210D01*
X84532886Y-82202352D01*
X84580505Y-82011876D01*
X84628124Y-81916638D01*
X84723362Y-81821400D01*
X84866220Y-81773781D01*
X84961458Y-81773781D01*
X85104315Y-81821400D01*
X85151934Y-81869019D01*
X86104315Y-82773781D02*
X85532886Y-82773781D01*
X85818600Y-82773781D02*
X85818600Y-81773781D01*
X85723362Y-81916638D01*
X85628124Y-82011876D01*
X85532886Y-82059495D01*
X66000334Y-94718143D02*
X65952715Y-94765762D01*
X65809858Y-94813381D01*
X65714620Y-94813381D01*
X65571762Y-94765762D01*
X65476524Y-94670524D01*
X65428905Y-94575286D01*
X65381286Y-94384810D01*
X65381286Y-94241952D01*
X65428905Y-94051476D01*
X65476524Y-93956238D01*
X65571762Y-93861000D01*
X65714620Y-93813381D01*
X65809858Y-93813381D01*
X65952715Y-93861000D01*
X66000334Y-93908619D01*
X66381286Y-93908619D02*
X66428905Y-93861000D01*
X66524143Y-93813381D01*
X66762239Y-93813381D01*
X66857477Y-93861000D01*
X66905096Y-93908619D01*
X66952715Y-94003857D01*
X66952715Y-94099095D01*
X66905096Y-94241952D01*
X66333667Y-94813381D01*
X66952715Y-94813381D01*
X85139234Y-85889103D02*
X85091615Y-85936722D01*
X84948758Y-85984341D01*
X84853520Y-85984341D01*
X84710662Y-85936722D01*
X84615424Y-85841484D01*
X84567805Y-85746246D01*
X84520186Y-85555770D01*
X84520186Y-85412912D01*
X84567805Y-85222436D01*
X84615424Y-85127198D01*
X84710662Y-85031960D01*
X84853520Y-84984341D01*
X84948758Y-84984341D01*
X85091615Y-85031960D01*
X85139234Y-85079579D01*
X85472567Y-84984341D02*
X86091615Y-84984341D01*
X85758281Y-85365293D01*
X85901139Y-85365293D01*
X85996377Y-85412912D01*
X86043996Y-85460531D01*
X86091615Y-85555770D01*
X86091615Y-85793865D01*
X86043996Y-85889103D01*
X85996377Y-85936722D01*
X85901139Y-85984341D01*
X85615424Y-85984341D01*
X85520186Y-85936722D01*
X85472567Y-85889103D01*
X122718534Y-95010243D02*
X122670915Y-95057862D01*
X122528058Y-95105481D01*
X122432820Y-95105481D01*
X122289962Y-95057862D01*
X122194724Y-94962624D01*
X122147105Y-94867386D01*
X122099486Y-94676910D01*
X122099486Y-94534052D01*
X122147105Y-94343576D01*
X122194724Y-94248338D01*
X122289962Y-94153100D01*
X122432820Y-94105481D01*
X122528058Y-94105481D01*
X122670915Y-94153100D01*
X122718534Y-94200719D01*
X123575677Y-94438814D02*
X123575677Y-95105481D01*
X123337581Y-94057862D02*
X123099486Y-94772148D01*
X123718534Y-94772148D01*
X62983383Y-113143326D02*
X63031002Y-113190945D01*
X63078621Y-113333802D01*
X63078621Y-113429040D01*
X63031002Y-113571898D01*
X62935764Y-113667136D01*
X62840526Y-113714755D01*
X62650050Y-113762374D01*
X62507192Y-113762374D01*
X62316716Y-113714755D01*
X62221478Y-113667136D01*
X62126240Y-113571898D01*
X62078621Y-113429040D01*
X62078621Y-113333802D01*
X62126240Y-113190945D01*
X62173859Y-113143326D01*
X62078621Y-112238564D02*
X62078621Y-112714755D01*
X62554811Y-112762374D01*
X62507192Y-112714755D01*
X62459573Y-112619517D01*
X62459573Y-112381421D01*
X62507192Y-112286183D01*
X62554811Y-112238564D01*
X62650050Y-112190945D01*
X62888145Y-112190945D01*
X62983383Y-112238564D01*
X63031002Y-112286183D01*
X63078621Y-112381421D01*
X63078621Y-112619517D01*
X63031002Y-112714755D01*
X62983383Y-112762374D01*
X74779143Y-90082666D02*
X74826762Y-90130285D01*
X74874381Y-90273142D01*
X74874381Y-90368380D01*
X74826762Y-90511238D01*
X74731524Y-90606476D01*
X74636286Y-90654095D01*
X74445810Y-90701714D01*
X74302952Y-90701714D01*
X74112476Y-90654095D01*
X74017238Y-90606476D01*
X73922000Y-90511238D01*
X73874381Y-90368380D01*
X73874381Y-90273142D01*
X73922000Y-90130285D01*
X73969619Y-90082666D01*
X73874381Y-89225523D02*
X73874381Y-89416000D01*
X73922000Y-89511238D01*
X73969619Y-89558857D01*
X74112476Y-89654095D01*
X74302952Y-89701714D01*
X74683905Y-89701714D01*
X74779143Y-89654095D01*
X74826762Y-89606476D01*
X74874381Y-89511238D01*
X74874381Y-89320761D01*
X74826762Y-89225523D01*
X74779143Y-89177904D01*
X74683905Y-89130285D01*
X74445810Y-89130285D01*
X74350571Y-89177904D01*
X74302952Y-89225523D01*
X74255333Y-89320761D01*
X74255333Y-89511238D01*
X74302952Y-89606476D01*
X74350571Y-89654095D01*
X74445810Y-89701714D01*
X85050334Y-89333343D02*
X85002715Y-89380962D01*
X84859858Y-89428581D01*
X84764620Y-89428581D01*
X84621762Y-89380962D01*
X84526524Y-89285724D01*
X84478905Y-89190486D01*
X84431286Y-89000010D01*
X84431286Y-88857152D01*
X84478905Y-88666676D01*
X84526524Y-88571438D01*
X84621762Y-88476200D01*
X84764620Y-88428581D01*
X84859858Y-88428581D01*
X85002715Y-88476200D01*
X85050334Y-88523819D01*
X85383667Y-88428581D02*
X86050334Y-88428581D01*
X85621762Y-89428581D01*
X145603934Y-64225443D02*
X145556315Y-64273062D01*
X145413458Y-64320681D01*
X145318220Y-64320681D01*
X145175362Y-64273062D01*
X145080124Y-64177824D01*
X145032505Y-64082586D01*
X144984886Y-63892110D01*
X144984886Y-63749252D01*
X145032505Y-63558776D01*
X145080124Y-63463538D01*
X145175362Y-63368300D01*
X145318220Y-63320681D01*
X145413458Y-63320681D01*
X145556315Y-63368300D01*
X145603934Y-63415919D01*
X146175362Y-63749252D02*
X146080124Y-63701633D01*
X146032505Y-63654014D01*
X145984886Y-63558776D01*
X145984886Y-63511157D01*
X146032505Y-63415919D01*
X146080124Y-63368300D01*
X146175362Y-63320681D01*
X146365839Y-63320681D01*
X146461077Y-63368300D01*
X146508696Y-63415919D01*
X146556315Y-63511157D01*
X146556315Y-63558776D01*
X146508696Y-63654014D01*
X146461077Y-63701633D01*
X146365839Y-63749252D01*
X146175362Y-63749252D01*
X146080124Y-63796871D01*
X146032505Y-63844490D01*
X145984886Y-63939729D01*
X145984886Y-64130205D01*
X146032505Y-64225443D01*
X146080124Y-64273062D01*
X146175362Y-64320681D01*
X146365839Y-64320681D01*
X146461077Y-64273062D01*
X146508696Y-64225443D01*
X146556315Y-64130205D01*
X146556315Y-63939729D01*
X146508696Y-63844490D01*
X146461077Y-63796871D01*
X146365839Y-63749252D01*
X79348034Y-61012343D02*
X79300415Y-61059962D01*
X79157558Y-61107581D01*
X79062320Y-61107581D01*
X78919462Y-61059962D01*
X78824224Y-60964724D01*
X78776605Y-60869486D01*
X78728986Y-60679010D01*
X78728986Y-60536152D01*
X78776605Y-60345676D01*
X78824224Y-60250438D01*
X78919462Y-60155200D01*
X79062320Y-60107581D01*
X79157558Y-60107581D01*
X79300415Y-60155200D01*
X79348034Y-60202819D01*
X79824224Y-61107581D02*
X80014700Y-61107581D01*
X80109939Y-61059962D01*
X80157558Y-61012343D01*
X80252796Y-60869486D01*
X80300415Y-60679010D01*
X80300415Y-60298057D01*
X80252796Y-60202819D01*
X80205177Y-60155200D01*
X80109939Y-60107581D01*
X79919462Y-60107581D01*
X79824224Y-60155200D01*
X79776605Y-60202819D01*
X79728986Y-60298057D01*
X79728986Y-60536152D01*
X79776605Y-60631390D01*
X79824224Y-60679010D01*
X79919462Y-60726629D01*
X80109939Y-60726629D01*
X80205177Y-60679010D01*
X80252796Y-60631390D01*
X80300415Y-60536152D01*
X63095143Y-99042457D02*
X63142762Y-99090076D01*
X63190381Y-99232933D01*
X63190381Y-99328171D01*
X63142762Y-99471029D01*
X63047524Y-99566267D01*
X62952286Y-99613886D01*
X62761810Y-99661505D01*
X62618952Y-99661505D01*
X62428476Y-99613886D01*
X62333238Y-99566267D01*
X62238000Y-99471029D01*
X62190381Y-99328171D01*
X62190381Y-99232933D01*
X62238000Y-99090076D01*
X62285619Y-99042457D01*
X63190381Y-98090076D02*
X63190381Y-98661505D01*
X63190381Y-98375791D02*
X62190381Y-98375791D01*
X62333238Y-98471029D01*
X62428476Y-98566267D01*
X62476095Y-98661505D01*
X62190381Y-97471029D02*
X62190381Y-97375790D01*
X62238000Y-97280552D01*
X62285619Y-97232933D01*
X62380857Y-97185314D01*
X62571333Y-97137695D01*
X62809429Y-97137695D01*
X62999905Y-97185314D01*
X63095143Y-97232933D01*
X63142762Y-97280552D01*
X63190381Y-97375790D01*
X63190381Y-97471029D01*
X63142762Y-97566267D01*
X63095143Y-97613886D01*
X62999905Y-97661505D01*
X62809429Y-97709124D01*
X62571333Y-97709124D01*
X62380857Y-97661505D01*
X62285619Y-97613886D01*
X62238000Y-97566267D01*
X62190381Y-97471029D01*
X84739243Y-92432143D02*
X84691624Y-92479762D01*
X84548767Y-92527381D01*
X84453529Y-92527381D01*
X84310671Y-92479762D01*
X84215433Y-92384524D01*
X84167814Y-92289286D01*
X84120195Y-92098810D01*
X84120195Y-91955952D01*
X84167814Y-91765476D01*
X84215433Y-91670238D01*
X84310671Y-91575000D01*
X84453529Y-91527381D01*
X84548767Y-91527381D01*
X84691624Y-91575000D01*
X84739243Y-91622619D01*
X85691624Y-92527381D02*
X85120195Y-92527381D01*
X85405909Y-92527381D02*
X85405909Y-91527381D01*
X85310671Y-91670238D01*
X85215433Y-91765476D01*
X85120195Y-91813095D01*
X86644005Y-92527381D02*
X86072576Y-92527381D01*
X86358290Y-92527381D02*
X86358290Y-91527381D01*
X86263052Y-91670238D01*
X86167814Y-91765476D01*
X86072576Y-91813095D01*
X59049683Y-72490603D02*
X59002064Y-72538222D01*
X58859207Y-72585841D01*
X58763969Y-72585841D01*
X58621111Y-72538222D01*
X58525873Y-72442984D01*
X58478254Y-72347746D01*
X58430635Y-72157270D01*
X58430635Y-72014412D01*
X58478254Y-71823936D01*
X58525873Y-71728698D01*
X58621111Y-71633460D01*
X58763969Y-71585841D01*
X58859207Y-71585841D01*
X59002064Y-71633460D01*
X59049683Y-71681079D01*
X60002064Y-72585841D02*
X59430635Y-72585841D01*
X59716349Y-72585841D02*
X59716349Y-71585841D01*
X59621111Y-71728698D01*
X59525873Y-71823936D01*
X59430635Y-71871555D01*
X60383016Y-71681079D02*
X60430635Y-71633460D01*
X60525873Y-71585841D01*
X60763969Y-71585841D01*
X60859207Y-71633460D01*
X60906826Y-71681079D01*
X60954445Y-71776317D01*
X60954445Y-71871555D01*
X60906826Y-72014412D01*
X60335397Y-72585841D01*
X60954445Y-72585841D01*
X129599643Y-92166357D02*
X129647262Y-92213976D01*
X129694881Y-92356833D01*
X129694881Y-92452071D01*
X129647262Y-92594929D01*
X129552024Y-92690167D01*
X129456786Y-92737786D01*
X129266310Y-92785405D01*
X129123452Y-92785405D01*
X128932976Y-92737786D01*
X128837738Y-92690167D01*
X128742500Y-92594929D01*
X128694881Y-92452071D01*
X128694881Y-92356833D01*
X128742500Y-92213976D01*
X128790119Y-92166357D01*
X129694881Y-91213976D02*
X129694881Y-91785405D01*
X129694881Y-91499691D02*
X128694881Y-91499691D01*
X128837738Y-91594929D01*
X128932976Y-91690167D01*
X128980595Y-91785405D01*
X128694881Y-90880643D02*
X128694881Y-90261595D01*
X129075833Y-90594929D01*
X129075833Y-90452071D01*
X129123452Y-90356833D01*
X129171071Y-90309214D01*
X129266310Y-90261595D01*
X129504405Y-90261595D01*
X129599643Y-90309214D01*
X129647262Y-90356833D01*
X129694881Y-90452071D01*
X129694881Y-90737786D01*
X129647262Y-90833024D01*
X129599643Y-90880643D01*
X84678283Y-95815423D02*
X84630664Y-95863042D01*
X84487807Y-95910661D01*
X84392569Y-95910661D01*
X84249711Y-95863042D01*
X84154473Y-95767804D01*
X84106854Y-95672566D01*
X84059235Y-95482090D01*
X84059235Y-95339232D01*
X84106854Y-95148756D01*
X84154473Y-95053518D01*
X84249711Y-94958280D01*
X84392569Y-94910661D01*
X84487807Y-94910661D01*
X84630664Y-94958280D01*
X84678283Y-95005899D01*
X85630664Y-95910661D02*
X85059235Y-95910661D01*
X85344949Y-95910661D02*
X85344949Y-94910661D01*
X85249711Y-95053518D01*
X85154473Y-95148756D01*
X85059235Y-95196375D01*
X86487807Y-95243994D02*
X86487807Y-95910661D01*
X86249711Y-94863042D02*
X86011616Y-95577328D01*
X86630664Y-95577328D01*
X84840843Y-99074243D02*
X84793224Y-99121862D01*
X84650367Y-99169481D01*
X84555129Y-99169481D01*
X84412271Y-99121862D01*
X84317033Y-99026624D01*
X84269414Y-98931386D01*
X84221795Y-98740910D01*
X84221795Y-98598052D01*
X84269414Y-98407576D01*
X84317033Y-98312338D01*
X84412271Y-98217100D01*
X84555129Y-98169481D01*
X84650367Y-98169481D01*
X84793224Y-98217100D01*
X84840843Y-98264719D01*
X85793224Y-99169481D02*
X85221795Y-99169481D01*
X85507509Y-99169481D02*
X85507509Y-98169481D01*
X85412271Y-98312338D01*
X85317033Y-98407576D01*
X85221795Y-98455195D01*
X86697986Y-98169481D02*
X86221795Y-98169481D01*
X86174176Y-98645671D01*
X86221795Y-98598052D01*
X86317033Y-98550433D01*
X86555129Y-98550433D01*
X86650367Y-98598052D01*
X86697986Y-98645671D01*
X86745605Y-98740910D01*
X86745605Y-98979005D01*
X86697986Y-99074243D01*
X86650367Y-99121862D01*
X86555129Y-99169481D01*
X86317033Y-99169481D01*
X86221795Y-99121862D01*
X86174176Y-99074243D01*
X128566943Y-116905043D02*
X128519324Y-116952662D01*
X128376467Y-117000281D01*
X128281229Y-117000281D01*
X128138371Y-116952662D01*
X128043133Y-116857424D01*
X127995514Y-116762186D01*
X127947895Y-116571710D01*
X127947895Y-116428852D01*
X127995514Y-116238376D01*
X128043133Y-116143138D01*
X128138371Y-116047900D01*
X128281229Y-116000281D01*
X128376467Y-116000281D01*
X128519324Y-116047900D01*
X128566943Y-116095519D01*
X129519324Y-117000281D02*
X128947895Y-117000281D01*
X129233609Y-117000281D02*
X129233609Y-116000281D01*
X129138371Y-116143138D01*
X129043133Y-116238376D01*
X128947895Y-116285995D01*
X130376467Y-116000281D02*
X130185990Y-116000281D01*
X130090752Y-116047900D01*
X130043133Y-116095519D01*
X129947895Y-116238376D01*
X129900276Y-116428852D01*
X129900276Y-116809805D01*
X129947895Y-116905043D01*
X129995514Y-116952662D01*
X130090752Y-117000281D01*
X130281229Y-117000281D01*
X130376467Y-116952662D01*
X130424086Y-116905043D01*
X130471705Y-116809805D01*
X130471705Y-116571710D01*
X130424086Y-116476471D01*
X130376467Y-116428852D01*
X130281229Y-116381233D01*
X130090752Y-116381233D01*
X129995514Y-116428852D01*
X129947895Y-116476471D01*
X129900276Y-116571710D01*
X68149743Y-75814157D02*
X68197362Y-75861776D01*
X68244981Y-76004633D01*
X68244981Y-76099871D01*
X68197362Y-76242729D01*
X68102124Y-76337967D01*
X68006886Y-76385586D01*
X67816410Y-76433205D01*
X67673552Y-76433205D01*
X67483076Y-76385586D01*
X67387838Y-76337967D01*
X67292600Y-76242729D01*
X67244981Y-76099871D01*
X67244981Y-76004633D01*
X67292600Y-75861776D01*
X67340219Y-75814157D01*
X68244981Y-74861776D02*
X68244981Y-75433205D01*
X68244981Y-75147491D02*
X67244981Y-75147491D01*
X67387838Y-75242729D01*
X67483076Y-75337967D01*
X67530695Y-75433205D01*
X67244981Y-74528443D02*
X67244981Y-73861776D01*
X68244981Y-74290348D01*
X123067843Y-80798943D02*
X123020224Y-80846562D01*
X122877367Y-80894181D01*
X122782129Y-80894181D01*
X122639271Y-80846562D01*
X122544033Y-80751324D01*
X122496414Y-80656086D01*
X122448795Y-80465610D01*
X122448795Y-80322752D01*
X122496414Y-80132276D01*
X122544033Y-80037038D01*
X122639271Y-79941800D01*
X122782129Y-79894181D01*
X122877367Y-79894181D01*
X123020224Y-79941800D01*
X123067843Y-79989419D01*
X124020224Y-80894181D02*
X123448795Y-80894181D01*
X123734509Y-80894181D02*
X123734509Y-79894181D01*
X123639271Y-80037038D01*
X123544033Y-80132276D01*
X123448795Y-80179895D01*
X124591652Y-80322752D02*
X124496414Y-80275133D01*
X124448795Y-80227514D01*
X124401176Y-80132276D01*
X124401176Y-80084657D01*
X124448795Y-79989419D01*
X124496414Y-79941800D01*
X124591652Y-79894181D01*
X124782129Y-79894181D01*
X124877367Y-79941800D01*
X124924986Y-79989419D01*
X124972605Y-80084657D01*
X124972605Y-80132276D01*
X124924986Y-80227514D01*
X124877367Y-80275133D01*
X124782129Y-80322752D01*
X124591652Y-80322752D01*
X124496414Y-80370371D01*
X124448795Y-80417990D01*
X124401176Y-80513229D01*
X124401176Y-80703705D01*
X124448795Y-80798943D01*
X124496414Y-80846562D01*
X124591652Y-80894181D01*
X124782129Y-80894181D01*
X124877367Y-80846562D01*
X124924986Y-80798943D01*
X124972605Y-80703705D01*
X124972605Y-80513229D01*
X124924986Y-80417990D01*
X124877367Y-80370371D01*
X124782129Y-80322752D01*
X118657643Y-78785957D02*
X118705262Y-78833576D01*
X118752881Y-78976433D01*
X118752881Y-79071671D01*
X118705262Y-79214529D01*
X118610024Y-79309767D01*
X118514786Y-79357386D01*
X118324310Y-79405005D01*
X118181452Y-79405005D01*
X117990976Y-79357386D01*
X117895738Y-79309767D01*
X117800500Y-79214529D01*
X117752881Y-79071671D01*
X117752881Y-78976433D01*
X117800500Y-78833576D01*
X117848119Y-78785957D01*
X118752881Y-77833576D02*
X118752881Y-78405005D01*
X118752881Y-78119291D02*
X117752881Y-78119291D01*
X117895738Y-78214529D01*
X117990976Y-78309767D01*
X118038595Y-78405005D01*
X118752881Y-77357386D02*
X118752881Y-77166910D01*
X118705262Y-77071671D01*
X118657643Y-77024052D01*
X118514786Y-76928814D01*
X118324310Y-76881195D01*
X117943357Y-76881195D01*
X117848119Y-76928814D01*
X117800500Y-76976433D01*
X117752881Y-77071671D01*
X117752881Y-77262148D01*
X117800500Y-77357386D01*
X117848119Y-77405005D01*
X117943357Y-77452624D01*
X118181452Y-77452624D01*
X118276690Y-77405005D01*
X118324310Y-77357386D01*
X118371929Y-77262148D01*
X118371929Y-77071671D01*
X118324310Y-76976433D01*
X118276690Y-76928814D01*
X118181452Y-76881195D01*
X122705905Y-145232381D02*
X122705905Y-144232381D01*
X122944000Y-144232381D01*
X123086858Y-144280000D01*
X123182096Y-144375238D01*
X123229715Y-144470476D01*
X123277334Y-144660952D01*
X123277334Y-144803810D01*
X123229715Y-144994286D01*
X123182096Y-145089524D01*
X123086858Y-145184762D01*
X122944000Y-145232381D01*
X122705905Y-145232381D01*
X124229715Y-145232381D02*
X123658286Y-145232381D01*
X123944000Y-145232381D02*
X123944000Y-144232381D01*
X123848762Y-144375238D01*
X123753524Y-144470476D01*
X123658286Y-144518095D01*
X79551305Y-145892781D02*
X79551305Y-144892781D01*
X79789400Y-144892781D01*
X79932258Y-144940400D01*
X80027496Y-145035638D01*
X80075115Y-145130876D01*
X80122734Y-145321352D01*
X80122734Y-145464210D01*
X80075115Y-145654686D01*
X80027496Y-145749924D01*
X79932258Y-145845162D01*
X79789400Y-145892781D01*
X79551305Y-145892781D01*
X80503686Y-144988019D02*
X80551305Y-144940400D01*
X80646543Y-144892781D01*
X80884639Y-144892781D01*
X80979877Y-144940400D01*
X81027496Y-144988019D01*
X81075115Y-145083257D01*
X81075115Y-145178495D01*
X81027496Y-145321352D01*
X80456067Y-145892781D01*
X81075115Y-145892781D01*
X101877905Y-147922381D02*
X101877905Y-146922381D01*
X102116000Y-146922381D01*
X102258858Y-146970000D01*
X102354096Y-147065238D01*
X102401715Y-147160476D01*
X102449334Y-147350952D01*
X102449334Y-147493810D01*
X102401715Y-147684286D01*
X102354096Y-147779524D01*
X102258858Y-147874762D01*
X102116000Y-147922381D01*
X101877905Y-147922381D01*
X102782667Y-146922381D02*
X103401715Y-146922381D01*
X103068381Y-147303333D01*
X103211239Y-147303333D01*
X103306477Y-147350952D01*
X103354096Y-147398571D01*
X103401715Y-147493810D01*
X103401715Y-147731905D01*
X103354096Y-147827143D01*
X103306477Y-147874762D01*
X103211239Y-147922381D01*
X102925524Y-147922381D01*
X102830286Y-147874762D01*
X102782667Y-147827143D01*
X115565181Y-80811595D02*
X114565181Y-80811595D01*
X114565181Y-80573500D01*
X114612800Y-80430642D01*
X114708038Y-80335404D01*
X114803276Y-80287785D01*
X114993752Y-80240166D01*
X115136610Y-80240166D01*
X115327086Y-80287785D01*
X115422324Y-80335404D01*
X115517562Y-80430642D01*
X115565181Y-80573500D01*
X115565181Y-80811595D01*
X114898514Y-79383023D02*
X115565181Y-79383023D01*
X114517562Y-79621119D02*
X115231848Y-79859214D01*
X115231848Y-79240166D01*
X133624581Y-102503195D02*
X132624581Y-102503195D01*
X132624581Y-102265100D01*
X132672200Y-102122242D01*
X132767438Y-102027004D01*
X132862676Y-101979385D01*
X133053152Y-101931766D01*
X133196010Y-101931766D01*
X133386486Y-101979385D01*
X133481724Y-102027004D01*
X133576962Y-102122242D01*
X133624581Y-102265100D01*
X133624581Y-102503195D01*
X132624581Y-101027004D02*
X132624581Y-101503195D01*
X133100771Y-101550814D01*
X133053152Y-101503195D01*
X133005533Y-101407957D01*
X133005533Y-101169861D01*
X133053152Y-101074623D01*
X133100771Y-101027004D01*
X133196010Y-100979385D01*
X133434105Y-100979385D01*
X133529343Y-101027004D01*
X133576962Y-101074623D01*
X133624581Y-101169861D01*
X133624581Y-101407957D01*
X133576962Y-101503195D01*
X133529343Y-101550814D01*
X56748667Y-137790381D02*
X56748667Y-138504667D01*
X56701047Y-138647524D01*
X56605809Y-138742762D01*
X56462952Y-138790381D01*
X56367714Y-138790381D01*
X57748667Y-138790381D02*
X57177238Y-138790381D01*
X57462952Y-138790381D02*
X57462952Y-137790381D01*
X57367714Y-137933238D01*
X57272476Y-138028476D01*
X57177238Y-138076095D01*
X62190381Y-119205333D02*
X62904667Y-119205333D01*
X63047524Y-119252953D01*
X63142762Y-119348191D01*
X63190381Y-119491048D01*
X63190381Y-119586286D01*
X62285619Y-118776762D02*
X62238000Y-118729143D01*
X62190381Y-118633905D01*
X62190381Y-118395809D01*
X62238000Y-118300571D01*
X62285619Y-118252952D01*
X62380857Y-118205333D01*
X62476095Y-118205333D01*
X62618952Y-118252952D01*
X63190381Y-118824381D01*
X63190381Y-118205333D01*
X64182667Y-120102381D02*
X64182667Y-120816667D01*
X64135047Y-120959524D01*
X64039809Y-121054762D01*
X63896952Y-121102381D01*
X63801714Y-121102381D01*
X64563619Y-120102381D02*
X65182667Y-120102381D01*
X64849333Y-120483333D01*
X64992191Y-120483333D01*
X65087429Y-120530952D01*
X65135048Y-120578571D01*
X65182667Y-120673810D01*
X65182667Y-120911905D01*
X65135048Y-121007143D01*
X65087429Y-121054762D01*
X64992191Y-121102381D01*
X64706476Y-121102381D01*
X64611238Y-121054762D01*
X64563619Y-121007143D01*
X64436667Y-114768381D02*
X64436667Y-115482667D01*
X64389047Y-115625524D01*
X64293809Y-115720762D01*
X64150952Y-115768381D01*
X64055714Y-115768381D01*
X65341429Y-115101714D02*
X65341429Y-115768381D01*
X65103333Y-114720762D02*
X64865238Y-115435048D01*
X65484286Y-115435048D01*
X64208067Y-61060081D02*
X64208067Y-61774367D01*
X64160447Y-61917224D01*
X64065209Y-62012462D01*
X63922352Y-62060081D01*
X63827114Y-62060081D01*
X64589019Y-61060081D02*
X65255686Y-61060081D01*
X64827114Y-62060081D01*
X134439067Y-61060081D02*
X134439067Y-61774367D01*
X134391447Y-61917224D01*
X134296209Y-62012462D01*
X134153352Y-62060081D01*
X134058114Y-62060081D01*
X135058114Y-61488652D02*
X134962876Y-61441033D01*
X134915257Y-61393414D01*
X134867638Y-61298176D01*
X134867638Y-61250557D01*
X134915257Y-61155319D01*
X134962876Y-61107700D01*
X135058114Y-61060081D01*
X135248591Y-61060081D01*
X135343829Y-61107700D01*
X135391448Y-61155319D01*
X135439067Y-61250557D01*
X135439067Y-61298176D01*
X135391448Y-61393414D01*
X135343829Y-61441033D01*
X135248591Y-61488652D01*
X135058114Y-61488652D01*
X134962876Y-61536271D01*
X134915257Y-61583890D01*
X134867638Y-61679129D01*
X134867638Y-61869605D01*
X134915257Y-61964843D01*
X134962876Y-62012462D01*
X135058114Y-62060081D01*
X135248591Y-62060081D01*
X135343829Y-62012462D01*
X135391448Y-61964843D01*
X135439067Y-61869605D01*
X135439067Y-61679129D01*
X135391448Y-61583890D01*
X135343829Y-61536271D01*
X135248591Y-61488652D01*
X82470667Y-132548381D02*
X82470667Y-133262667D01*
X82423047Y-133405524D01*
X82327809Y-133500762D01*
X82184952Y-133548381D01*
X82089714Y-133548381D01*
X82994476Y-133548381D02*
X83184952Y-133548381D01*
X83280191Y-133500762D01*
X83327810Y-133453143D01*
X83423048Y-133310286D01*
X83470667Y-133119810D01*
X83470667Y-132738857D01*
X83423048Y-132643619D01*
X83375429Y-132596000D01*
X83280191Y-132548381D01*
X83089714Y-132548381D01*
X82994476Y-132596000D01*
X82946857Y-132643619D01*
X82899238Y-132738857D01*
X82899238Y-132976952D01*
X82946857Y-133072190D01*
X82994476Y-133119810D01*
X83089714Y-133167429D01*
X83280191Y-133167429D01*
X83375429Y-133119810D01*
X83423048Y-133072190D01*
X83470667Y-132976952D01*
X52784477Y-51268381D02*
X52784477Y-51982667D01*
X52736857Y-52125524D01*
X52641619Y-52220762D01*
X52498762Y-52268381D01*
X52403524Y-52268381D01*
X53784477Y-52268381D02*
X53213048Y-52268381D01*
X53498762Y-52268381D02*
X53498762Y-51268381D01*
X53403524Y-51411238D01*
X53308286Y-51506476D01*
X53213048Y-51554095D01*
X54736858Y-52268381D02*
X54165429Y-52268381D01*
X54451143Y-52268381D02*
X54451143Y-51268381D01*
X54355905Y-51411238D01*
X54260667Y-51506476D01*
X54165429Y-51554095D01*
X144986477Y-51268381D02*
X144986477Y-51982667D01*
X144938857Y-52125524D01*
X144843619Y-52220762D01*
X144700762Y-52268381D01*
X144605524Y-52268381D01*
X145986477Y-52268381D02*
X145415048Y-52268381D01*
X145700762Y-52268381D02*
X145700762Y-51268381D01*
X145605524Y-51411238D01*
X145510286Y-51506476D01*
X145415048Y-51554095D01*
X146367429Y-51363619D02*
X146415048Y-51316000D01*
X146510286Y-51268381D01*
X146748382Y-51268381D01*
X146843620Y-51316000D01*
X146891239Y-51363619D01*
X146938858Y-51458857D01*
X146938858Y-51554095D01*
X146891239Y-51696952D01*
X146319810Y-52268381D01*
X146938858Y-52268381D01*
X81740477Y-126452381D02*
X81740477Y-127166667D01*
X81692857Y-127309524D01*
X81597619Y-127404762D01*
X81454762Y-127452381D01*
X81359524Y-127452381D01*
X82740477Y-127452381D02*
X82169048Y-127452381D01*
X82454762Y-127452381D02*
X82454762Y-126452381D01*
X82359524Y-126595238D01*
X82264286Y-126690476D01*
X82169048Y-126738095D01*
X83073810Y-126452381D02*
X83692858Y-126452381D01*
X83359524Y-126833333D01*
X83502382Y-126833333D01*
X83597620Y-126880952D01*
X83645239Y-126928571D01*
X83692858Y-127023810D01*
X83692858Y-127261905D01*
X83645239Y-127357143D01*
X83597620Y-127404762D01*
X83502382Y-127452381D01*
X83216667Y-127452381D01*
X83121429Y-127404762D01*
X83073810Y-127357143D01*
X144986477Y-142454381D02*
X144986477Y-143168667D01*
X144938857Y-143311524D01*
X144843619Y-143406762D01*
X144700762Y-143454381D01*
X144605524Y-143454381D01*
X145986477Y-143454381D02*
X145415048Y-143454381D01*
X145700762Y-143454381D02*
X145700762Y-142454381D01*
X145605524Y-142597238D01*
X145510286Y-142692476D01*
X145415048Y-142740095D01*
X146843620Y-142787714D02*
X146843620Y-143454381D01*
X146605524Y-142406762D02*
X146367429Y-143121048D01*
X146986477Y-143121048D01*
X52784477Y-142454381D02*
X52784477Y-143168667D01*
X52736857Y-143311524D01*
X52641619Y-143406762D01*
X52498762Y-143454381D01*
X52403524Y-143454381D01*
X53784477Y-143454381D02*
X53213048Y-143454381D01*
X53498762Y-143454381D02*
X53498762Y-142454381D01*
X53403524Y-142597238D01*
X53308286Y-142692476D01*
X53213048Y-142740095D01*
X54689239Y-142454381D02*
X54213048Y-142454381D01*
X54165429Y-142930571D01*
X54213048Y-142882952D01*
X54308286Y-142835333D01*
X54546382Y-142835333D01*
X54641620Y-142882952D01*
X54689239Y-142930571D01*
X54736858Y-143025810D01*
X54736858Y-143263905D01*
X54689239Y-143359143D01*
X54641620Y-143406762D01*
X54546382Y-143454381D01*
X54308286Y-143454381D01*
X54213048Y-143406762D01*
X54165429Y-143359143D01*
X81740477Y-119848381D02*
X81740477Y-120562667D01*
X81692857Y-120705524D01*
X81597619Y-120800762D01*
X81454762Y-120848381D01*
X81359524Y-120848381D01*
X82740477Y-120848381D02*
X82169048Y-120848381D01*
X82454762Y-120848381D02*
X82454762Y-119848381D01*
X82359524Y-119991238D01*
X82264286Y-120086476D01*
X82169048Y-120134095D01*
X83597620Y-119848381D02*
X83407143Y-119848381D01*
X83311905Y-119896000D01*
X83264286Y-119943619D01*
X83169048Y-120086476D01*
X83121429Y-120276952D01*
X83121429Y-120657905D01*
X83169048Y-120753143D01*
X83216667Y-120800762D01*
X83311905Y-120848381D01*
X83502382Y-120848381D01*
X83597620Y-120800762D01*
X83645239Y-120753143D01*
X83692858Y-120657905D01*
X83692858Y-120419810D01*
X83645239Y-120324571D01*
X83597620Y-120276952D01*
X83502382Y-120229333D01*
X83311905Y-120229333D01*
X83216667Y-120276952D01*
X83169048Y-120324571D01*
X83121429Y-120419810D01*
X81994477Y-113244381D02*
X81994477Y-113958667D01*
X81946857Y-114101524D01*
X81851619Y-114196762D01*
X81708762Y-114244381D01*
X81613524Y-114244381D01*
X82994477Y-114244381D02*
X82423048Y-114244381D01*
X82708762Y-114244381D02*
X82708762Y-113244381D01*
X82613524Y-113387238D01*
X82518286Y-113482476D01*
X82423048Y-113530095D01*
X83565905Y-113672952D02*
X83470667Y-113625333D01*
X83423048Y-113577714D01*
X83375429Y-113482476D01*
X83375429Y-113434857D01*
X83423048Y-113339619D01*
X83470667Y-113292000D01*
X83565905Y-113244381D01*
X83756382Y-113244381D01*
X83851620Y-113292000D01*
X83899239Y-113339619D01*
X83946858Y-113434857D01*
X83946858Y-113482476D01*
X83899239Y-113577714D01*
X83851620Y-113625333D01*
X83756382Y-113672952D01*
X83565905Y-113672952D01*
X83470667Y-113720571D01*
X83423048Y-113768190D01*
X83375429Y-113863429D01*
X83375429Y-114053905D01*
X83423048Y-114149143D01*
X83470667Y-114196762D01*
X83565905Y-114244381D01*
X83756382Y-114244381D01*
X83851620Y-114196762D01*
X83899239Y-114149143D01*
X83946858Y-114053905D01*
X83946858Y-113863429D01*
X83899239Y-113768190D01*
X83851620Y-113720571D01*
X83756382Y-113672952D01*
X128198667Y-122598381D02*
X128198667Y-123312667D01*
X128151047Y-123455524D01*
X128055809Y-123550762D01*
X127912952Y-123598381D01*
X127817714Y-123598381D01*
X128674857Y-123598381D02*
X128674857Y-122598381D01*
X129055810Y-122598381D01*
X129151048Y-122646000D01*
X129198667Y-122693619D01*
X129246286Y-122788857D01*
X129246286Y-122931714D01*
X129198667Y-123026952D01*
X129151048Y-123074571D01*
X129055810Y-123122190D01*
X128674857Y-123122190D01*
X130198667Y-123598381D02*
X129627238Y-123598381D01*
X129912952Y-123598381D02*
X129912952Y-122598381D01*
X129817714Y-122741238D01*
X129722476Y-122836476D01*
X129627238Y-122884095D01*
X143601891Y-119086381D02*
X143792368Y-119086381D01*
X143887606Y-119134000D01*
X143982844Y-119229238D01*
X144030463Y-119419714D01*
X144030463Y-119753048D01*
X143982844Y-119943524D01*
X143887606Y-120038762D01*
X143792368Y-120086381D01*
X143601891Y-120086381D01*
X143506653Y-120038762D01*
X143411415Y-119943524D01*
X143363796Y-119753048D01*
X143363796Y-119419714D01*
X143411415Y-119229238D01*
X143506653Y-119134000D01*
X143601891Y-119086381D01*
X144459034Y-120086381D02*
X144459034Y-119086381D01*
X144839987Y-119086381D01*
X144935225Y-119134000D01*
X144982844Y-119181619D01*
X145030463Y-119276857D01*
X145030463Y-119419714D01*
X144982844Y-119514952D01*
X144935225Y-119562571D01*
X144839987Y-119610190D01*
X144459034Y-119610190D01*
X145982844Y-120086381D02*
X145411415Y-120086381D01*
X145697129Y-120086381D02*
X145697129Y-119086381D01*
X145601891Y-119229238D01*
X145506653Y-119324476D01*
X145411415Y-119372095D01*
X124364762Y-122975619D02*
X124269524Y-122928000D01*
X124174286Y-122832762D01*
X124031429Y-122689905D01*
X123936190Y-122642286D01*
X123840952Y-122642286D01*
X123888571Y-122880381D02*
X123793333Y-122832762D01*
X123698095Y-122737524D01*
X123650476Y-122547048D01*
X123650476Y-122213714D01*
X123698095Y-122023238D01*
X123793333Y-121928000D01*
X123888571Y-121880381D01*
X124079048Y-121880381D01*
X124174286Y-121928000D01*
X124269524Y-122023238D01*
X124317143Y-122213714D01*
X124317143Y-122547048D01*
X124269524Y-122737524D01*
X124174286Y-122832762D01*
X124079048Y-122880381D01*
X123888571Y-122880381D01*
X125269524Y-122880381D02*
X124698095Y-122880381D01*
X124983809Y-122880381D02*
X124983809Y-121880381D01*
X124888571Y-122023238D01*
X124793333Y-122118476D01*
X124698095Y-122166095D01*
X117768619Y-119602238D02*
X117721000Y-119697476D01*
X117625762Y-119792714D01*
X117482905Y-119935571D01*
X117435286Y-120030810D01*
X117435286Y-120126048D01*
X117673381Y-120078429D02*
X117625762Y-120173667D01*
X117530524Y-120268905D01*
X117340048Y-120316524D01*
X117006714Y-120316524D01*
X116816238Y-120268905D01*
X116721000Y-120173667D01*
X116673381Y-120078429D01*
X116673381Y-119887952D01*
X116721000Y-119792714D01*
X116816238Y-119697476D01*
X117006714Y-119649857D01*
X117340048Y-119649857D01*
X117530524Y-119697476D01*
X117625762Y-119792714D01*
X117673381Y-119887952D01*
X117673381Y-120078429D01*
X116768619Y-119268905D02*
X116721000Y-119221286D01*
X116673381Y-119126048D01*
X116673381Y-118887952D01*
X116721000Y-118792714D01*
X116768619Y-118745095D01*
X116863857Y-118697476D01*
X116959095Y-118697476D01*
X117101952Y-118745095D01*
X117673381Y-119316524D01*
X117673381Y-118697476D01*
X135925619Y-126079238D02*
X135878000Y-126174476D01*
X135782762Y-126269714D01*
X135639905Y-126412571D01*
X135592286Y-126507810D01*
X135592286Y-126603048D01*
X135830381Y-126555429D02*
X135782762Y-126650667D01*
X135687524Y-126745905D01*
X135497048Y-126793524D01*
X135163714Y-126793524D01*
X134973238Y-126745905D01*
X134878000Y-126650667D01*
X134830381Y-126555429D01*
X134830381Y-126364952D01*
X134878000Y-126269714D01*
X134973238Y-126174476D01*
X135163714Y-126126857D01*
X135497048Y-126126857D01*
X135687524Y-126174476D01*
X135782762Y-126269714D01*
X135830381Y-126364952D01*
X135830381Y-126555429D01*
X134830381Y-125793524D02*
X134830381Y-125174476D01*
X135211333Y-125507810D01*
X135211333Y-125364952D01*
X135258952Y-125269714D01*
X135306571Y-125222095D01*
X135401810Y-125174476D01*
X135639905Y-125174476D01*
X135735143Y-125222095D01*
X135782762Y-125269714D01*
X135830381Y-125364952D01*
X135830381Y-125650667D01*
X135782762Y-125745905D01*
X135735143Y-125793524D01*
X128176281Y-73953666D02*
X127700090Y-74287000D01*
X128176281Y-74525095D02*
X127176281Y-74525095D01*
X127176281Y-74144142D01*
X127223900Y-74048904D01*
X127271519Y-74001285D01*
X127366757Y-73953666D01*
X127509614Y-73953666D01*
X127604852Y-74001285D01*
X127652471Y-74048904D01*
X127700090Y-74144142D01*
X127700090Y-74525095D01*
X128176281Y-73001285D02*
X128176281Y-73572714D01*
X128176281Y-73287000D02*
X127176281Y-73287000D01*
X127319138Y-73382238D01*
X127414376Y-73477476D01*
X127461995Y-73572714D01*
X68895934Y-68300861D02*
X68562600Y-67824670D01*
X68324505Y-68300861D02*
X68324505Y-67300861D01*
X68705458Y-67300861D01*
X68800696Y-67348480D01*
X68848315Y-67396099D01*
X68895934Y-67491337D01*
X68895934Y-67634194D01*
X68848315Y-67729432D01*
X68800696Y-67777051D01*
X68705458Y-67824670D01*
X68324505Y-67824670D01*
X69276886Y-67396099D02*
X69324505Y-67348480D01*
X69419743Y-67300861D01*
X69657839Y-67300861D01*
X69753077Y-67348480D01*
X69800696Y-67396099D01*
X69848315Y-67491337D01*
X69848315Y-67586575D01*
X69800696Y-67729432D01*
X69229267Y-68300861D01*
X69848315Y-68300861D01*
X117368581Y-102300066D02*
X116892390Y-102633400D01*
X117368581Y-102871495D02*
X116368581Y-102871495D01*
X116368581Y-102490542D01*
X116416200Y-102395304D01*
X116463819Y-102347685D01*
X116559057Y-102300066D01*
X116701914Y-102300066D01*
X116797152Y-102347685D01*
X116844771Y-102395304D01*
X116892390Y-102490542D01*
X116892390Y-102871495D01*
X116368581Y-101966733D02*
X116368581Y-101347685D01*
X116749533Y-101681019D01*
X116749533Y-101538161D01*
X116797152Y-101442923D01*
X116844771Y-101395304D01*
X116940010Y-101347685D01*
X117178105Y-101347685D01*
X117273343Y-101395304D01*
X117320962Y-101442923D01*
X117368581Y-101538161D01*
X117368581Y-101823876D01*
X117320962Y-101919114D01*
X117273343Y-101966733D01*
X121512034Y-136863081D02*
X121178700Y-136386890D01*
X120940605Y-136863081D02*
X120940605Y-135863081D01*
X121321558Y-135863081D01*
X121416796Y-135910700D01*
X121464415Y-135958319D01*
X121512034Y-136053557D01*
X121512034Y-136196414D01*
X121464415Y-136291652D01*
X121416796Y-136339271D01*
X121321558Y-136386890D01*
X120940605Y-136386890D01*
X122416796Y-135863081D02*
X121940605Y-135863081D01*
X121892986Y-136339271D01*
X121940605Y-136291652D01*
X122035843Y-136244033D01*
X122273939Y-136244033D01*
X122369177Y-136291652D01*
X122416796Y-136339271D01*
X122464415Y-136434510D01*
X122464415Y-136672605D01*
X122416796Y-136767843D01*
X122369177Y-136815462D01*
X122273939Y-136863081D01*
X122035843Y-136863081D01*
X121940605Y-136815462D01*
X121892986Y-136767843D01*
X76490534Y-86063081D02*
X76157200Y-85586890D01*
X75919105Y-86063081D02*
X75919105Y-85063081D01*
X76300058Y-85063081D01*
X76395296Y-85110700D01*
X76442915Y-85158319D01*
X76490534Y-85253557D01*
X76490534Y-85396414D01*
X76442915Y-85491652D01*
X76395296Y-85539271D01*
X76300058Y-85586890D01*
X75919105Y-85586890D01*
X77347677Y-85063081D02*
X77157200Y-85063081D01*
X77061962Y-85110700D01*
X77014343Y-85158319D01*
X76919105Y-85301176D01*
X76871486Y-85491652D01*
X76871486Y-85872605D01*
X76919105Y-85967843D01*
X76966724Y-86015462D01*
X77061962Y-86063081D01*
X77252439Y-86063081D01*
X77347677Y-86015462D01*
X77395296Y-85967843D01*
X77442915Y-85872605D01*
X77442915Y-85634510D01*
X77395296Y-85539271D01*
X77347677Y-85491652D01*
X77252439Y-85444033D01*
X77061962Y-85444033D01*
X76966724Y-85491652D01*
X76919105Y-85539271D01*
X76871486Y-85634510D01*
X143330634Y-67609981D02*
X142997300Y-67133790D01*
X142759205Y-67609981D02*
X142759205Y-66609981D01*
X143140158Y-66609981D01*
X143235396Y-66657600D01*
X143283015Y-66705219D01*
X143330634Y-66800457D01*
X143330634Y-66943314D01*
X143283015Y-67038552D01*
X143235396Y-67086171D01*
X143140158Y-67133790D01*
X142759205Y-67133790D01*
X143663967Y-66609981D02*
X144330634Y-66609981D01*
X143902062Y-67609981D01*
X86304381Y-64581066D02*
X85828190Y-64914400D01*
X86304381Y-65152495D02*
X85304381Y-65152495D01*
X85304381Y-64771542D01*
X85352000Y-64676304D01*
X85399619Y-64628685D01*
X85494857Y-64581066D01*
X85637714Y-64581066D01*
X85732952Y-64628685D01*
X85780571Y-64676304D01*
X85828190Y-64771542D01*
X85828190Y-65152495D01*
X85732952Y-64009638D02*
X85685333Y-64104876D01*
X85637714Y-64152495D01*
X85542476Y-64200114D01*
X85494857Y-64200114D01*
X85399619Y-64152495D01*
X85352000Y-64104876D01*
X85304381Y-64009638D01*
X85304381Y-63819161D01*
X85352000Y-63723923D01*
X85399619Y-63676304D01*
X85494857Y-63628685D01*
X85542476Y-63628685D01*
X85637714Y-63676304D01*
X85685333Y-63723923D01*
X85732952Y-63819161D01*
X85732952Y-64009638D01*
X85780571Y-64104876D01*
X85828190Y-64152495D01*
X85923429Y-64200114D01*
X86113905Y-64200114D01*
X86209143Y-64152495D01*
X86256762Y-64104876D01*
X86304381Y-64009638D01*
X86304381Y-63819161D01*
X86256762Y-63723923D01*
X86209143Y-63676304D01*
X86113905Y-63628685D01*
X85923429Y-63628685D01*
X85828190Y-63676304D01*
X85780571Y-63723923D01*
X85732952Y-63819161D01*
X74509334Y-129598681D02*
X74176000Y-129122490D01*
X73937905Y-129598681D02*
X73937905Y-128598681D01*
X74318858Y-128598681D01*
X74414096Y-128646300D01*
X74461715Y-128693919D01*
X74509334Y-128789157D01*
X74509334Y-128932014D01*
X74461715Y-129027252D01*
X74414096Y-129074871D01*
X74318858Y-129122490D01*
X73937905Y-129122490D01*
X74985524Y-129598681D02*
X75176000Y-129598681D01*
X75271239Y-129551062D01*
X75318858Y-129503443D01*
X75414096Y-129360586D01*
X75461715Y-129170110D01*
X75461715Y-128789157D01*
X75414096Y-128693919D01*
X75366477Y-128646300D01*
X75271239Y-128598681D01*
X75080762Y-128598681D01*
X74985524Y-128646300D01*
X74937905Y-128693919D01*
X74890286Y-128789157D01*
X74890286Y-129027252D01*
X74937905Y-129122490D01*
X74985524Y-129170110D01*
X75080762Y-129217729D01*
X75271239Y-129217729D01*
X75366477Y-129170110D01*
X75414096Y-129122490D01*
X75461715Y-129027252D01*
X73804543Y-116771681D02*
X73471209Y-116295490D01*
X73233114Y-116771681D02*
X73233114Y-115771681D01*
X73614067Y-115771681D01*
X73709305Y-115819300D01*
X73756924Y-115866919D01*
X73804543Y-115962157D01*
X73804543Y-116105014D01*
X73756924Y-116200252D01*
X73709305Y-116247871D01*
X73614067Y-116295490D01*
X73233114Y-116295490D01*
X74756924Y-116771681D02*
X74185495Y-116771681D01*
X74471209Y-116771681D02*
X74471209Y-115771681D01*
X74375971Y-115914538D01*
X74280733Y-116009776D01*
X74185495Y-116057395D01*
X75709305Y-116771681D02*
X75137876Y-116771681D01*
X75423590Y-116771681D02*
X75423590Y-115771681D01*
X75328352Y-115914538D01*
X75233114Y-116009776D01*
X75137876Y-116057395D01*
X90127081Y-139796757D02*
X89650890Y-140130091D01*
X90127081Y-140368186D02*
X89127081Y-140368186D01*
X89127081Y-139987233D01*
X89174700Y-139891995D01*
X89222319Y-139844376D01*
X89317557Y-139796757D01*
X89460414Y-139796757D01*
X89555652Y-139844376D01*
X89603271Y-139891995D01*
X89650890Y-139987233D01*
X89650890Y-140368186D01*
X90127081Y-138844376D02*
X90127081Y-139415805D01*
X90127081Y-139130091D02*
X89127081Y-139130091D01*
X89269938Y-139225329D01*
X89365176Y-139320567D01*
X89412795Y-139415805D01*
X89222319Y-138463424D02*
X89174700Y-138415805D01*
X89127081Y-138320567D01*
X89127081Y-138082471D01*
X89174700Y-137987233D01*
X89222319Y-137939614D01*
X89317557Y-137891995D01*
X89412795Y-137891995D01*
X89555652Y-137939614D01*
X90127081Y-138511043D01*
X90127081Y-137891995D01*
X98102681Y-141117557D02*
X97626490Y-141450891D01*
X98102681Y-141688986D02*
X97102681Y-141688986D01*
X97102681Y-141308033D01*
X97150300Y-141212795D01*
X97197919Y-141165176D01*
X97293157Y-141117557D01*
X97436014Y-141117557D01*
X97531252Y-141165176D01*
X97578871Y-141212795D01*
X97626490Y-141308033D01*
X97626490Y-141688986D01*
X98102681Y-140165176D02*
X98102681Y-140736605D01*
X98102681Y-140450891D02*
X97102681Y-140450891D01*
X97245538Y-140546129D01*
X97340776Y-140641367D01*
X97388395Y-140736605D01*
X97102681Y-139831843D02*
X97102681Y-139212795D01*
X97483633Y-139546129D01*
X97483633Y-139403271D01*
X97531252Y-139308033D01*
X97578871Y-139260414D01*
X97674110Y-139212795D01*
X97912205Y-139212795D01*
X98007443Y-139260414D01*
X98055062Y-139308033D01*
X98102681Y-139403271D01*
X98102681Y-139688986D01*
X98055062Y-139784224D01*
X98007443Y-139831843D01*
X111523543Y-130728981D02*
X111190209Y-130252790D01*
X110952114Y-130728981D02*
X110952114Y-129728981D01*
X111333067Y-129728981D01*
X111428305Y-129776600D01*
X111475924Y-129824219D01*
X111523543Y-129919457D01*
X111523543Y-130062314D01*
X111475924Y-130157552D01*
X111428305Y-130205171D01*
X111333067Y-130252790D01*
X110952114Y-130252790D01*
X112475924Y-130728981D02*
X111904495Y-130728981D01*
X112190209Y-130728981D02*
X112190209Y-129728981D01*
X112094971Y-129871838D01*
X111999733Y-129967076D01*
X111904495Y-130014695D01*
X113333067Y-130062314D02*
X113333067Y-130728981D01*
X113094971Y-129681362D02*
X112856876Y-130395648D01*
X113475924Y-130395648D01*
X115260381Y-119832357D02*
X114784190Y-120165691D01*
X115260381Y-120403786D02*
X114260381Y-120403786D01*
X114260381Y-120022833D01*
X114308000Y-119927595D01*
X114355619Y-119879976D01*
X114450857Y-119832357D01*
X114593714Y-119832357D01*
X114688952Y-119879976D01*
X114736571Y-119927595D01*
X114784190Y-120022833D01*
X114784190Y-120403786D01*
X115260381Y-118879976D02*
X115260381Y-119451405D01*
X115260381Y-119165691D02*
X114260381Y-119165691D01*
X114403238Y-119260929D01*
X114498476Y-119356167D01*
X114546095Y-119451405D01*
X114260381Y-117975214D02*
X114260381Y-118451405D01*
X114736571Y-118499024D01*
X114688952Y-118451405D01*
X114641333Y-118356167D01*
X114641333Y-118118071D01*
X114688952Y-118022833D01*
X114736571Y-117975214D01*
X114831810Y-117927595D01*
X115069905Y-117927595D01*
X115165143Y-117975214D01*
X115212762Y-118022833D01*
X115260381Y-118118071D01*
X115260381Y-118356167D01*
X115212762Y-118451405D01*
X115165143Y-118499024D01*
X121429543Y-131084581D02*
X121096209Y-130608390D01*
X120858114Y-131084581D02*
X120858114Y-130084581D01*
X121239067Y-130084581D01*
X121334305Y-130132200D01*
X121381924Y-130179819D01*
X121429543Y-130275057D01*
X121429543Y-130417914D01*
X121381924Y-130513152D01*
X121334305Y-130560771D01*
X121239067Y-130608390D01*
X120858114Y-130608390D01*
X122381924Y-131084581D02*
X121810495Y-131084581D01*
X122096209Y-131084581D02*
X122096209Y-130084581D01*
X122000971Y-130227438D01*
X121905733Y-130322676D01*
X121810495Y-130370295D01*
X123239067Y-130084581D02*
X123048590Y-130084581D01*
X122953352Y-130132200D01*
X122905733Y-130179819D01*
X122810495Y-130322676D01*
X122762876Y-130513152D01*
X122762876Y-130894105D01*
X122810495Y-130989343D01*
X122858114Y-131036962D01*
X122953352Y-131084581D01*
X123143829Y-131084581D01*
X123239067Y-131036962D01*
X123286686Y-130989343D01*
X123334305Y-130894105D01*
X123334305Y-130656010D01*
X123286686Y-130560771D01*
X123239067Y-130513152D01*
X123143829Y-130465533D01*
X122953352Y-130465533D01*
X122858114Y-130513152D01*
X122810495Y-130560771D01*
X122762876Y-130656010D01*
X127106443Y-120454681D02*
X126773109Y-119978490D01*
X126535014Y-120454681D02*
X126535014Y-119454681D01*
X126915967Y-119454681D01*
X127011205Y-119502300D01*
X127058824Y-119549919D01*
X127106443Y-119645157D01*
X127106443Y-119788014D01*
X127058824Y-119883252D01*
X127011205Y-119930871D01*
X126915967Y-119978490D01*
X126535014Y-119978490D01*
X128058824Y-120454681D02*
X127487395Y-120454681D01*
X127773109Y-120454681D02*
X127773109Y-119454681D01*
X127677871Y-119597538D01*
X127582633Y-119692776D01*
X127487395Y-119740395D01*
X128392157Y-119454681D02*
X129058824Y-119454681D01*
X128630252Y-120454681D01*
X135348743Y-131109981D02*
X135015409Y-130633790D01*
X134777314Y-131109981D02*
X134777314Y-130109981D01*
X135158267Y-130109981D01*
X135253505Y-130157600D01*
X135301124Y-130205219D01*
X135348743Y-130300457D01*
X135348743Y-130443314D01*
X135301124Y-130538552D01*
X135253505Y-130586171D01*
X135158267Y-130633790D01*
X134777314Y-130633790D01*
X136301124Y-131109981D02*
X135729695Y-131109981D01*
X136015409Y-131109981D02*
X136015409Y-130109981D01*
X135920171Y-130252838D01*
X135824933Y-130348076D01*
X135729695Y-130395695D01*
X136872552Y-130538552D02*
X136777314Y-130490933D01*
X136729695Y-130443314D01*
X136682076Y-130348076D01*
X136682076Y-130300457D01*
X136729695Y-130205219D01*
X136777314Y-130157600D01*
X136872552Y-130109981D01*
X137063029Y-130109981D01*
X137158267Y-130157600D01*
X137205886Y-130205219D01*
X137253505Y-130300457D01*
X137253505Y-130348076D01*
X137205886Y-130443314D01*
X137158267Y-130490933D01*
X137063029Y-130538552D01*
X136872552Y-130538552D01*
X136777314Y-130586171D01*
X136729695Y-130633790D01*
X136682076Y-130729029D01*
X136682076Y-130919505D01*
X136729695Y-131014743D01*
X136777314Y-131062362D01*
X136872552Y-131109981D01*
X137063029Y-131109981D01*
X137158267Y-131062362D01*
X137205886Y-131014743D01*
X137253505Y-130919505D01*
X137253505Y-130729029D01*
X137205886Y-130633790D01*
X137158267Y-130586171D01*
X137063029Y-130538552D01*
X135361443Y-134234181D02*
X135028109Y-133757990D01*
X134790014Y-134234181D02*
X134790014Y-133234181D01*
X135170967Y-133234181D01*
X135266205Y-133281800D01*
X135313824Y-133329419D01*
X135361443Y-133424657D01*
X135361443Y-133567514D01*
X135313824Y-133662752D01*
X135266205Y-133710371D01*
X135170967Y-133757990D01*
X134790014Y-133757990D01*
X136313824Y-134234181D02*
X135742395Y-134234181D01*
X136028109Y-134234181D02*
X136028109Y-133234181D01*
X135932871Y-133377038D01*
X135837633Y-133472276D01*
X135742395Y-133519895D01*
X136790014Y-134234181D02*
X136980490Y-134234181D01*
X137075729Y-134186562D01*
X137123348Y-134138943D01*
X137218586Y-133996086D01*
X137266205Y-133805610D01*
X137266205Y-133424657D01*
X137218586Y-133329419D01*
X137170967Y-133281800D01*
X137075729Y-133234181D01*
X136885252Y-133234181D01*
X136790014Y-133281800D01*
X136742395Y-133329419D01*
X136694776Y-133424657D01*
X136694776Y-133662752D01*
X136742395Y-133757990D01*
X136790014Y-133805610D01*
X136885252Y-133853229D01*
X137075729Y-133853229D01*
X137170967Y-133805610D01*
X137218586Y-133757990D01*
X137266205Y-133662752D01*
X128646181Y-144222078D02*
X128169990Y-144555412D01*
X128646181Y-144793507D02*
X127646181Y-144793507D01*
X127646181Y-144412554D01*
X127693800Y-144317316D01*
X127741419Y-144269697D01*
X127836657Y-144222078D01*
X127979514Y-144222078D01*
X128074752Y-144269697D01*
X128122371Y-144317316D01*
X128169990Y-144412554D01*
X128169990Y-144793507D01*
X127646181Y-143936364D02*
X128646181Y-143603031D01*
X127646181Y-143269697D01*
X128646181Y-142412554D02*
X128646181Y-142983983D01*
X128646181Y-142698269D02*
X127646181Y-142698269D01*
X127789038Y-142793507D01*
X127884276Y-142888745D01*
X127931895Y-142983983D01*
X107421941Y-143889338D02*
X106945750Y-144222672D01*
X107421941Y-144460767D02*
X106421941Y-144460767D01*
X106421941Y-144079814D01*
X106469560Y-143984576D01*
X106517179Y-143936957D01*
X106612417Y-143889338D01*
X106755274Y-143889338D01*
X106850512Y-143936957D01*
X106898131Y-143984576D01*
X106945750Y-144079814D01*
X106945750Y-144460767D01*
X106421941Y-143603624D02*
X107421941Y-143270291D01*
X106421941Y-142936957D01*
X106517179Y-142651243D02*
X106469560Y-142603624D01*
X106421941Y-142508386D01*
X106421941Y-142270290D01*
X106469560Y-142175052D01*
X106517179Y-142127433D01*
X106612417Y-142079814D01*
X106707655Y-142079814D01*
X106850512Y-142127433D01*
X107421941Y-142698862D01*
X107421941Y-142079814D01*
X86284061Y-143599778D02*
X85807870Y-143933112D01*
X86284061Y-144171207D02*
X85284061Y-144171207D01*
X85284061Y-143790254D01*
X85331680Y-143695016D01*
X85379299Y-143647397D01*
X85474537Y-143599778D01*
X85617394Y-143599778D01*
X85712632Y-143647397D01*
X85760251Y-143695016D01*
X85807870Y-143790254D01*
X85807870Y-144171207D01*
X85284061Y-143314064D02*
X86284061Y-142980731D01*
X85284061Y-142647397D01*
X85284061Y-142409302D02*
X85284061Y-141790254D01*
X85665013Y-142123588D01*
X85665013Y-141980730D01*
X85712632Y-141885492D01*
X85760251Y-141837873D01*
X85855490Y-141790254D01*
X86093585Y-141790254D01*
X86188823Y-141837873D01*
X86236442Y-141885492D01*
X86284061Y-141980730D01*
X86284061Y-142266445D01*
X86236442Y-142361683D01*
X86188823Y-142409302D01*
X63261501Y-145045038D02*
X62785310Y-145378372D01*
X63261501Y-145616467D02*
X62261501Y-145616467D01*
X62261501Y-145235514D01*
X62309120Y-145140276D01*
X62356739Y-145092657D01*
X62451977Y-145045038D01*
X62594834Y-145045038D01*
X62690072Y-145092657D01*
X62737691Y-145140276D01*
X62785310Y-145235514D01*
X62785310Y-145616467D01*
X62261501Y-144759324D02*
X63261501Y-144425991D01*
X62261501Y-144092657D01*
X62594834Y-143330752D02*
X63261501Y-143330752D01*
X62213882Y-143568848D02*
X62928168Y-143806943D01*
X62928168Y-143187895D01*
X73140667Y-139564762D02*
X73283524Y-139612381D01*
X73521620Y-139612381D01*
X73616858Y-139564762D01*
X73664477Y-139517143D01*
X73712096Y-139421905D01*
X73712096Y-139326667D01*
X73664477Y-139231429D01*
X73616858Y-139183810D01*
X73521620Y-139136190D01*
X73331143Y-139088571D01*
X73235905Y-139040952D01*
X73188286Y-138993333D01*
X73140667Y-138898095D01*
X73140667Y-138802857D01*
X73188286Y-138707619D01*
X73235905Y-138660000D01*
X73331143Y-138612381D01*
X73569239Y-138612381D01*
X73712096Y-138660000D01*
X74045429Y-138612381D02*
X74283524Y-139612381D01*
X74474001Y-138898095D01*
X74664477Y-139612381D01*
X74902572Y-138612381D01*
X75807334Y-139612381D02*
X75235905Y-139612381D01*
X75521619Y-139612381D02*
X75521619Y-138612381D01*
X75426381Y-138755238D01*
X75331143Y-138850476D01*
X75235905Y-138898095D01*
X73394667Y-127118762D02*
X73537524Y-127166381D01*
X73775620Y-127166381D01*
X73870858Y-127118762D01*
X73918477Y-127071143D01*
X73966096Y-126975905D01*
X73966096Y-126880667D01*
X73918477Y-126785429D01*
X73870858Y-126737810D01*
X73775620Y-126690190D01*
X73585143Y-126642571D01*
X73489905Y-126594952D01*
X73442286Y-126547333D01*
X73394667Y-126452095D01*
X73394667Y-126356857D01*
X73442286Y-126261619D01*
X73489905Y-126214000D01*
X73585143Y-126166381D01*
X73823239Y-126166381D01*
X73966096Y-126214000D01*
X74299429Y-126166381D02*
X74537524Y-127166381D01*
X74728001Y-126452095D01*
X74918477Y-127166381D01*
X75156572Y-126166381D01*
X75489905Y-126261619D02*
X75537524Y-126214000D01*
X75632762Y-126166381D01*
X75870858Y-126166381D01*
X75966096Y-126214000D01*
X76013715Y-126261619D01*
X76061334Y-126356857D01*
X76061334Y-126452095D01*
X76013715Y-126594952D01*
X75442286Y-127166381D01*
X76061334Y-127166381D01*
X71207381Y-75488705D02*
X72016905Y-75488705D01*
X72112143Y-75441086D01*
X72159762Y-75393467D01*
X72207381Y-75298229D01*
X72207381Y-75107752D01*
X72159762Y-75012514D01*
X72112143Y-74964895D01*
X72016905Y-74917276D01*
X71207381Y-74917276D01*
X72207381Y-73917276D02*
X72207381Y-74488705D01*
X72207381Y-74202991D02*
X71207381Y-74202991D01*
X71350238Y-74298229D01*
X71445476Y-74393467D01*
X71493095Y-74488705D01*
X122618595Y-83970881D02*
X122618595Y-84780405D01*
X122666214Y-84875643D01*
X122713833Y-84923262D01*
X122809071Y-84970881D01*
X122999548Y-84970881D01*
X123094786Y-84923262D01*
X123142405Y-84875643D01*
X123190024Y-84780405D01*
X123190024Y-83970881D01*
X123618595Y-84066119D02*
X123666214Y-84018500D01*
X123761452Y-83970881D01*
X123999548Y-83970881D01*
X124094786Y-84018500D01*
X124142405Y-84066119D01*
X124190024Y-84161357D01*
X124190024Y-84256595D01*
X124142405Y-84399452D01*
X123570976Y-84970881D01*
X124190024Y-84970881D01*
X72540381Y-103123905D02*
X73349905Y-103123905D01*
X73445143Y-103076286D01*
X73492762Y-103028667D01*
X73540381Y-102933429D01*
X73540381Y-102742952D01*
X73492762Y-102647714D01*
X73445143Y-102600095D01*
X73349905Y-102552476D01*
X72540381Y-102552476D01*
X72540381Y-102171524D02*
X72540381Y-101552476D01*
X72921333Y-101885810D01*
X72921333Y-101742952D01*
X72968952Y-101647714D01*
X73016571Y-101600095D01*
X73111810Y-101552476D01*
X73349905Y-101552476D01*
X73445143Y-101600095D01*
X73492762Y-101647714D01*
X73540381Y-101742952D01*
X73540381Y-102028667D01*
X73492762Y-102123905D01*
X73445143Y-102171524D01*
X65786095Y-88479381D02*
X65786095Y-89288905D01*
X65833714Y-89384143D01*
X65881333Y-89431762D01*
X65976571Y-89479381D01*
X66167048Y-89479381D01*
X66262286Y-89431762D01*
X66309905Y-89384143D01*
X66357524Y-89288905D01*
X66357524Y-88479381D01*
X67262286Y-88812714D02*
X67262286Y-89479381D01*
X67024190Y-88431762D02*
X66786095Y-89146048D01*
X67405143Y-89146048D01*
X100592095Y-79462381D02*
X100592095Y-80271905D01*
X100639714Y-80367143D01*
X100687333Y-80414762D01*
X100782571Y-80462381D01*
X100973048Y-80462381D01*
X101068286Y-80414762D01*
X101115905Y-80367143D01*
X101163524Y-80271905D01*
X101163524Y-79462381D01*
X101973048Y-79938571D02*
X102115905Y-79986190D01*
X102163524Y-80033810D01*
X102211143Y-80129048D01*
X102211143Y-80271905D01*
X102163524Y-80367143D01*
X102115905Y-80414762D01*
X102020667Y-80462381D01*
X101639714Y-80462381D01*
X101639714Y-79462381D01*
X101973048Y-79462381D01*
X102068286Y-79510000D01*
X102115905Y-79557619D01*
X102163524Y-79652857D01*
X102163524Y-79748095D01*
X102115905Y-79843333D01*
X102068286Y-79890952D01*
X101973048Y-79938571D01*
X101639714Y-79938571D01*
X103163524Y-80462381D02*
X102592095Y-80462381D01*
X102877809Y-80462381D02*
X102877809Y-79462381D01*
X102782571Y-79605238D01*
X102687333Y-79700476D01*
X102592095Y-79748095D01*
X96845905Y-69302381D02*
X96845905Y-69492857D01*
X97226858Y-69302381D02*
X97226858Y-69492857D01*
X98179239Y-69350000D02*
X98084001Y-69302381D01*
X97941144Y-69302381D01*
X97798286Y-69350000D01*
X97703048Y-69445238D01*
X97655429Y-69540476D01*
X97607810Y-69730952D01*
X97607810Y-69873810D01*
X97655429Y-70064286D01*
X97703048Y-70159524D01*
X97798286Y-70254762D01*
X97941144Y-70302381D01*
X98036382Y-70302381D01*
X98179239Y-70254762D01*
X98226858Y-70207143D01*
X98226858Y-69873810D01*
X98036382Y-69873810D01*
X98655429Y-69778571D02*
X98988763Y-69778571D01*
X99131620Y-70302381D02*
X98655429Y-70302381D01*
X98655429Y-69302381D01*
X99131620Y-69302381D01*
X99560191Y-70302381D02*
X99560191Y-69302381D01*
X100131620Y-70302381D01*
X100131620Y-69302381D01*
X100607810Y-69778571D02*
X100941144Y-69778571D01*
X101084001Y-70302381D02*
X100607810Y-70302381D01*
X100607810Y-69302381D01*
X101084001Y-69302381D01*
X102084001Y-70302381D02*
X101750667Y-69826190D01*
X101512572Y-70302381D02*
X101512572Y-69302381D01*
X101893525Y-69302381D01*
X101988763Y-69350000D01*
X102036382Y-69397619D01*
X102084001Y-69492857D01*
X102084001Y-69635714D01*
X102036382Y-69730952D01*
X101988763Y-69778571D01*
X101893525Y-69826190D01*
X101512572Y-69826190D01*
X102512572Y-70302381D02*
X102512572Y-69302381D01*
X103560191Y-70207143D02*
X103512572Y-70254762D01*
X103369715Y-70302381D01*
X103274477Y-70302381D01*
X103131619Y-70254762D01*
X103036381Y-70159524D01*
X102988762Y-70064286D01*
X102941143Y-69873810D01*
X102941143Y-69730952D01*
X102988762Y-69540476D01*
X103036381Y-69445238D01*
X103131619Y-69350000D01*
X103274477Y-69302381D01*
X103369715Y-69302381D01*
X103512572Y-69350000D01*
X103560191Y-69397619D01*
X103941143Y-69302381D02*
X103941143Y-69492857D01*
X104322096Y-69302381D02*
X104322096Y-69492857D01*
X94703047Y-67714762D02*
X94845904Y-67762381D01*
X95084000Y-67762381D01*
X95179238Y-67714762D01*
X95226857Y-67667143D01*
X95274476Y-67571905D01*
X95274476Y-67476667D01*
X95226857Y-67381429D01*
X95179238Y-67333810D01*
X95084000Y-67286190D01*
X94893523Y-67238571D01*
X94798285Y-67190952D01*
X94750666Y-67143333D01*
X94703047Y-67048095D01*
X94703047Y-66952857D01*
X94750666Y-66857619D01*
X94798285Y-66810000D01*
X94893523Y-66762381D01*
X95131619Y-66762381D01*
X95274476Y-66810000D01*
X95560190Y-66762381D02*
X96131619Y-66762381D01*
X95845904Y-67762381D02*
X95845904Y-66762381D01*
X96464952Y-67762381D02*
X96464952Y-66762381D01*
X96798286Y-67476667D01*
X97131619Y-66762381D01*
X97131619Y-67762381D01*
X97512571Y-66762381D02*
X98131619Y-66762381D01*
X97798285Y-67143333D01*
X97941143Y-67143333D01*
X98036381Y-67190952D01*
X98084000Y-67238571D01*
X98131619Y-67333810D01*
X98131619Y-67571905D01*
X98084000Y-67667143D01*
X98036381Y-67714762D01*
X97941143Y-67762381D01*
X97655428Y-67762381D01*
X97560190Y-67714762D01*
X97512571Y-67667143D01*
X98512571Y-66857619D02*
X98560190Y-66810000D01*
X98655428Y-66762381D01*
X98893524Y-66762381D01*
X98988762Y-66810000D01*
X99036381Y-66857619D01*
X99084000Y-66952857D01*
X99084000Y-67048095D01*
X99036381Y-67190952D01*
X98464952Y-67762381D01*
X99084000Y-67762381D01*
X99845905Y-67238571D02*
X99512571Y-67238571D01*
X99512571Y-67762381D02*
X99512571Y-66762381D01*
X99988762Y-66762381D01*
X100893524Y-67762381D02*
X100322095Y-67762381D01*
X100607809Y-67762381D02*
X100607809Y-66762381D01*
X100512571Y-66905238D01*
X100417333Y-67000476D01*
X100322095Y-67048095D01*
X101512571Y-66762381D02*
X101607810Y-66762381D01*
X101703048Y-66810000D01*
X101750667Y-66857619D01*
X101798286Y-66952857D01*
X101845905Y-67143333D01*
X101845905Y-67381429D01*
X101798286Y-67571905D01*
X101750667Y-67667143D01*
X101703048Y-67714762D01*
X101607810Y-67762381D01*
X101512571Y-67762381D01*
X101417333Y-67714762D01*
X101369714Y-67667143D01*
X101322095Y-67571905D01*
X101274476Y-67381429D01*
X101274476Y-67143333D01*
X101322095Y-66952857D01*
X101369714Y-66857619D01*
X101417333Y-66810000D01*
X101512571Y-66762381D01*
X102179238Y-66762381D02*
X102798286Y-66762381D01*
X102464952Y-67143333D01*
X102607810Y-67143333D01*
X102703048Y-67190952D01*
X102750667Y-67238571D01*
X102798286Y-67333810D01*
X102798286Y-67571905D01*
X102750667Y-67667143D01*
X102703048Y-67714762D01*
X102607810Y-67762381D01*
X102322095Y-67762381D01*
X102226857Y-67714762D01*
X102179238Y-67667143D01*
X103798286Y-67667143D02*
X103750667Y-67714762D01*
X103607810Y-67762381D01*
X103512572Y-67762381D01*
X103369714Y-67714762D01*
X103274476Y-67619524D01*
X103226857Y-67524286D01*
X103179238Y-67333810D01*
X103179238Y-67190952D01*
X103226857Y-67000476D01*
X103274476Y-66905238D01*
X103369714Y-66810000D01*
X103512572Y-66762381D01*
X103607810Y-66762381D01*
X103750667Y-66810000D01*
X103798286Y-66857619D01*
X104369714Y-67190952D02*
X104274476Y-67143333D01*
X104226857Y-67095714D01*
X104179238Y-67000476D01*
X104179238Y-66952857D01*
X104226857Y-66857619D01*
X104274476Y-66810000D01*
X104369714Y-66762381D01*
X104560191Y-66762381D01*
X104655429Y-66810000D01*
X104703048Y-66857619D01*
X104750667Y-66952857D01*
X104750667Y-67000476D01*
X104703048Y-67095714D01*
X104655429Y-67143333D01*
X104560191Y-67190952D01*
X104369714Y-67190952D01*
X104274476Y-67238571D01*
X104226857Y-67286190D01*
X104179238Y-67381429D01*
X104179238Y-67571905D01*
X104226857Y-67667143D01*
X104274476Y-67714762D01*
X104369714Y-67762381D01*
X104560191Y-67762381D01*
X104655429Y-67714762D01*
X104703048Y-67667143D01*
X104750667Y-67571905D01*
X104750667Y-67381429D01*
X104703048Y-67286190D01*
X104655429Y-67238571D01*
X104560191Y-67190952D01*
X105036381Y-66762381D02*
X105607810Y-66762381D01*
X105322095Y-67762381D02*
X105322095Y-66762381D01*
X106369715Y-66762381D02*
X106179238Y-66762381D01*
X106084000Y-66810000D01*
X106036381Y-66857619D01*
X105941143Y-67000476D01*
X105893524Y-67190952D01*
X105893524Y-67571905D01*
X105941143Y-67667143D01*
X105988762Y-67714762D01*
X106084000Y-67762381D01*
X106274477Y-67762381D01*
X106369715Y-67714762D01*
X106417334Y-67667143D01*
X106464953Y-67571905D01*
X106464953Y-67333810D01*
X106417334Y-67238571D01*
X106369715Y-67190952D01*
X106274477Y-67143333D01*
X106084000Y-67143333D01*
X105988762Y-67190952D01*
X105941143Y-67238571D01*
X105893524Y-67333810D01*
X132636023Y-67612521D02*
X132302689Y-67136330D01*
X132064594Y-67612521D02*
X132064594Y-66612521D01*
X132445547Y-66612521D01*
X132540785Y-66660140D01*
X132588404Y-66707759D01*
X132636023Y-66802997D01*
X132636023Y-66945854D01*
X132588404Y-67041092D01*
X132540785Y-67088711D01*
X132445547Y-67136330D01*
X132064594Y-67136330D01*
X133016975Y-66707759D02*
X133064594Y-66660140D01*
X133159832Y-66612521D01*
X133397928Y-66612521D01*
X133493166Y-66660140D01*
X133540785Y-66707759D01*
X133588404Y-66802997D01*
X133588404Y-66898235D01*
X133540785Y-67041092D01*
X132969356Y-67612521D01*
X133588404Y-67612521D01*
X134207451Y-66612521D02*
X134302690Y-66612521D01*
X134397928Y-66660140D01*
X134445547Y-66707759D01*
X134493166Y-66802997D01*
X134540785Y-66993473D01*
X134540785Y-67231569D01*
X134493166Y-67422045D01*
X134445547Y-67517283D01*
X134397928Y-67564902D01*
X134302690Y-67612521D01*
X134207451Y-67612521D01*
X134112213Y-67564902D01*
X134064594Y-67517283D01*
X134016975Y-67422045D01*
X133969356Y-67231569D01*
X133969356Y-66993473D01*
X134016975Y-66802997D01*
X134064594Y-66707759D01*
X134112213Y-66660140D01*
X134207451Y-66612521D01*
X122369343Y-67754761D02*
X122036009Y-67278570D01*
X121797914Y-67754761D02*
X121797914Y-66754761D01*
X122178867Y-66754761D01*
X122274105Y-66802380D01*
X122321724Y-66849999D01*
X122369343Y-66945237D01*
X122369343Y-67088094D01*
X122321724Y-67183332D01*
X122274105Y-67230951D01*
X122178867Y-67278570D01*
X121797914Y-67278570D01*
X122750295Y-66849999D02*
X122797914Y-66802380D01*
X122893152Y-66754761D01*
X123131248Y-66754761D01*
X123226486Y-66802380D01*
X123274105Y-66849999D01*
X123321724Y-66945237D01*
X123321724Y-67040475D01*
X123274105Y-67183332D01*
X122702676Y-67754761D01*
X123321724Y-67754761D01*
X124274105Y-67754761D02*
X123702676Y-67754761D01*
X123988390Y-67754761D02*
X123988390Y-66754761D01*
X123893152Y-66897618D01*
X123797914Y-66992856D01*
X123702676Y-67040475D01*
X78160643Y-64688981D02*
X77827309Y-64212790D01*
X77589214Y-64688981D02*
X77589214Y-63688981D01*
X77970167Y-63688981D01*
X78065405Y-63736600D01*
X78113024Y-63784219D01*
X78160643Y-63879457D01*
X78160643Y-64022314D01*
X78113024Y-64117552D01*
X78065405Y-64165171D01*
X77970167Y-64212790D01*
X77589214Y-64212790D01*
X78541595Y-63784219D02*
X78589214Y-63736600D01*
X78684452Y-63688981D01*
X78922548Y-63688981D01*
X79017786Y-63736600D01*
X79065405Y-63784219D01*
X79113024Y-63879457D01*
X79113024Y-63974695D01*
X79065405Y-64117552D01*
X78493976Y-64688981D01*
X79113024Y-64688981D01*
X79493976Y-63784219D02*
X79541595Y-63736600D01*
X79636833Y-63688981D01*
X79874929Y-63688981D01*
X79970167Y-63736600D01*
X80017786Y-63784219D01*
X80065405Y-63879457D01*
X80065405Y-63974695D01*
X80017786Y-64117552D01*
X79446357Y-64688981D01*
X80065405Y-64688981D01*
X113333281Y-52695433D02*
X114047567Y-52695433D01*
X114190424Y-52743053D01*
X114285662Y-52838291D01*
X114333281Y-52981148D01*
X114333281Y-53076386D01*
X113333281Y-51743052D02*
X113333281Y-52219243D01*
X113809471Y-52266862D01*
X113761852Y-52219243D01*
X113714233Y-52124005D01*
X113714233Y-51885909D01*
X113761852Y-51790671D01*
X113809471Y-51743052D01*
X113904710Y-51695433D01*
X114142805Y-51695433D01*
X114238043Y-51743052D01*
X114285662Y-51790671D01*
X114333281Y-51885909D01*
X114333281Y-52124005D01*
X114285662Y-52219243D01*
X114238043Y-52266862D01*
X86841081Y-52962133D02*
X87555367Y-52962133D01*
X87698224Y-53009753D01*
X87793462Y-53104991D01*
X87841081Y-53247848D01*
X87841081Y-53343086D01*
X86841081Y-52057371D02*
X86841081Y-52247848D01*
X86888700Y-52343086D01*
X86936319Y-52390705D01*
X87079176Y-52485943D01*
X87269652Y-52533562D01*
X87650605Y-52533562D01*
X87745843Y-52485943D01*
X87793462Y-52438324D01*
X87841081Y-52343086D01*
X87841081Y-52152609D01*
X87793462Y-52057371D01*
X87745843Y-52009752D01*
X87650605Y-51962133D01*
X87412510Y-51962133D01*
X87317271Y-52009752D01*
X87269652Y-52057371D01*
X87222033Y-52152609D01*
X87222033Y-52343086D01*
X87269652Y-52438324D01*
X87317271Y-52485943D01*
X87412510Y-52533562D01*
X60539381Y-66849523D02*
X61253667Y-66849523D01*
X61396524Y-66897143D01*
X61491762Y-66992381D01*
X61539381Y-67135238D01*
X61539381Y-67230476D01*
X61539381Y-65849523D02*
X61539381Y-66420952D01*
X61539381Y-66135238D02*
X60539381Y-66135238D01*
X60682238Y-66230476D01*
X60777476Y-66325714D01*
X60825095Y-66420952D01*
X60539381Y-65230476D02*
X60539381Y-65135237D01*
X60587000Y-65039999D01*
X60634619Y-64992380D01*
X60729857Y-64944761D01*
X60920333Y-64897142D01*
X61158429Y-64897142D01*
X61348905Y-64944761D01*
X61444143Y-64992380D01*
X61491762Y-65039999D01*
X61539381Y-65135237D01*
X61539381Y-65230476D01*
X61491762Y-65325714D01*
X61444143Y-65373333D01*
X61348905Y-65420952D01*
X61158429Y-65468571D01*
X60920333Y-65468571D01*
X60729857Y-65420952D01*
X60634619Y-65373333D01*
X60587000Y-65325714D01*
X60539381Y-65230476D01*
X142700477Y-79970381D02*
X142700477Y-80684667D01*
X142652857Y-80827524D01*
X142557619Y-80922762D01*
X142414762Y-80970381D01*
X142319524Y-80970381D01*
X143700477Y-80970381D02*
X143129048Y-80970381D01*
X143414762Y-80970381D02*
X143414762Y-79970381D01*
X143319524Y-80113238D01*
X143224286Y-80208476D01*
X143129048Y-80256095D01*
X144033810Y-79970381D02*
X144700477Y-79970381D01*
X144271905Y-80970381D01*
X145253177Y-93756681D02*
X145253177Y-94470967D01*
X145205557Y-94613824D01*
X145110319Y-94709062D01*
X144967462Y-94756681D01*
X144872224Y-94756681D01*
X146253177Y-94756681D02*
X145681748Y-94756681D01*
X145967462Y-94756681D02*
X145967462Y-93756681D01*
X145872224Y-93899538D01*
X145776986Y-93994776D01*
X145681748Y-94042395D01*
X146729367Y-94756681D02*
X146919843Y-94756681D01*
X147015082Y-94709062D01*
X147062701Y-94661443D01*
X147157939Y-94518586D01*
X147205558Y-94328110D01*
X147205558Y-93947157D01*
X147157939Y-93851919D01*
X147110320Y-93804300D01*
X147015082Y-93756681D01*
X146824605Y-93756681D01*
X146729367Y-93804300D01*
X146681748Y-93851919D01*
X146634129Y-93947157D01*
X146634129Y-94185252D01*
X146681748Y-94280490D01*
X146729367Y-94328110D01*
X146824605Y-94375729D01*
X147015082Y-94375729D01*
X147110320Y-94328110D01*
X147157939Y-94280490D01*
X147205558Y-94185252D01*
X144190477Y-136782381D02*
X144190477Y-137496667D01*
X144142857Y-137639524D01*
X144047619Y-137734762D01*
X143904762Y-137782381D01*
X143809524Y-137782381D01*
X144619048Y-136877619D02*
X144666667Y-136830000D01*
X144761905Y-136782381D01*
X145000001Y-136782381D01*
X145095239Y-136830000D01*
X145142858Y-136877619D01*
X145190477Y-136972857D01*
X145190477Y-137068095D01*
X145142858Y-137210952D01*
X144571429Y-137782381D01*
X145190477Y-137782381D01*
X145809524Y-136782381D02*
X145904763Y-136782381D01*
X146000001Y-136830000D01*
X146047620Y-136877619D01*
X146095239Y-136972857D01*
X146142858Y-137163333D01*
X146142858Y-137401429D01*
X146095239Y-137591905D01*
X146047620Y-137687143D01*
X146000001Y-137734762D01*
X145904763Y-137782381D01*
X145809524Y-137782381D01*
X145714286Y-137734762D01*
X145666667Y-137687143D01*
X145619048Y-137591905D01*
X145571429Y-137401429D01*
X145571429Y-137163333D01*
X145619048Y-136972857D01*
X145666667Y-136877619D01*
X145714286Y-136830000D01*
X145809524Y-136782381D01*
X134155143Y-85368782D02*
X133821809Y-84892591D01*
X133583714Y-85368782D02*
X133583714Y-84368782D01*
X133964667Y-84368782D01*
X134059905Y-84416401D01*
X134107524Y-84464020D01*
X134155143Y-84559258D01*
X134155143Y-84702115D01*
X134107524Y-84797353D01*
X134059905Y-84844972D01*
X133964667Y-84892591D01*
X133583714Y-84892591D01*
X135107524Y-85368782D02*
X134536095Y-85368782D01*
X134821809Y-85368782D02*
X134821809Y-84368782D01*
X134726571Y-84511639D01*
X134631333Y-84606877D01*
X134536095Y-84654496D01*
X135726571Y-84368782D02*
X135821810Y-84368782D01*
X135917048Y-84416401D01*
X135964667Y-84464020D01*
X136012286Y-84559258D01*
X136059905Y-84749734D01*
X136059905Y-84987830D01*
X136012286Y-85178306D01*
X135964667Y-85273544D01*
X135917048Y-85321163D01*
X135821810Y-85368782D01*
X135726571Y-85368782D01*
X135631333Y-85321163D01*
X135583714Y-85273544D01*
X135536095Y-85178306D01*
X135488476Y-84987830D01*
X135488476Y-84749734D01*
X135536095Y-84559258D01*
X135583714Y-84464020D01*
X135631333Y-84416401D01*
X135726571Y-84368782D01*
X50781262Y-86993881D02*
X50447928Y-86517690D01*
X50209833Y-86993881D02*
X50209833Y-85993881D01*
X50590786Y-85993881D01*
X50686024Y-86041500D01*
X50733643Y-86089119D01*
X50781262Y-86184357D01*
X50781262Y-86327214D01*
X50733643Y-86422452D01*
X50686024Y-86470071D01*
X50590786Y-86517690D01*
X50209833Y-86517690D01*
X51066976Y-85993881D02*
X51400309Y-86993881D01*
X51733643Y-85993881D01*
X52543167Y-85993881D02*
X52066976Y-85993881D01*
X52019357Y-86470071D01*
X52066976Y-86422452D01*
X52162214Y-86374833D01*
X52400310Y-86374833D01*
X52495548Y-86422452D01*
X52543167Y-86470071D01*
X52590786Y-86565310D01*
X52590786Y-86803405D01*
X52543167Y-86898643D01*
X52495548Y-86946262D01*
X52400310Y-86993881D01*
X52162214Y-86993881D01*
X52066976Y-86946262D01*
X52019357Y-86898643D01*
X61250581Y-95551523D02*
X61964867Y-95551523D01*
X62107724Y-95599143D01*
X62202962Y-95694381D01*
X62250581Y-95837238D01*
X62250581Y-95932476D01*
X61345819Y-95122952D02*
X61298200Y-95075333D01*
X61250581Y-94980095D01*
X61250581Y-94741999D01*
X61298200Y-94646761D01*
X61345819Y-94599142D01*
X61441057Y-94551523D01*
X61536295Y-94551523D01*
X61679152Y-94599142D01*
X62250581Y-95170571D01*
X62250581Y-94551523D01*
X62250581Y-93599142D02*
X62250581Y-94170571D01*
X62250581Y-93884857D02*
X61250581Y-93884857D01*
X61393438Y-93980095D01*
X61488676Y-94075333D01*
X61536295Y-94170571D01*
X61148981Y-106905323D02*
X61863267Y-106905323D01*
X62006124Y-106952943D01*
X62101362Y-107048181D01*
X62148981Y-107191038D01*
X62148981Y-107286276D01*
X61244219Y-106476752D02*
X61196600Y-106429133D01*
X61148981Y-106333895D01*
X61148981Y-106095799D01*
X61196600Y-106000561D01*
X61244219Y-105952942D01*
X61339457Y-105905323D01*
X61434695Y-105905323D01*
X61577552Y-105952942D01*
X62148981Y-106524371D01*
X62148981Y-105905323D01*
X61244219Y-105524371D02*
X61196600Y-105476752D01*
X61148981Y-105381514D01*
X61148981Y-105143418D01*
X61196600Y-105048180D01*
X61244219Y-105000561D01*
X61339457Y-104952942D01*
X61434695Y-104952942D01*
X61577552Y-105000561D01*
X62148981Y-105571990D01*
X62148981Y-104952942D01*
X131621281Y-75247405D02*
X132430805Y-75247405D01*
X132526043Y-75199786D01*
X132573662Y-75152167D01*
X132621281Y-75056929D01*
X132621281Y-74866452D01*
X132573662Y-74771214D01*
X132526043Y-74723595D01*
X132430805Y-74675976D01*
X131621281Y-74675976D01*
X131621281Y-73771214D02*
X131621281Y-73961691D01*
X131668900Y-74056929D01*
X131716519Y-74104548D01*
X131859376Y-74199786D01*
X132049852Y-74247405D01*
X132430805Y-74247405D01*
X132526043Y-74199786D01*
X132573662Y-74152167D01*
X132621281Y-74056929D01*
X132621281Y-73866452D01*
X132573662Y-73771214D01*
X132526043Y-73723595D01*
X132430805Y-73675976D01*
X132192710Y-73675976D01*
X132097471Y-73723595D01*
X132049852Y-73771214D01*
X132002233Y-73866452D01*
X132002233Y-74056929D01*
X132049852Y-74152167D01*
X132097471Y-74199786D01*
X132192710Y-74247405D01*
X124448843Y-74315557D02*
X124496462Y-74363176D01*
X124544081Y-74506033D01*
X124544081Y-74601271D01*
X124496462Y-74744129D01*
X124401224Y-74839367D01*
X124305986Y-74886986D01*
X124115510Y-74934605D01*
X123972652Y-74934605D01*
X123782176Y-74886986D01*
X123686938Y-74839367D01*
X123591700Y-74744129D01*
X123544081Y-74601271D01*
X123544081Y-74506033D01*
X123591700Y-74363176D01*
X123639319Y-74315557D01*
X123639319Y-73934605D02*
X123591700Y-73886986D01*
X123544081Y-73791748D01*
X123544081Y-73553652D01*
X123591700Y-73458414D01*
X123639319Y-73410795D01*
X123734557Y-73363176D01*
X123829795Y-73363176D01*
X123972652Y-73410795D01*
X124544081Y-73982224D01*
X124544081Y-73363176D01*
X123544081Y-72744129D02*
X123544081Y-72648890D01*
X123591700Y-72553652D01*
X123639319Y-72506033D01*
X123734557Y-72458414D01*
X123925033Y-72410795D01*
X124163129Y-72410795D01*
X124353605Y-72458414D01*
X124448843Y-72506033D01*
X124496462Y-72553652D01*
X124544081Y-72648890D01*
X124544081Y-72744129D01*
X124496462Y-72839367D01*
X124448843Y-72886986D01*
X124353605Y-72934605D01*
X124163129Y-72982224D01*
X123925033Y-72982224D01*
X123734557Y-72934605D01*
X123639319Y-72886986D01*
X123591700Y-72839367D01*
X123544081Y-72744129D01*
X137017523Y-138771903D02*
X136969904Y-138819522D01*
X136827047Y-138867141D01*
X136731809Y-138867141D01*
X136588951Y-138819522D01*
X136493713Y-138724284D01*
X136446094Y-138629046D01*
X136398475Y-138438570D01*
X136398475Y-138295712D01*
X136446094Y-138105236D01*
X136493713Y-138009998D01*
X136588951Y-137914760D01*
X136731809Y-137867141D01*
X136827047Y-137867141D01*
X136969904Y-137914760D01*
X137017523Y-137962379D01*
X137398475Y-137962379D02*
X137446094Y-137914760D01*
X137541332Y-137867141D01*
X137779428Y-137867141D01*
X137874666Y-137914760D01*
X137922285Y-137962379D01*
X137969904Y-138057617D01*
X137969904Y-138152855D01*
X137922285Y-138295712D01*
X137350856Y-138867141D01*
X137969904Y-138867141D01*
X138922285Y-138867141D02*
X138350856Y-138867141D01*
X138636570Y-138867141D02*
X138636570Y-137867141D01*
X138541332Y-138009998D01*
X138446094Y-138105236D01*
X138350856Y-138152855D01*
X62298343Y-141784343D02*
X62250724Y-141831962D01*
X62107867Y-141879581D01*
X62012629Y-141879581D01*
X61869771Y-141831962D01*
X61774533Y-141736724D01*
X61726914Y-141641486D01*
X61679295Y-141451010D01*
X61679295Y-141308152D01*
X61726914Y-141117676D01*
X61774533Y-141022438D01*
X61869771Y-140927200D01*
X62012629Y-140879581D01*
X62107867Y-140879581D01*
X62250724Y-140927200D01*
X62298343Y-140974819D01*
X62679295Y-140974819D02*
X62726914Y-140927200D01*
X62822152Y-140879581D01*
X63060248Y-140879581D01*
X63155486Y-140927200D01*
X63203105Y-140974819D01*
X63250724Y-141070057D01*
X63250724Y-141165295D01*
X63203105Y-141308152D01*
X62631676Y-141879581D01*
X63250724Y-141879581D01*
X63631676Y-140974819D02*
X63679295Y-140927200D01*
X63774533Y-140879581D01*
X64012629Y-140879581D01*
X64107867Y-140927200D01*
X64155486Y-140974819D01*
X64203105Y-141070057D01*
X64203105Y-141165295D01*
X64155486Y-141308152D01*
X63584057Y-141879581D01*
X64203105Y-141879581D01*
X134923234Y-82087981D02*
X134589900Y-81611790D01*
X134351805Y-82087981D02*
X134351805Y-81087981D01*
X134732758Y-81087981D01*
X134827996Y-81135600D01*
X134875615Y-81183219D01*
X134923234Y-81278457D01*
X134923234Y-81421314D01*
X134875615Y-81516552D01*
X134827996Y-81564171D01*
X134732758Y-81611790D01*
X134351805Y-81611790D01*
X135780377Y-81421314D02*
X135780377Y-82087981D01*
X135542281Y-81040362D02*
X135304186Y-81754648D01*
X135923234Y-81754648D01*
X115594782Y-70048157D02*
X115118591Y-70381491D01*
X115594782Y-70619586D02*
X114594782Y-70619586D01*
X114594782Y-70238633D01*
X114642401Y-70143395D01*
X114690020Y-70095776D01*
X114785258Y-70048157D01*
X114928115Y-70048157D01*
X115023353Y-70095776D01*
X115070972Y-70143395D01*
X115118591Y-70238633D01*
X115118591Y-70619586D01*
X114690020Y-69667205D02*
X114642401Y-69619586D01*
X114594782Y-69524348D01*
X114594782Y-69286252D01*
X114642401Y-69191014D01*
X114690020Y-69143395D01*
X114785258Y-69095776D01*
X114880496Y-69095776D01*
X115023353Y-69143395D01*
X115594782Y-69714824D01*
X115594782Y-69095776D01*
X114928115Y-68238633D02*
X115594782Y-68238633D01*
X114547163Y-68476729D02*
X115261449Y-68714824D01*
X115261449Y-68095776D01*
X124147143Y-111141380D02*
X123813809Y-110665189D01*
X123575714Y-111141380D02*
X123575714Y-110141380D01*
X123956667Y-110141380D01*
X124051905Y-110188999D01*
X124099524Y-110236618D01*
X124147143Y-110331856D01*
X124147143Y-110474713D01*
X124099524Y-110569951D01*
X124051905Y-110617570D01*
X123956667Y-110665189D01*
X123575714Y-110665189D01*
X124528095Y-110236618D02*
X124575714Y-110188999D01*
X124670952Y-110141380D01*
X124909048Y-110141380D01*
X125004286Y-110188999D01*
X125051905Y-110236618D01*
X125099524Y-110331856D01*
X125099524Y-110427094D01*
X125051905Y-110569951D01*
X124480476Y-111141380D01*
X125099524Y-111141380D01*
X126004286Y-110141380D02*
X125528095Y-110141380D01*
X125480476Y-110617570D01*
X125528095Y-110569951D01*
X125623333Y-110522332D01*
X125861429Y-110522332D01*
X125956667Y-110569951D01*
X126004286Y-110617570D01*
X126051905Y-110712809D01*
X126051905Y-110950904D01*
X126004286Y-111046142D01*
X125956667Y-111093761D01*
X125861429Y-111141380D01*
X125623333Y-111141380D01*
X125528095Y-111093761D01*
X125480476Y-111046142D01*
M02*
