G04 #@! TF.FileFunction,Soldermask,Bot*
%FSLAX46Y46*%
G04 Gerber Fmt 4.6, Leading zero omitted, Abs format (unit mm)*
G04 Created by KiCad (PCBNEW 4.0.7) date 09/15/18 12:06:30*
%MOMM*%
%LPD*%
G01*
G04 APERTURE LIST*
%ADD10C,0.100000*%
%ADD11C,2.000000*%
%ADD12O,2.000000X2.000000*%
%ADD13R,2.000000X2.000000*%
%ADD14R,2.200000X2.200000*%
%ADD15C,2.200000*%
%ADD16R,2.600000X2.600000*%
%ADD17O,2.600000X2.600000*%
%ADD18R,3.900000X3.900000*%
%ADD19R,3.400000X3.400000*%
%ADD20C,3.400000*%
%ADD21C,2.900000*%
%ADD22C,9.400000*%
%ADD23C,4.464000*%
%ADD24C,5.900000*%
%ADD25R,2.100000X2.100000*%
%ADD26O,2.100000X2.100000*%
%ADD27O,2.900000X3.900000*%
%ADD28C,1.924000*%
%ADD29O,5.400000X5.400000*%
%ADD30C,1.400000*%
%ADD31R,1.400000X1.400000*%
%ADD32C,2.400000*%
%ADD33O,2.200000X2.200000*%
G04 APERTURE END LIST*
D10*
D11*
X82931000Y-67792600D03*
D12*
X75311000Y-67792600D03*
D11*
X87833200Y-82270600D03*
X82833200Y-82270600D03*
X63754000Y-94361000D03*
X68754000Y-94361000D03*
X87884000Y-85521800D03*
X82884000Y-85521800D03*
X125285500Y-94742000D03*
X120285500Y-94742000D03*
D13*
X65686940Y-111312960D03*
D11*
X65686940Y-108812960D03*
D13*
X76708000Y-90551000D03*
D11*
X76708000Y-93051000D03*
X87731600Y-88925400D03*
X82731600Y-88925400D03*
X148209000Y-63665100D03*
X143209000Y-63665100D03*
X82092800Y-60807600D03*
X77092800Y-60807600D03*
D13*
X65786000Y-99187000D03*
D11*
X65786000Y-101687000D03*
X87731600Y-92075000D03*
X82731600Y-92075000D03*
D13*
X60642500Y-75374500D03*
D11*
X63142500Y-75374500D03*
D13*
X134302500Y-92773500D03*
D11*
X134302500Y-90273500D03*
X87782400Y-95402400D03*
X82782400Y-95402400D03*
X87909400Y-98602800D03*
X82909400Y-98602800D03*
X127000000Y-116459000D03*
X132000000Y-116459000D03*
X67792600Y-77622400D03*
X67792600Y-72622400D03*
X121373900Y-80416400D03*
X126373900Y-80416400D03*
X118237000Y-80848200D03*
X118237000Y-75848200D03*
D14*
X124714000Y-143002000D03*
D15*
X122174000Y-143002000D03*
D14*
X81534000Y-143510000D03*
D15*
X78994000Y-143510000D03*
D14*
X103886000Y-143510000D03*
D15*
X101346000Y-143510000D03*
D16*
X115062000Y-76327000D03*
D17*
X115062000Y-83947000D03*
D16*
X133096000Y-97917000D03*
D17*
X133096000Y-105537000D03*
D18*
X65532000Y-132588000D03*
X59532000Y-132588000D03*
X62532000Y-137288000D03*
D19*
X57658000Y-116332000D03*
D20*
X57658000Y-121412000D03*
D21*
X64516000Y-123698000D03*
X64770000Y-118364000D03*
D22*
X64465200Y-55295800D03*
X134696200Y-55473600D03*
D21*
X82804000Y-136144000D03*
D23*
X53594000Y-54864000D03*
X145796000Y-54864000D03*
D21*
X82550000Y-130048000D03*
D24*
X145796000Y-146050000D03*
X53594000Y-146050000D03*
D21*
X82550000Y-123444000D03*
X82804000Y-116840000D03*
D25*
X129032000Y-125476000D03*
D26*
X129032000Y-128016000D03*
X129032000Y-130556000D03*
D27*
X147213320Y-112014000D03*
D28*
X144673320Y-115824000D03*
X144673320Y-113284000D03*
D27*
X147213320Y-117094000D03*
D29*
X139593320Y-114554000D03*
D30*
X124460000Y-124714000D03*
X125730000Y-125984000D03*
D31*
X123190000Y-125984000D03*
D30*
X120904000Y-119507000D03*
X119634000Y-120777000D03*
D31*
X119634000Y-118237000D03*
D30*
X137668000Y-125984000D03*
X138938000Y-124714000D03*
D31*
X138938000Y-127254000D03*
D11*
X127635000Y-77724000D03*
D12*
X127635000Y-70104000D03*
D11*
X65151000Y-67792600D03*
D12*
X72771000Y-67792600D03*
D11*
X117157500Y-98488500D03*
D12*
X117157500Y-106108500D03*
D11*
X118110000Y-136398000D03*
D12*
X125730000Y-136398000D03*
D11*
X73088500Y-85661500D03*
D12*
X80708500Y-85661500D03*
D11*
X147129500Y-67221100D03*
D12*
X139509500Y-67221100D03*
D11*
X85826600Y-68224400D03*
D12*
X85826600Y-60604400D03*
D11*
X70866000Y-129032000D03*
D12*
X78486000Y-129032000D03*
D11*
X70866000Y-116332000D03*
D12*
X78486000Y-116332000D03*
D11*
X89585800Y-135178800D03*
D12*
X89585800Y-142798800D03*
D11*
X97536000Y-136652000D03*
D12*
X97536000Y-144272000D03*
D11*
X115824000Y-130302000D03*
D12*
X108204000Y-130302000D03*
D11*
X114808000Y-122809000D03*
D12*
X114808000Y-115189000D03*
D11*
X118364000Y-130556000D03*
D12*
X125984000Y-130556000D03*
D11*
X124206000Y-120015000D03*
D12*
X131826000Y-120015000D03*
D11*
X132334000Y-130556000D03*
D12*
X139954000Y-130556000D03*
D11*
X139954000Y-133858000D03*
D12*
X132334000Y-133858000D03*
D21*
X133861800Y-147690840D03*
X128861800Y-147690840D03*
X138861800Y-147690840D03*
X113297960Y-147802600D03*
X108297960Y-147802600D03*
X118297960Y-147802600D03*
X91728280Y-147690840D03*
X86728280Y-147690840D03*
X96728280Y-147690840D03*
X68705720Y-147802600D03*
X63705720Y-147802600D03*
X73705720Y-147802600D03*
D32*
X77724000Y-132660000D03*
X77724000Y-137160000D03*
X71224000Y-132660000D03*
X71224000Y-137160000D03*
X77978000Y-120214000D03*
X77978000Y-124714000D03*
X71478000Y-120214000D03*
X71478000Y-124714000D03*
D13*
X70688200Y-78689200D03*
D12*
X85928200Y-71069200D03*
X73228200Y-78689200D03*
X83388200Y-71069200D03*
X75768200Y-78689200D03*
X80848200Y-71069200D03*
X78308200Y-78689200D03*
X78308200Y-71069200D03*
X80848200Y-78689200D03*
X75768200Y-71069200D03*
X83388200Y-78689200D03*
X73228200Y-71069200D03*
X85928200Y-78689200D03*
X70688200Y-71069200D03*
D13*
X119443500Y-83375500D03*
D12*
X127063500Y-90995500D03*
X119443500Y-85915500D03*
X127063500Y-88455500D03*
X119443500Y-88455500D03*
X127063500Y-85915500D03*
X119443500Y-90995500D03*
X127063500Y-83375500D03*
D14*
X76708000Y-104902000D03*
D33*
X76708000Y-102362000D03*
X76708000Y-99822000D03*
D13*
X70358000Y-90297000D03*
D12*
X62738000Y-82677000D03*
X70358000Y-87757000D03*
X62738000Y-85217000D03*
X70358000Y-85217000D03*
X62738000Y-87757000D03*
X70358000Y-82677000D03*
X62738000Y-90297000D03*
D13*
X128651000Y-106807000D03*
D12*
X121031000Y-99187000D03*
X128651000Y-104267000D03*
X121031000Y-101727000D03*
X128651000Y-101727000D03*
X121031000Y-104267000D03*
X128651000Y-99187000D03*
X121031000Y-106807000D03*
D28*
X92964000Y-57150000D03*
X92964000Y-59690000D03*
X92964000Y-62230000D03*
X92964000Y-64770000D03*
X92964000Y-67310000D03*
X92964000Y-69850000D03*
X92964000Y-72390000D03*
X92964000Y-74930000D03*
X92964000Y-77470000D03*
X92964000Y-80010000D03*
X92964000Y-82550000D03*
X92964000Y-85090000D03*
X92964000Y-87630000D03*
X92964000Y-90170000D03*
X92964000Y-92710000D03*
X92964000Y-95250000D03*
X92964000Y-97790000D03*
X92964000Y-100330000D03*
X92964000Y-102870000D03*
X92964000Y-105410000D03*
X108204000Y-57150000D03*
X108204000Y-59690000D03*
X108204000Y-62230000D03*
X108204000Y-64770000D03*
X108204000Y-67310000D03*
X108204000Y-69850000D03*
X108204000Y-72390000D03*
X108204000Y-74930000D03*
X108204000Y-77470000D03*
X108204000Y-80010000D03*
X108204000Y-82550000D03*
X108204000Y-85090000D03*
X108204000Y-87630000D03*
X108204000Y-90170000D03*
X108204000Y-92710000D03*
X108204000Y-95250000D03*
X108204000Y-97790000D03*
X108204000Y-100330000D03*
X108204000Y-102870000D03*
X104394000Y-59990000D03*
X101854000Y-59990000D03*
X99314000Y-59990000D03*
X96774000Y-59990000D03*
X108204000Y-105410000D03*
D11*
X136961880Y-67223640D03*
D12*
X129341880Y-67223640D03*
D11*
X126568200Y-67111880D03*
D12*
X118948200Y-67111880D03*
D11*
X75057000Y-64363600D03*
D12*
X82677000Y-64363600D03*
D19*
X117683280Y-54762400D03*
D20*
X122763280Y-54762400D03*
D19*
X83312000Y-54584600D03*
D20*
X78232000Y-54584600D03*
D19*
X56007000Y-63500000D03*
D20*
X56007000Y-68580000D03*
D19*
X143764000Y-84328000D03*
D20*
X143764000Y-89408000D03*
D25*
X146062700Y-96634300D03*
D26*
X146062700Y-99174300D03*
X146062700Y-101714300D03*
X146062700Y-104254300D03*
D25*
X145000000Y-135000000D03*
D26*
X145000000Y-132460000D03*
X145000000Y-129920000D03*
X145000000Y-127380000D03*
D11*
X138684000Y-85115400D03*
D12*
X131064000Y-85115400D03*
D21*
X53276500Y-79391500D03*
X53276500Y-74391500D03*
X53276500Y-84391500D03*
D19*
X56718200Y-92202000D03*
D20*
X56718200Y-97282000D03*
D19*
X56616600Y-103555800D03*
D20*
X56616600Y-108635800D03*
D13*
X131216400Y-78232000D03*
D12*
X146456400Y-70612000D03*
X133756400Y-78232000D03*
X143916400Y-70612000D03*
X136296400Y-78232000D03*
X141376400Y-70612000D03*
X138836400Y-78232000D03*
X138836400Y-70612000D03*
X141376400Y-78232000D03*
X136296400Y-70612000D03*
X143916400Y-78232000D03*
X133756400Y-70612000D03*
X146456400Y-78232000D03*
X131216400Y-70612000D03*
D11*
X124053600Y-71170800D03*
X124053600Y-76170800D03*
X135229600Y-138414760D03*
X140229600Y-138414760D03*
X65341500Y-141427200D03*
X60341500Y-141427200D03*
X131025900Y-81762600D03*
D12*
X138645900Y-81762600D03*
D11*
X115062000Y-65913000D03*
D12*
X115062000Y-73533000D03*
M02*
