M48
;DRILL file {KiCad 4.0.7} date 09/16/18 11:34:22
;FORMAT={-:-/ absolute / metric / decimal}
FMAT,2
METRIC,TZ
T1C0.400
T2C0.600
T3C0.762
T4C0.800
T5C0.900
T6C1.000
T7C1.100
T8C1.200
T9C1.500
T10C1.520
T11C1.800
T12C3.048
T13C4.000
T14C5.000
%
G90
G05
M71
T1
X64.008Y-91.567
X68.313Y-96.088
X68.834Y-114.808
X78.461Y-96.139
X83.21Y-106.629
X83.439Y-107.95
X95.758Y-119.761
X96.774Y-122.276
X98.171Y-120.701
X99.263Y-119.863
X100.686Y-119.837
X101.194Y-118.135
X105.41Y-129.54
X106.426Y-129.718
X110.49Y-145.796
X115.722Y-93.523
X116.51Y-92.507
X120.929Y-76.556
X127.051Y-93.904
X127.457Y-92.761
X130.556Y-145.796
T2
X119.634Y-118.237
X119.634Y-120.777
X120.904Y-119.507
X123.19Y-125.984
X124.46Y-124.714
X125.73Y-125.984
X137.668Y-125.984
X138.938Y-124.714
X138.938Y-127.254
T3
X92.964Y-57.15
X92.964Y-59.69
X92.964Y-62.23
X92.964Y-64.77
X92.964Y-67.31
X92.964Y-69.85
X92.964Y-72.39
X92.964Y-74.93
X92.964Y-77.47
X92.964Y-80.01
X92.964Y-82.55
X92.964Y-85.09
X92.964Y-87.63
X92.964Y-90.17
X92.964Y-92.71
X92.964Y-95.25
X92.964Y-97.79
X92.964Y-100.33
X92.964Y-102.87
X92.964Y-105.41
X96.774Y-59.99
X99.314Y-59.99
X101.854Y-59.99
X104.394Y-59.99
X108.204Y-57.15
X108.204Y-59.69
X108.204Y-62.23
X108.204Y-64.77
X108.204Y-67.31
X108.204Y-69.85
X108.204Y-72.39
X108.204Y-74.93
X108.204Y-77.47
X108.204Y-80.01
X108.204Y-82.55
X108.204Y-85.09
X108.204Y-87.63
X108.204Y-90.17
X108.204Y-92.71
X108.204Y-95.25
X108.204Y-97.79
X108.204Y-100.33
X108.204Y-102.87
X108.204Y-105.41
X144.673Y-113.284
X144.673Y-115.824
T4
X60.341Y-141.427
X60.642Y-75.374
X62.738Y-82.677
X62.738Y-85.217
X62.738Y-87.757
X62.738Y-90.297
X63.142Y-75.374
X63.754Y-94.361
X65.151Y-67.793
X65.341Y-141.427
X65.687Y-108.813
X65.687Y-111.313
X65.786Y-99.187
X65.786Y-101.687
X67.793Y-72.622
X67.793Y-77.622
X68.754Y-94.361
X70.358Y-82.677
X70.358Y-85.217
X70.358Y-87.757
X70.358Y-90.297
X70.688Y-71.069
X70.688Y-78.689
X70.866Y-116.332
X70.866Y-129.032
X72.771Y-67.793
X73.088Y-85.661
X73.228Y-71.069
X73.228Y-78.689
X75.057Y-64.364
X75.311Y-67.793
X75.768Y-71.069
X75.768Y-78.689
X76.708Y-90.551
X76.708Y-93.051
X77.093Y-60.808
X78.308Y-71.069
X78.308Y-78.689
X78.486Y-116.332
X78.486Y-129.032
X80.709Y-85.661
X80.848Y-71.069
X80.848Y-78.689
X82.093Y-60.808
X82.677Y-64.364
X82.732Y-88.925
X82.732Y-92.075
X82.782Y-95.402
X82.833Y-82.271
X82.884Y-85.522
X82.909Y-98.603
X82.931Y-67.793
X83.388Y-71.069
X83.388Y-78.689
X85.827Y-60.604
X85.827Y-68.224
X85.928Y-71.069
X85.928Y-78.689
X87.732Y-88.925
X87.732Y-92.075
X87.782Y-95.402
X87.833Y-82.271
X87.884Y-85.522
X87.909Y-98.603
X89.586Y-135.179
X89.586Y-142.799
X97.536Y-136.652
X97.536Y-144.272
X108.204Y-130.302
X114.808Y-115.189
X114.808Y-122.809
X115.062Y-65.913
X115.062Y-73.533
X115.824Y-130.302
X117.157Y-98.489
X117.157Y-106.108
X118.11Y-136.398
X118.237Y-75.848
X118.237Y-80.848
X118.364Y-130.556
X118.948Y-67.112
X119.444Y-83.376
X119.444Y-85.915
X119.444Y-88.456
X119.444Y-90.995
X120.285Y-94.742
X120.904Y-110.617
X121.031Y-99.187
X121.031Y-101.727
X121.031Y-104.267
X121.031Y-106.807
X121.374Y-80.416
X124.054Y-71.171
X124.054Y-76.171
X124.206Y-120.015
X125.285Y-94.742
X125.73Y-136.398
X125.984Y-130.556
X126.374Y-80.416
X126.568Y-67.112
X127.Y-116.459
X127.063Y-83.376
X127.063Y-85.915
X127.063Y-88.456
X127.063Y-90.995
X127.635Y-70.104
X127.635Y-77.724
X128.524Y-110.617
X128.651Y-99.187
X128.651Y-101.727
X128.651Y-104.267
X128.651Y-106.807
X129.342Y-67.224
X131.026Y-81.763
X131.064Y-85.115
X131.216Y-70.612
X131.216Y-78.232
X131.826Y-120.015
X132.Y-116.459
X132.334Y-130.556
X132.334Y-133.858
X133.756Y-70.612
X133.756Y-78.232
X134.302Y-90.273
X134.302Y-92.773
X135.23Y-138.415
X136.296Y-70.612
X136.296Y-78.232
X136.962Y-67.224
X138.646Y-81.763
X138.684Y-85.115
X138.836Y-70.612
X138.836Y-78.232
X139.51Y-67.221
X139.954Y-130.556
X139.954Y-133.858
X140.23Y-138.415
X141.376Y-70.612
X141.376Y-78.232
X143.209Y-63.665
X143.916Y-70.612
X143.916Y-78.232
X146.456Y-70.612
X146.456Y-78.232
X147.13Y-67.221
X148.209Y-63.665
T5
X78.994Y-143.51
X81.534Y-143.51
X101.346Y-143.51
X103.886Y-143.51
X122.174Y-143.002
X124.714Y-143.002
T6
X76.708Y-99.822
X76.708Y-102.362
X76.708Y-104.902
X129.032Y-125.476
X129.032Y-128.016
X129.032Y-130.556
X145.Y-127.38
X145.Y-129.92
X145.Y-132.46
X145.Y-135.
X146.063Y-96.634
X146.063Y-99.174
X146.063Y-101.714
X146.063Y-104.254
T7
X71.224Y-132.66
X71.224Y-137.16
X71.478Y-120.214
X71.478Y-124.714
X77.724Y-132.66
X77.724Y-137.16
X77.978Y-120.214
X77.978Y-124.714
X115.062Y-76.327
X115.062Y-83.947
X133.096Y-97.917
X133.096Y-105.537
T8
X53.276Y-74.391
X53.276Y-79.391
X53.276Y-84.391
X63.706Y-147.803
X68.706Y-147.803
X73.706Y-147.803
X86.728Y-147.691
X91.728Y-147.691
X96.728Y-147.691
X108.298Y-147.803
X113.298Y-147.803
X118.298Y-147.803
X128.862Y-147.691
X133.862Y-147.691
X138.862Y-147.691
T9
X64.516Y-123.698
X64.77Y-118.364
X82.55Y-123.444
X82.55Y-130.048
X82.804Y-116.84
X82.804Y-136.144
T10
X56.007Y-63.5
X56.007Y-68.58
X56.617Y-103.556
X56.617Y-108.636
X56.718Y-92.202
X56.718Y-97.282
X57.658Y-116.332
X57.658Y-121.412
X78.232Y-54.585
X83.312Y-54.585
X117.683Y-54.762
X122.763Y-54.762
X143.764Y-84.328
X143.764Y-89.408
T12
X53.594Y-54.864
X53.594Y-146.05
X145.796Y-54.864
X145.796Y-146.05
T14
X64.465Y-55.296
X134.696Y-55.474
T6
X59.532Y-131.588G85X59.532Y-133.588
G05
X61.532Y-137.288G85X63.532Y-137.288
G05
X65.532Y-131.588G85X65.532Y-133.588
G05
T11
X147.213Y-111.664G85X147.213Y-112.364
G05
X147.213Y-116.744G85X147.213Y-117.444
G05
T13
X139.593Y-114.554G85X139.593Y-114.554
G05
T0
M30
