M48
;DRILL file {KiCad 4.0.7} date 07/31/18 21:51:34
;FORMAT={-:-/ absolute / metric / decimal}
FMAT,2
METRIC,TZ
T1C0.400
T2C0.600
T3C0.762
T4C0.800
T5C0.900
T6C1.000
T7C1.100
T8C1.200
T9C1.500
T10C1.520
T11C1.800
T12C3.048
T13C4.000
T14C5.000
%
G90
G05
M71
T1
X68.555Y-98.298
X68.682Y-97.409
X68.834Y-114.808
X74.93Y-124.206
X78.842Y-98.527
X79.858Y-97.282
X90.17Y-72.898
X94.488Y-130.302
X95.758Y-119.126
X97.028Y-119.38
X98.298Y-127.
X101.092Y-125.73
X105.41Y-129.54
X106.426Y-77.978
X106.426Y-129.286
X110.49Y-145.796
X129.794Y-89.408
X130.556Y-145.796
T2
X119.38Y-114.046
X119.38Y-116.586
X120.65Y-115.316
X123.19Y-125.984
X124.46Y-124.714
X125.73Y-125.984
X137.668Y-125.984
X138.938Y-124.714
X138.938Y-127.254
T3
X93.421Y-76.429
X93.421Y-78.969
X93.421Y-81.509
X93.421Y-84.049
X93.421Y-86.589
X93.421Y-89.129
X93.421Y-91.669
X93.421Y-94.209
X93.421Y-96.749
X93.421Y-99.289
X93.421Y-101.829
X93.421Y-104.369
X93.421Y-106.909
X93.421Y-109.449
X93.421Y-111.989
X93.421Y-114.529
X93.421Y-117.069
X93.421Y-119.609
X93.421Y-122.149
X93.421Y-124.689
X97.231Y-79.269
X99.771Y-79.269
X102.311Y-79.269
X104.851Y-79.269
X108.661Y-76.429
X108.661Y-78.969
X108.661Y-81.509
X108.661Y-84.049
X108.661Y-86.589
X108.661Y-89.129
X108.661Y-91.669
X108.661Y-94.209
X108.661Y-96.749
X108.661Y-99.289
X108.661Y-101.829
X108.661Y-104.369
X108.661Y-106.909
X108.661Y-109.449
X108.661Y-111.989
X108.661Y-114.529
X108.661Y-117.069
X108.661Y-119.609
X108.661Y-122.149
X108.661Y-124.689
X144.996Y-113.233
X144.996Y-115.773
T4
X64.318Y-78.08
X64.318Y-80.62
X64.318Y-83.16
X64.318Y-85.7
X64.47Y-74.59
X65.024Y-89.98
X65.481Y-108.788
X65.481Y-111.288
X66.04Y-141.986
X67.096Y-68.58
X69.596Y-68.58
X70.024Y-89.98
X70.866Y-116.332
X70.866Y-129.032
X71.938Y-78.08
X71.938Y-80.62
X71.938Y-83.16
X71.938Y-85.7
X72.09Y-74.59
X73.66Y-141.986
X75.629Y-91.67
X75.629Y-94.17
X78.486Y-116.332
X78.486Y-129.032
X79.228Y-79.821
X79.228Y-82.321
X81.839Y-60.96
X82.042Y-64.364
X82.071Y-95.161
X82.122Y-111.481
X82.173Y-98.567
X82.287Y-108.013
X82.338Y-104.94
X82.401Y-101.93
X87.071Y-95.161
X87.122Y-111.481
X87.173Y-98.567
X87.287Y-108.013
X87.338Y-104.94
X87.401Y-101.93
X88.697Y-53.064
X88.697Y-58.064
X89.459Y-60.96
X89.662Y-64.364
X92.329Y-53.01
X92.329Y-60.63
X92.329Y-62.865
X92.329Y-70.485
X95.91Y-53.645
X95.91Y-56.185
X95.91Y-58.725
X95.91Y-61.265
X95.91Y-63.805
X95.91Y-66.345
X95.91Y-68.885
X97.346Y-72.187
X97.536Y-136.652
X97.536Y-144.272
X102.346Y-72.187
X103.53Y-53.645
X103.53Y-56.185
X103.53Y-58.725
X103.53Y-61.265
X103.53Y-63.805
X103.53Y-66.345
X103.53Y-68.885
X106.68Y-52.832
X106.68Y-60.452
X106.909Y-63.221
X106.909Y-70.841
X108.204Y-130.302
X109.753Y-61.239
X109.83Y-64.77
X110.084Y-53.217
X110.084Y-58.217
X114.3Y-74.756
X114.3Y-79.756
X115.824Y-130.302
X116.586Y-110.49
X117.373Y-61.239
X117.45Y-64.77
X118.11Y-136.398
X118.364Y-130.556
X119.748Y-85.611
X119.926Y-74.409
X119.926Y-76.949
X119.926Y-79.489
X119.926Y-82.029
X120.082Y-88.989
X120.122Y-94.92
X120.122Y-97.46
X120.122Y-100.
X120.122Y-102.54
X122.682Y-70.612
X124.206Y-110.49
X124.206Y-116.078
X125.082Y-88.989
X125.73Y-136.398
X125.984Y-130.556
X126.492Y-112.268
X127.368Y-85.611
X127.546Y-74.409
X127.546Y-76.949
X127.546Y-79.489
X127.546Y-82.029
X127.682Y-70.612
X127.742Y-94.92
X127.742Y-97.46
X127.742Y-100.
X127.742Y-102.54
X131.064Y-81.534
X131.492Y-112.268
X131.826Y-116.078
X132.334Y-130.556
X132.334Y-133.858
X135.128Y-86.106
X135.128Y-88.606
X138.684Y-81.534
X139.954Y-130.556
X139.954Y-133.858
T5
X78.994Y-143.51
X81.534Y-143.51
X101.346Y-143.51
X103.886Y-143.51
X122.174Y-143.002
X124.714Y-143.002
T6
X76.708Y-99.822
X76.708Y-102.362
X76.708Y-104.902
X129.032Y-125.476
X129.032Y-128.016
X129.032Y-130.556
X145.Y-127.38
X145.Y-129.92
X145.Y-132.46
X145.Y-135.
X146.063Y-96.634
X146.063Y-99.174
X146.063Y-101.714
X146.063Y-104.254
T7
X71.224Y-132.66
X71.224Y-137.16
X71.478Y-120.214
X71.478Y-124.714
X77.724Y-132.66
X77.724Y-137.16
X77.978Y-120.214
X77.978Y-124.714
X110.81Y-70.521
X118.43Y-70.521
X134.861Y-96.545
X142.481Y-96.545
T8
X53.276Y-74.391
X53.276Y-79.391
X53.276Y-84.391
X63.66Y-148.082
X68.66Y-148.082
X73.66Y-148.082
X86.774Y-148.082
X91.774Y-148.082
X96.774Y-148.082
X108.364Y-148.082
X113.364Y-148.082
X118.364Y-148.082
X128.684Y-148.082
X133.684Y-148.082
X138.684Y-148.082
T9
X64.516Y-123.698
X64.77Y-118.364
X82.55Y-123.444
X82.55Y-130.048
X82.804Y-116.84
X82.804Y-136.144
T10
X56.515Y-63.373
X56.515Y-68.453
X56.617Y-103.556
X56.617Y-108.636
X56.718Y-92.202
X56.718Y-97.282
X57.658Y-116.332
X57.658Y-121.412
X78.232Y-54.585
X83.312Y-54.585
X115.926Y-54.585
X121.006Y-54.585
X143.764Y-84.328
X143.764Y-89.408
T12
X53.594Y-54.864
X53.594Y-146.05
X145.796Y-54.864
X145.796Y-146.05
T14
X64.465Y-55.296
X134.696Y-55.474
T6
X59.532Y-131.588G85X59.532Y-133.588
G05
X61.532Y-137.288G85X63.532Y-137.288
G05
X65.532Y-131.588G85X65.532Y-133.588
G05
T11
X147.536Y-111.613G85X147.536Y-112.313
G05
X147.536Y-116.693G85X147.536Y-117.393
G05
T13
X139.916Y-114.503G85X139.916Y-114.503
G05
T0
M30
